<?xml version="1.0" encoding="UTF-8"?>
<!DOCTYPE svg PUBLIC "-//W3C//DTD SVG 1.1//EN" "http://www.w3.org/Graphics/SVG/1.1/DTD/svg11.dtd">
<svg version="1.1" xmlns="http://www.w3.org/2000/svg" xmlns:xlink="http://www.w3.org/1999/xlink" x="0" y="0" width="600" height="600" viewBox="0, 0, 600, 600">
  <g id="Artichoke">
    <path d="M590.308,170.469 C600.372,175.681 601.236,178.513 598.96,189.297 C592.292,221.285 577.856,249.633 558.868,275.845 C554.764,281.489 550.368,286.921 546.532,291.917 C548.072,298.981 550.792,305.021 550.376,310.845 C549.216,327.973 548.524,345.289 541.5,361.461 C534.684,377.189 528.072,393.017 521.308,408.981 C529.816,424.149 530.708,429.289 522.848,443.089 C509.544,466.553 493.656,487.633 466.452,496.501 C457.564,499.393 448.764,502.561 439.908,505.537 C435.692,506.949 431.444,508.209 423.924,510.561 C431.364,513.553 435.628,514.981 439.632,516.961 C445.78,520.005 446.692,528.081 441.564,532.425 C440.388,533.441 439.16,534.469 437.788,535.129 C419.6,544.005 401.432,552.913 383.144,561.605 C373.352,566.253 363.468,570.745 353.396,574.737 C347.724,576.989 341.556,579.513 335.684,579.389 C324.892,579.153 313.976,577.781 303.392,575.581 C278.86,570.501 259.528,556.369 242.148,538.837 C232.288,528.893 221.588,519.789 210.996,510.609 C206.244,506.489 200.716,503.425 192.844,505.217 C178.016,516.277 161.828,527.257 146.948,539.793 C135.056,549.797 124.872,561.817 113.736,572.725 C109.292,577.057 104.524,581.141 99.516,584.801 C90.424,591.477 80.728,591.425 70.864,586.349 C60.996,581.277 52.916,574.073 45.76,565.617 C36.224,554.369 26.972,543.145 14.704,534.177 C-1.836,522.097 -4.26,501.141 6.608,483.925 C9.504,479.333 12.792,474.825 16.684,471.073 C29.552,458.633 42.756,446.517 55.88,434.321 C61.012,429.537 66.796,425.353 71.3,420.033 C76.224,414.265 84.096,410.705 85.732,401.521 C83.94,394.669 79.604,389.757 72.992,386.253 C64.04,381.517 55.376,376.249 46.532,371.265 C39.604,367.373 33.812,362.449 29.956,355.245 C24.368,344.849 28.092,336.501 39.564,334.729 C43.396,334.141 47.36,334.357 51.172,333.741 C55.208,333.101 59.996,337.597 63.94,331.393 C61.104,327.877 58.304,324.305 55.4,320.829 C39.788,302.065 32.104,280.721 32.36,256.041 C32.576,234.305 38.136,214.533 49.276,196.033 C52.844,190.089 55.604,183.593 58.196,177.133 C67.98,152.749 81.36,131.061 103.176,115.605 C108.236,112.021 113.048,107.317 118.72,105.565 C124.148,103.877 130.544,105.365 135.72,105.433 C142.624,96.725 147.672,87.301 155.352,81.209 C179.768,61.829 204.392,42.217 237.872,41.097 C242.06,40.953 247.656,38.897 250.024,35.765 C259.312,23.501 272.468,19.673 286.26,16.425 C319.996,8.485 354.332,10.325 388.536,10.001 C389.876,9.981 391.252,11.253 392.604,11.913 C399.056,18.089 388.404,26.613 393.872,31.969 C409.452,28.161 423.56,22.453 437.908,21.785 C456.084,20.933 474.44,24.165 492.452,25.617 C494.76,38.377 481.012,46.049 485.604,57.601 C528.544,65.257 542.956,70.297 559.952,83.677 C555.276,105.533 549.196,127.449 550.672,151.461 C565.048,158.321 577.856,164.045 590.308,170.469 z M75.664,312.189 C82.256,318.801 90.148,324.145 96.552,330.909 C101.272,335.865 105.668,341.777 108.12,348.077 C110.26,353.601 110.32,360.325 109.812,366.401 C109.156,374.261 100.108,373.117 95.904,377.529 C98.288,382.425 100.644,387.301 103.008,392.185 C105.028,396.313 107.024,400.445 108.876,404.281 C108.484,412.325 104.112,417.801 98.94,422.673 C86.472,434.437 73.928,446.113 61.272,457.673 C54.44,463.941 46.372,468.949 41.336,478.241 C42.864,480.637 43.98,483.837 46.204,485.573 C60.828,496.917 69.872,512.381 78.02,528.473 C83.272,538.829 89.136,548.661 97.292,558.473 C102.504,553.665 106.356,549.945 110.356,546.421 C122.596,535.577 134.456,524.213 147.316,514.193 C158.52,505.477 171.2,498.521 169.196,481.637 C186.324,475.433 200.4,480.257 213.596,486.385 C226.248,492.253 237.784,500.289 247.412,510.997 C257.796,522.537 269.512,532.701 284.872,542.057 C284.056,538.585 284.036,536.801 283.264,535.441 C282.12,533.441 280.456,531.729 278.96,529.941 C269.432,518.617 260.572,506.617 250.216,496.105 C231.576,477.201 211.696,459.789 183.936,455.569 C179.712,454.917 176.284,451.801 177.82,447.473 C178.912,444.381 182.952,439.833 185.192,440.105 C194.296,441.165 204.796,441.513 211.92,446.361 C232.604,460.437 239.44,457.625 262.14,448.317 C269.156,445.441 277.612,445.637 282.152,437.705 C287.728,427.901 290.844,417.681 289.208,406.317 C288.864,403.977 288.636,401.657 288.228,399.341 C283.972,376.013 282.784,352.857 290.36,329.817 C292.488,323.277 292.82,316.153 293.944,309.553 C253.324,285.233 195.672,297.885 147.984,341.913 C147.068,349.969 146.3,359.245 144.88,368.397 C144.16,373.049 142.288,377.597 136.36,377.933 C130.9,378.245 125.716,374.201 124.832,368.401 C124.26,364.601 124.38,360.645 124.552,356.769 C125.608,331.401 117.816,309.789 100.748,290.477 C87.4,275.357 76.756,257.841 64.756,241.497 C62.696,238.709 59.824,236.545 55.248,232.033 C49.148,264.401 54.04,290.537 75.664,312.189 z M451.712,393.269 C455.404,372.657 457.88,351.837 460.98,330.305 C458.284,328.629 455.92,326.269 453.16,325.605 C433.492,320.821 413.764,316.365 394.04,311.881 C382.256,309.201 370.756,310.601 359.684,315.073 C342.424,322.053 325.276,329.357 308.568,336.341 C301.74,352.601 303.072,368.761 305.828,383.601 C309.652,404.201 309.968,423.741 300.056,445.137 C307.14,444.601 311.808,445.293 315.484,443.705 C321.832,440.929 327.788,436.985 333.584,433.037 C348.08,423.189 364.58,418.697 381.204,414.517 C391.38,411.965 401.172,413.621 411.076,416.509 C419.904,419.093 428.696,423.241 438.792,419.989 C446.024,412.769 449.936,403.197 451.712,393.269 z M395.508,161.225 C399.816,162.957 403.784,165.173 408.004,166.101 C413.276,167.257 418.784,167.577 424.2,167.853 C450.604,169.205 450.588,169.153 446.28,194.577 C446.032,196.065 446.42,197.669 446.536,199.213 C447.856,199.941 449.412,201.545 450.436,201.261 C461.584,198.077 472.472,193.597 483.832,191.513 C494.404,189.573 505.416,190.101 516.008,189.545 C526.452,177.485 531.644,164.369 531.52,148.681 C531.452,139.401 533.824,130.129 534.692,120.801 C535.496,112.337 535.736,103.829 536.24,95.253 C517.668,82.133 497.872,78.353 477.872,84.369 C453.384,91.741 429.756,102.009 405.796,111.149 C404.468,111.649 403.52,113.185 401.596,115.001 C399.688,129.465 397.684,144.781 395.508,161.225 z M384.12,184.353 C359.16,189.709 334.492,196.337 309.692,196.697 C301.028,214.965 294.14,259.565 295.992,282.233 C317.632,294.821 317.632,294.821 323.808,306.413 C348.612,300.177 371.712,283.773 397.62,290.625 C413.4,277.097 418.032,260.553 420.516,243.553 C423.088,226.001 423.956,208.189 425.592,190.013 C411.64,183.405 397.668,181.449 384.12,184.353 z M378.384,140.977 C381.132,119.469 383.092,97.861 385.476,75.189 C380.2,74.905 374.948,74.233 369.712,74.389 C351.912,74.937 334.104,75.277 316.352,76.657 C303.284,77.665 290.288,79.949 277.332,82.129 C267.636,83.757 262.82,90.477 261.512,99.885 C260.872,104.469 260.152,109.193 260.532,113.757 C261.512,125.317 263.084,136.825 264.488,149.001 C275.72,152.249 286.436,152.093 297.168,151.965 C301.032,151.909 304.944,151.573 308.764,151.965 C313.384,152.429 316.924,156.977 316.704,161.929 C316.596,164.205 315.512,166.425 315.112,168.713 C314.728,170.937 314.676,173.225 314.408,176.077 C334.748,178.677 352.68,170.973 372.6,165.309 C374.524,157.373 377.328,149.293 378.384,140.977 z M207.052,281.149 C228.808,278.881 249.412,276.737 272.38,274.349 C279.316,260.573 276.564,242.877 280.272,226.513 C284.024,209.949 285.748,192.921 288.332,176.273 C246.612,164.269 212.06,170.357 185.532,205.029 C191.592,230.817 194.56,257.225 207.052,281.149 z M425.824,294.189 C430.928,296.641 434.744,299.433 438.952,300.333 C454.816,303.673 469.876,310.965 486.892,308.869 C495.268,307.841 501.228,304.629 506.908,298.553 C515.752,289.065 520.996,277.881 524.14,265.693 C528.008,250.581 531.172,235.285 534.404,220.025 C535.024,217.145 534.476,214.013 534.456,210.205 C518.108,210.245 502.632,209.777 487.212,210.469 C469.172,211.293 455.08,221.001 441.08,232.717 C442.992,254.321 435.396,273.829 425.824,294.189 z M187.988,171.533 C201.468,157.469 224.028,155.101 243.836,146.389 C242.604,131.061 240.012,117.149 240.828,103.441 C241.596,90.517 245.98,77.813 249.104,63.457 C245.488,62.713 241.352,61.165 237.244,61.225 C232.668,61.301 227.832,62.121 223.608,63.849 C190.5,77.353 161.476,95.577 147.008,130.769 C140.732,146.009 140.88,150.061 151.692,167.893 C163.968,169.125 174.54,170.185 187.988,171.533 z M347.684,483.173 C330.472,471.585 310.764,466.877 290.488,464.813 C279.676,463.721 268.74,464.193 259.236,473.285 C263.492,485.373 272.396,494.193 280.08,503.549 C288.46,513.769 298.18,522.873 307.176,532.585 C316.136,542.241 326.556,545.825 340.148,546.189 C360.276,546.709 378.796,543.361 396.12,533.529 C399.768,531.465 402.408,527.629 406.128,523.981 C385.684,509.657 366.888,496.105 347.684,483.173 z M185.78,288.805 C177.324,256.609 168.904,224.533 160.448,192.353 C131.08,190.785 107.304,204.909 95.52,230.905 C92.396,237.809 92.128,244.365 96.336,250.877 C97.6,252.849 98.504,255.057 99.944,256.857 C107.704,266.585 115.852,276.009 123.312,285.933 C130.212,295.125 136.42,304.845 143.276,314.821 C157.916,305.861 171.692,297.417 185.78,288.805 z M408.94,435.933 C398.2,432.569 387.648,432.825 376.808,436.241 C364.184,440.225 351.724,444.293 339.832,453.057 C346.976,464.369 359.864,465.457 368.58,472.457 C377.628,479.757 387.428,486.117 397.312,493.157 C415.784,488.449 434.072,484.629 451.768,478.985 C462.004,475.721 471.516,469.889 480.936,464.485 C485.612,461.813 489.444,457.565 487.912,448.601 C460.176,449.513 434.376,443.853 408.94,435.933 z M475.22,429.953 C505.052,400.081 526.82,357.297 528.356,324.957 C513.712,324.157 499.852,328.289 486.084,330.609 C479.456,338.881 479.652,348.677 477.576,357.525 C474.912,368.829 474.884,380.781 471.86,391.949 C468.904,402.989 463.624,413.405 458.152,427.157 C465.344,428.329 470.508,429.189 475.22,429.953 z M282.952,56.025 C314.244,58.121 345.044,56.457 364.54,51.397 C365.348,47.541 366.5,43.133 367.164,38.645 C367.48,36.481 366.896,34.181 366.736,32.073 C336.6,26.973 302.648,30.449 277.572,41.217 C279.376,46.189 281.188,51.181 282.952,56.025 z M86.888,162.841 C81.22,172.933 77.488,184.141 73.004,194.889 C69.772,202.637 70.184,210.001 76.236,217.605 C87.832,213.825 91.668,201.241 100.908,194.809 C109.764,188.633 117.836,181.321 127.316,173.637 C125.384,160.573 123.568,147.101 114.724,134.997 C101.676,141.209 93.3,151.421 86.888,162.841 z M405.54,83.489 C418.76,84.021 438.652,77.797 461.416,66.085 C462.468,59.473 463.672,51.993 465.052,43.377 C447.12,35.469 431.54,40.245 416.592,47.373 C412.752,59.969 409.168,71.629 405.54,83.489 z M545.056,185.169 C561.856,189.629 561.876,189.789 557.916,204.237 C553.58,219.973 549.404,235.761 545.448,251.589 C544.788,254.185 545.56,257.141 545.676,260.477 C548.34,259.733 550.152,259.789 550.664,258.997 C562.192,240.501 572.164,221.205 579.276,200.525 C584.488,185.425 582.992,182.557 567.336,176.517 C563.748,175.125 560.168,173.601 556.428,172.553 C549.116,170.485 546.968,172.481 543.736,183.609 C544.172,184.149 544.532,185.029 545.056,185.169 z M39.74,508.673 C37.04,506.069 33.74,504.001 30.488,502.081 C29.404,501.449 26.972,501.465 26.264,502.217 C24.856,503.745 23.112,506.253 23.504,507.865 C24.38,511.409 25.604,515.945 28.264,517.813 C40.512,526.377 48.776,538.521 58.344,549.525 C59.74,551.121 61.824,552.101 67.664,556.317 C59.672,535.773 52.224,520.673 39.74,508.673 z" fill="#005434"/>
    <path d="M126.812,441.917 C137.668,429.977 151.56,420.001 163.968,408.433 C169.04,403.705 173.692,398.429 177.86,392.881 C179.504,390.677 179.672,387.105 179.868,384.117 C180.104,380.445 174.596,377.121 171.316,378.685 C169.928,379.349 168.352,379.849 167.24,380.841 C138.268,406.785 106.04,429.209 81.968,460.433 C79.152,464.085 76.12,467.765 74.148,471.869 C71.24,477.857 76.612,485.217 83.312,483.985 C88.632,482.997 92.996,480.705 98.06,485.541 C99.904,487.313 105.492,486.461 108.724,485.169 C118.484,481.265 124.624,472.885 130.848,464.897 C136.408,457.745 135.996,456.165 128.8,447.273 C127.952,446.225 127.784,444.609 126.812,441.917 z" fill="#005434"/>
    <path d="M165.348,466.14 C165.92,464.7 167.18,463.124 166.912,461.872 C166.332,459.12 165.652,455.344 163.708,454.16 C161.604,452.888 157.964,453.796 155.116,454.372 C153.84,454.608 152.476,456.128 151.836,457.42 C145.948,468.968 135.472,475.624 125.64,483.148 C120.232,487.26 115.532,492.536 111.4,497.952 C110.168,499.576 111.028,504.38 112.632,506.124 C114.22,507.876 118.96,509.096 120.644,507.98 C137.932,496.684 156.944,487.044 165.348,466.14 z" fill="#005434"/>
    <path d="M262.828,337.117 C261.736,345.005 260.092,354.061 259.38,363.193 C259.068,367.041 261.292,371.225 265.916,370.945 C268.488,370.797 272.652,368.545 273.144,366.521 C276.396,353.137 279,339.565 281.336,325.977 C281.572,324.693 278.812,322.433 277.008,321.397 C276.084,320.869 273.6,321.585 272.848,322.573 C269.628,326.769 266.784,331.285 262.828,337.117 z" fill="#005434"/>
    <path d="M218.04,337.301 C219.548,339.661 220.82,344.313 223.416,345.249 C233.084,348.717 252.66,338.517 256.316,328.993 C257.748,325.241 254.476,319.501 251.152,320.621 C241.044,324.041 231.116,328.053 221.224,332.085 C220.1,332.553 219.624,334.613 218.04,337.301 z" fill="#005434"/>
    <path d="M184.576,424.609 C194.028,428.145 204.592,421.897 205.328,413.817 C205.616,410.665 201.16,405.925 198.04,406.229 C191.564,406.845 185.86,409.665 183.072,415.437 C181.88,417.925 184.084,422.065 184.576,424.609 z" fill="#005434"/>
    <path d="M447.324,359.453 C447.78,355.693 448.904,348.889 449.284,342.049 C449.364,340.297 447.296,337.097 445.856,336.861 C443.14,336.449 439.52,336.889 437.48,338.505 C435.256,340.221 434.508,343.725 432.952,346.393 C428.744,353.661 424.456,360.909 420.168,368.145 C419.016,370.109 416.828,371.973 416.76,373.957 C416.652,376.789 417.244,380.497 419.056,382.329 C420.78,384.089 424.76,385.089 427.208,384.429 C438.252,381.449 441.708,371.473 447.324,359.453 z" fill="#005434"/>
    <path d="M400.26,342.869 C398.496,346.601 402.416,352.817 406.712,353.005 C408.192,353.073 409.824,353.209 411.164,352.729 C420.3,349.585 426.82,342.009 426.032,334.941 C425.836,333.133 423.788,330.537 422.12,330.081 C414.34,328.005 404.484,334.041 400.26,342.869 z" fill="#005434"/>
    <path d="M338.008,357.121 C333.368,355.949 331.368,354.781 330.5,355.341 C326.096,358.221 321.68,361.261 317.916,364.885 C316.824,365.933 317.132,369.585 318.088,371.297 C319.032,372.953 321.692,374.685 323.504,374.585 C331.444,374.181 336.864,369.269 337.94,362.057 C338.276,359.745 338.02,357.337 338.008,357.121 z" fill="#005434"/>
    <path d="M327.12,402.121 C327.612,403.509 327.768,406.153 329.152,407.377 C330.648,408.677 333.576,409.549 335.396,409.009 C343.004,406.709 348.156,400.093 346.984,394.149 C346.64,392.389 344.304,390.029 342.572,389.725 C336.34,388.661 330.704,393.289 327.12,402.121 z" fill="#005434"/>
    <path d="M517.172,106.505 C512.64,117.885 507.588,129.805 503.32,141.985 C502.6,144.037 504.532,148.329 506.524,149.677 C508.6,151.077 512.884,151.265 514.996,149.989 C518.008,148.181 521.192,144.873 522.052,141.613 C524.432,132.725 526.068,123.581 527.084,114.421 C527.696,109.117 524.496,105.873 517.172,106.505 z" fill="#005434"/>
    <path d="M501.8,102.217 C497.556,99.837 492.384,101.561 487.624,106.953 C482.124,113.177 480.824,119.185 484.284,123.673 C485.112,124.729 486.884,125.745 488.128,125.649 C495.932,125.109 505.14,113.989 504.444,105.917 C504.352,104.621 502.728,103.457 501.8,102.217 z" fill="#005434"/>
    <path d="M407.5,207.845 C400.06,222.645 394.256,234.169 387.904,246.805 C389.92,248.449 391.92,251.293 394.376,251.765 C396.968,252.273 401.452,251.421 402.576,249.585 C408.612,239.725 414.624,229.569 412.936,217.205 C412.692,215.277 410.888,213.553 407.5,207.845 z" fill="#005434"/>
    <path d="M330.452,237.037 C325.62,235.497 323.052,233.677 321.512,234.333 C311.484,238.481 305.052,245.777 304.752,257.149 C304.676,259.021 306.26,261.789 307.856,262.629 C309.464,263.481 312.312,262.985 314.164,262.093 C316.124,261.153 318.024,259.333 319.16,257.421 C322.696,251.529 325.86,245.405 330.452,237.037 z" fill="#005434"/>
    <path d="M342.868,258.049 C334.756,259.057 329.556,264.529 325.472,271.109 C324.5,272.653 324.824,275.813 325.788,277.537 C326.696,279.173 329.34,281.061 330.992,280.865 C340.656,279.629 346.44,272.173 346.104,261.669 C346.068,260.545 344.196,259.477 342.868,258.049 z" fill="#005434"/>
    <path d="M372.484,217.969 C375.32,218.321 377.332,219.221 378.176,218.573 C382.916,215.001 387.696,211.341 391.804,207.093 C394.24,204.569 390.964,198.705 387.468,198.597 C379.584,198.341 372.344,202.965 370.284,210.637 C369.672,212.877 371.792,215.873 372.484,217.969 z" fill="#005434"/>
    <path d="M352.08,110.145 C350.116,115.069 347.548,119.881 346.464,125.009 C345.988,127.301 347.82,131.305 349.84,132.557 C351.94,133.849 356.344,133.909 358.276,132.489 C370.592,123.425 374.8,110.761 372.304,95.881 C371.98,93.993 369.596,91.157 368.02,91.069 C365.38,90.917 361.268,91.809 360.204,93.669 C357.184,98.917 355.4,104.877 353.132,110.573 C352.788,110.429 352.44,110.289 352.08,110.145 z" fill="#005434"/>
    <path d="M315.964,107.121 C312.644,107.381 309.008,106.573 307.012,108.029 C299.012,113.845 291.296,120.117 284.044,126.849 C282.576,128.233 282.524,133.117 283.828,135.013 C285.204,137.013 289.736,139.049 291.532,138.185 C302.604,132.881 312.304,125.621 317.808,114.149 C318.468,112.725 316.804,110.145 315.964,107.121 z" fill="#005434"/>
    <path d="M295.256,90.009 C288.556,88.717 281.588,92.985 279.748,98.361 C278.76,101.257 282.064,106.309 285.352,106.933 C291.028,108.001 296.636,103.813 297.632,96.801 C297.984,94.481 295.944,91.809 295.256,90.009 z" fill="#005434"/>
    <path d="M217.516,233.885 C218.572,235.497 219.636,239.053 221.812,240.001 C225.096,241.429 230.072,242.665 232.732,241.137 C244.876,234.189 255.332,224.973 262.692,212.869 C263.816,211.001 262.96,206.369 261.32,204.765 C259.54,203.029 254.644,201.797 253.068,202.981 C241.428,211.721 230.244,221.097 218.964,230.337 C218.452,230.773 218.364,231.757 217.516,233.885 z" fill="#005434"/>
    <path d="M238.324,189.709 C235.156,189.017 233.604,188.201 232.248,188.465 C222.736,190.337 215.456,195.689 211.112,204.285 C210.028,206.445 210.532,210.753 212.068,212.513 C213.644,214.325 218.424,215.757 219.992,214.681 C226.84,209.993 233.412,204.713 239.172,198.745 C240.62,197.265 238.64,192.433 238.324,189.709 z" fill="#005434"/>
    <path d="M473.74,238.269 C474.36,240.773 474.256,243.453 475.556,244.833 C476.876,246.237 479.82,247.361 481.592,246.893 C491.508,244.265 500.056,239.137 506.096,230.633 C507.192,229.085 506.944,226.221 506.532,224.125 C506.312,223.077 504.236,221.569 503.132,221.665 C490.944,222.725 481.644,228.913 473.74,238.269 z" fill="#005434"/>
    <path d="M520.964,239.205 C518,239.373 514.456,238.501 512.6,239.885 C503.44,246.677 499.948,256.817 498.588,267.669 C498.392,269.277 500.676,272.173 502.392,272.797 C504.128,273.409 507.18,272.593 508.7,271.265 C516.564,264.393 519.332,256.925 520.964,239.205 z" fill="#005434"/>
    <path d="M231.348,86.517 C224.068,81.317 220.412,84.421 217.232,87.785 C213.564,91.645 209.516,91.289 204.676,91.097 C200.472,90.929 195.368,92.469 192.028,95.061 C183.32,101.777 177.032,110.645 175.336,121.833 C174.944,124.373 176.448,128.125 178.372,129.893 C181.416,132.693 185.752,132.461 188.796,129.437 C192.008,126.237 194.56,122.361 198.336,117.585 C201.408,120.253 203.908,122.817 206.784,124.833 C210.552,127.469 214.956,126.609 216.632,122.849 C221.932,111.045 226.424,98.857 231.348,86.517 z" fill="#005434"/>
    <path d="M350.896,510.596 C351.616,510.88 352.324,511.26 353.064,511.444 C356.908,512.444 361.308,513.2 362.708,508.512 C363.416,506.2 362.128,501.94 360.256,500.404 C353.084,494.516 345.396,489.228 337.684,484.028 C335.892,482.8 333.248,482.112 331.108,482.32 C329.072,482.516 326.448,483.756 325.408,485.38 C324.38,486.984 324.104,490.284 325.072,491.756 C331.368,501.132 340.736,506.472 350.896,510.596 z" fill="#005434"/>
    <path d="M342.56,520.04 C338.62,509.028 331.276,506.268 323.068,504.096 C319.652,512.572 323.76,517.4 329.404,520.048 C332.716,521.604 337.456,520.16 342.56,520.04 z" fill="#005434"/>
    <path d="M117.384,234.497 C117.096,235.653 115.824,237.977 116.14,240.061 C116.564,242.857 117.54,246.373 119.54,247.917 C122.78,250.413 127.264,249.865 129.688,246.333 C135.748,237.517 141.316,228.373 146.932,219.257 C147.688,218.045 148.024,216.217 147.776,214.813 C147.384,212.665 146.852,209.469 145.432,208.825 C143.04,207.729 139.1,207.081 137.196,208.357 C128.052,214.473 122.24,223.505 117.384,234.497 z" fill="#005434"/>
    <path d="M138.644,277.733 C149.56,270.509 151.708,262.345 153.168,254.053 C153.48,252.333 151.6,249.493 149.936,248.349 C148.332,247.261 145.176,246.765 143.588,247.645 C137.08,251.157 133.256,257.297 133.1,264.421 C133.016,268.325 136.26,272.293 138.644,277.733 z" fill="#005434"/>
    <path d="M403.784,464.26 C406.916,467.536 409.252,472.116 411.676,472.16 C424.888,472.46 437.692,469.88 449.404,463.292 C450.696,462.556 452.34,461.408 452.644,460.156 C453.348,457.356 454.028,454.188 453.356,451.556 C452.924,449.98 449.924,449.028 447.996,447.952 C447.372,447.62 446.456,447.58 445.74,447.764 C431.608,451.22 417.492,454.716 403.784,464.26 z" fill="#005434"/>
    <path d="M385.776,452.544 C389.224,453.94 392.16,456.304 394.492,455.8 C399.636,454.724 404.536,452.308 409.364,450.064 C409.992,449.78 410.06,447.1 409.552,445.868 C409.064,444.596 407.576,442.884 406.484,442.852 C398.74,442.608 391.164,443.116 385.776,452.544 z" fill="#005434"/>
    <path d="M498.144,352.641 C496.628,357.601 495.072,361.213 494.628,364.945 C494.424,366.733 495.92,369.909 497.368,370.445 C499.94,371.373 504.244,372.013 505.78,370.589 C513.884,362.945 518.524,353.297 517.624,341.905 C517.428,339.621 514.336,336.237 512.088,335.797 C509.908,335.373 506.164,337.389 504.76,339.477 C501.804,343.873 499.912,348.989 498.144,352.641 z" fill="#005434"/>
  </g>
</svg>
