<?xml version="1.0" encoding="UTF-8"?>
<!DOCTYPE svg PUBLIC "-//W3C//DTD SVG 1.1//EN" "http://www.w3.org/Graphics/SVG/1.1/DTD/svg11.dtd">
<svg version="1.1" xmlns="http://www.w3.org/2000/svg" xmlns:xlink="http://www.w3.org/1999/xlink" x="0" y="0" width="600.002" height="579.999" viewBox="0, 0, 600.002, 579.999">
  <g id="Artichoke" transform="translate(0.001, -1.316)">
    <path d="M590.308,161.784 C600.372,166.996 601.236,169.828 598.96,180.612 C592.292,212.6 577.856,240.948 558.868,267.16 C554.764,272.804 550.368,278.236 546.532,283.232 C548.072,290.296 550.792,296.336 550.376,302.16 C549.216,319.288 548.524,336.604 541.5,352.776 C534.684,368.504 528.072,384.332 521.308,400.296 C529.816,415.464 530.708,420.604 522.848,434.404 C509.544,457.868 493.656,478.948 466.452,487.816 C457.564,490.708 448.764,493.876 439.908,496.852 C435.692,498.264 431.444,499.524 423.924,501.876 C431.364,504.868 435.628,506.296 439.632,508.276 C445.78,511.32 446.692,519.396 441.564,523.74 C440.388,524.756 439.16,525.784 437.788,526.444 C419.6,535.32 401.432,544.228 383.144,552.92 C373.352,557.568 363.468,562.06 353.396,566.052 C347.724,568.304 341.556,570.828 335.684,570.704 C324.892,570.468 313.976,569.096 303.392,566.896 C278.86,561.816 259.528,547.684 242.148,530.152 C232.288,520.208 221.588,511.104 210.996,501.924 C206.244,497.804 200.716,494.74 192.844,496.532 C178.016,507.592 161.828,518.572 146.948,531.108 C135.056,541.112 124.872,553.132 113.736,564.04 C109.292,568.372 104.524,572.456 99.516,576.116 C90.424,582.792 80.728,582.74 70.864,577.664 C60.996,572.592 52.916,565.388 45.76,556.932 C36.224,545.684 26.972,534.46 14.704,525.492 C-1.836,513.412 -4.26,492.456 6.608,475.24 C9.504,470.648 12.792,466.14 16.684,462.388 C29.552,449.948 42.756,437.832 55.88,425.636 C61.012,420.852 66.796,416.668 71.3,411.348 C76.224,405.58 84.096,402.02 85.732,392.836 C83.94,385.984 79.604,381.072 72.992,377.568 C64.04,372.832 55.376,367.564 46.532,362.58 C39.604,358.688 33.812,353.764 29.956,346.56 C24.368,336.164 28.092,327.816 39.564,326.044 C43.396,325.456 47.36,325.672 51.172,325.056 C55.208,324.416 59.996,328.912 63.94,322.708 C61.104,319.192 58.304,315.62 55.4,312.144 C39.788,293.38 32.104,272.036 32.36,247.356 C32.576,225.62 38.136,205.848 49.276,187.348 C52.844,181.404 55.604,174.908 58.196,168.448 C67.98,144.064 81.36,122.376 103.176,106.92 C108.236,103.336 113.048,98.632 118.72,96.88 C124.148,95.192 130.544,96.68 135.72,96.748 C142.624,88.04 147.672,78.616 155.352,72.524 C179.768,53.144 204.392,33.532 237.872,32.412 C242.06,32.268 247.656,30.212 250.024,27.08 C259.312,14.816 272.468,10.988 286.26,7.74 C319.996,-0.2 354.332,1.64 388.536,1.316 C389.876,1.296 391.252,2.568 392.604,3.228 C399.056,9.404 388.404,17.928 393.872,23.284 C409.452,19.476 423.56,13.768 437.908,13.1 C456.084,12.248 474.44,15.48 492.452,16.932 C494.76,29.692 481.012,37.364 485.604,48.916 C528.544,56.572 542.956,61.612 559.952,74.992 C555.276,96.848 549.196,118.764 550.672,142.776 C565.048,149.636 577.856,155.36 590.308,161.784 z M75.664,303.504 C82.256,310.116 90.148,315.46 96.552,322.224 C101.272,327.18 105.668,333.092 108.12,339.392 C110.26,344.916 110.32,351.64 109.812,357.716 C109.156,365.576 100.108,364.432 95.904,368.844 C98.288,373.74 100.644,378.616 103.008,383.5 C105.028,387.628 107.024,391.76 108.876,395.596 C108.484,403.64 104.112,409.116 98.94,413.988 C86.472,425.752 73.928,437.428 61.272,448.988 C54.44,455.256 46.372,460.264 41.336,469.556 C42.864,471.952 43.98,475.152 46.204,476.888 C60.828,488.232 69.872,503.696 78.02,519.788 C83.272,530.144 89.136,539.976 97.292,549.788 C102.504,544.98 106.356,541.26 110.356,537.736 C122.596,526.892 134.456,515.528 147.316,505.508 C158.52,496.792 171.2,489.836 169.196,472.952 C186.324,466.748 200.4,471.572 213.596,477.7 C226.248,483.568 237.784,491.604 247.412,502.312 C257.796,513.852 269.512,524.016 284.872,533.372 C284.056,529.9 284.036,528.116 283.264,526.756 C282.12,524.756 280.456,523.044 278.96,521.256 C269.432,509.932 260.572,497.932 250.216,487.42 C231.576,468.516 211.696,451.104 183.936,446.884 C179.712,446.232 176.284,443.116 177.82,438.788 C178.912,435.696 182.952,431.148 185.192,431.42 C194.296,432.48 204.796,432.828 211.92,437.676 C232.604,451.752 239.44,448.94 262.14,439.632 C269.156,436.756 277.612,436.952 282.152,429.02 C287.728,419.216 290.844,408.996 289.208,397.632 C288.864,395.292 288.636,392.972 288.228,390.656 C283.972,367.328 282.784,344.172 290.36,321.132 C292.488,314.592 292.82,307.468 293.944,300.868 C253.324,276.548 195.672,289.2 147.984,333.228 C147.068,341.284 146.3,350.56 144.88,359.712 C144.16,364.364 142.288,368.912 136.36,369.248 C130.9,369.56 125.716,365.516 124.832,359.716 C124.26,355.916 124.38,351.96 124.552,348.084 C125.608,322.716 117.816,301.104 100.748,281.792 C87.4,266.672 76.756,249.156 64.756,232.812 C62.696,230.024 59.824,227.86 55.248,223.348 C49.148,255.716 54.04,281.852 75.664,303.504 z M451.712,384.584 C455.404,363.972 457.88,343.152 460.98,321.62 C458.284,319.944 455.92,317.584 453.16,316.92 C433.492,312.136 413.764,307.68 394.04,303.196 C382.256,300.516 370.756,301.916 359.684,306.388 C342.424,313.368 325.276,320.672 308.568,327.656 C301.74,343.916 303.072,360.076 305.828,374.916 C309.652,395.516 309.968,415.056 300.056,436.452 C307.14,435.916 311.808,436.608 315.484,435.02 C321.832,432.244 327.788,428.3 333.584,424.352 C348.08,414.504 364.58,410.012 381.204,405.832 C391.38,403.28 401.172,404.936 411.076,407.824 C419.904,410.408 428.696,414.556 438.792,411.304 C446.024,404.084 449.936,394.512 451.712,384.584 z M395.508,152.54 C399.816,154.272 403.784,156.488 408.004,157.416 C413.276,158.572 418.784,158.892 424.2,159.168 C450.604,160.52 450.588,160.468 446.28,185.892 C446.032,187.38 446.42,188.984 446.536,190.528 C447.856,191.256 449.412,192.86 450.436,192.576 C461.584,189.392 472.472,184.912 483.832,182.828 C494.404,180.888 505.416,181.416 516.008,180.86 C526.452,168.8 531.644,155.684 531.52,139.996 C531.452,130.716 533.824,121.444 534.692,112.116 C535.496,103.652 535.736,95.144 536.24,86.568 C517.668,73.448 497.872,69.668 477.872,75.684 C453.384,83.056 429.756,93.324 405.796,102.464 C404.468,102.964 403.52,104.5 401.596,106.316 C399.688,120.78 397.684,136.096 395.508,152.54 z M384.12,175.668 C359.16,181.024 334.492,187.652 309.692,188.012 C301.028,206.28 294.14,250.88 295.992,273.548 C317.632,286.136 317.632,286.136 323.808,297.728 C348.612,291.492 371.712,275.088 397.62,281.94 C413.4,268.412 418.032,251.868 420.516,234.868 C423.088,217.316 423.956,199.504 425.592,181.328 C411.64,174.72 397.668,172.764 384.12,175.668 z M378.384,132.292 C381.132,110.784 383.092,89.176 385.476,66.504 C380.2,66.22 374.948,65.548 369.712,65.704 C351.912,66.252 334.104,66.592 316.352,67.972 C303.284,68.98 290.288,71.264 277.332,73.444 C267.636,75.072 262.82,81.792 261.512,91.2 C260.872,95.784 260.152,100.508 260.532,105.072 C261.512,116.632 263.084,128.14 264.488,140.316 C275.72,143.564 286.436,143.408 297.168,143.28 C301.032,143.224 304.944,142.888 308.764,143.28 C313.384,143.744 316.924,148.292 316.704,153.244 C316.596,155.52 315.512,157.74 315.112,160.028 C314.728,162.252 314.676,164.54 314.408,167.392 C334.748,169.992 352.68,162.288 372.6,156.624 C374.524,148.688 377.328,140.608 378.384,132.292 z M207.052,272.464 C228.808,270.196 249.412,268.052 272.38,265.664 C279.316,251.888 276.564,234.192 280.272,217.828 C284.024,201.264 285.748,184.236 288.332,167.588 C246.612,155.584 212.06,161.672 185.532,196.344 C191.592,222.132 194.56,248.54 207.052,272.464 z M425.824,285.504 C430.928,287.956 434.744,290.748 438.952,291.648 C454.816,294.988 469.876,302.28 486.892,300.184 C495.268,299.156 501.228,295.944 506.908,289.868 C515.752,280.38 520.996,269.196 524.14,257.008 C528.008,241.896 531.172,226.6 534.404,211.34 C535.024,208.46 534.476,205.328 534.456,201.52 C518.108,201.56 502.632,201.092 487.212,201.784 C469.172,202.608 455.08,212.316 441.08,224.032 C442.992,245.636 435.396,265.144 425.824,285.504 z M187.988,162.848 C201.468,148.784 224.028,146.416 243.836,137.704 C242.604,122.376 240.012,108.464 240.828,94.756 C241.596,81.832 245.98,69.128 249.104,54.772 C245.488,54.028 241.352,52.48 237.244,52.54 C232.668,52.616 227.832,53.436 223.608,55.164 C190.5,68.668 161.476,86.892 147.008,122.084 C140.732,137.324 140.88,141.376 151.692,159.208 C163.968,160.44 174.54,161.5 187.988,162.848 z M347.684,474.488 C330.472,462.9 310.764,458.192 290.488,456.128 C279.676,455.036 268.74,455.508 259.236,464.6 C263.492,476.688 272.396,485.508 280.08,494.864 C288.46,505.084 298.18,514.188 307.176,523.9 C316.136,533.556 326.556,537.14 340.148,537.504 C360.276,538.024 378.796,534.676 396.12,524.844 C399.768,522.78 402.408,518.944 406.128,515.296 C385.684,500.972 366.888,487.42 347.684,474.488 z M185.78,280.12 C177.324,247.924 168.904,215.848 160.448,183.668 C131.08,182.1 107.304,196.224 95.52,222.22 C92.396,229.124 92.128,235.68 96.336,242.192 C97.6,244.164 98.504,246.372 99.944,248.172 C107.704,257.9 115.852,267.324 123.312,277.248 C130.212,286.44 136.42,296.16 143.276,306.136 C157.916,297.176 171.692,288.732 185.78,280.12 z M408.94,427.248 C398.2,423.884 387.648,424.14 376.808,427.556 C364.184,431.54 351.724,435.608 339.832,444.372 C346.976,455.684 359.864,456.772 368.58,463.772 C377.628,471.072 387.428,477.432 397.312,484.472 C415.784,479.764 434.072,475.944 451.768,470.3 C462.004,467.036 471.516,461.204 480.936,455.8 C485.612,453.128 489.444,448.88 487.912,439.916 C460.176,440.828 434.376,435.168 408.94,427.248 z M475.22,421.268 C505.052,391.396 526.82,348.612 528.356,316.272 C513.712,315.472 499.852,319.604 486.084,321.924 C479.456,330.196 479.652,339.992 477.576,348.84 C474.912,360.144 474.884,372.096 471.86,383.264 C468.904,394.304 463.624,404.72 458.152,418.472 C465.344,419.644 470.508,420.504 475.22,421.268 z M282.952,47.34 C314.244,49.436 345.044,47.772 364.54,42.712 C365.348,38.856 366.5,34.448 367.164,29.96 C367.48,27.796 366.896,25.496 366.736,23.388 C336.6,18.288 302.648,21.764 277.572,32.532 C279.376,37.504 281.188,42.496 282.952,47.34 z M86.888,154.156 C81.22,164.248 77.488,175.456 73.004,186.204 C69.772,193.952 70.184,201.316 76.236,208.92 C87.832,205.14 91.668,192.556 100.908,186.124 C109.764,179.948 117.836,172.636 127.316,164.952 C125.384,151.888 123.568,138.416 114.724,126.312 C101.676,132.524 93.3,142.736 86.888,154.156 z M405.54,74.804 C418.76,75.336 438.652,69.112 461.416,57.4 C462.468,50.788 463.672,43.308 465.052,34.692 C447.12,26.784 431.54,31.56 416.592,38.688 C412.752,51.284 409.168,62.944 405.54,74.804 z M545.056,176.484 C561.856,180.944 561.876,181.104 557.916,195.552 C553.58,211.288 549.404,227.076 545.448,242.904 C544.788,245.5 545.56,248.456 545.676,251.792 C548.34,251.048 550.152,251.104 550.664,250.312 C562.192,231.816 572.164,212.52 579.276,191.84 C584.488,176.74 582.992,173.872 567.336,167.832 C563.748,166.44 560.168,164.916 556.428,163.868 C549.116,161.8 546.968,163.796 543.736,174.924 C544.172,175.464 544.532,176.344 545.056,176.484 z M39.74,499.988 C37.04,497.384 33.74,495.316 30.488,493.396 C29.404,492.764 26.972,492.78 26.264,493.532 C24.856,495.06 23.112,497.568 23.504,499.18 C24.38,502.724 25.604,507.26 28.264,509.128 C40.512,517.692 48.776,529.836 58.344,540.84 C59.74,542.436 61.824,543.416 67.664,547.632 C59.672,527.088 52.224,511.988 39.74,499.988 z" fill="#005434"/>
  </g>
</svg>
