<?xml version="1.0" encoding="UTF-8"?>
<!DOCTYPE svg PUBLIC "-//W3C//DTD SVG 1.1//EN" "http://www.w3.org/Graphics/SVG/1.1/DTD/svg11.dtd">
<svg version="1.1" xmlns="http://www.w3.org/2000/svg" xmlns:xlink="http://www.w3.org/1999/xlink" x="0" y="0" width="150" height="145" viewBox="0, 0, 150, 145">
  <g id="Artichoke_White_Alt">
    <path d="M147.577,40.446 C150.093,41.749 150.309,42.457 149.74,45.153 C148.073,53.15 144.464,60.237 139.717,66.79 C138.691,68.201 137.592,69.559 136.633,70.808 C137.018,72.574 137.698,74.084 137.594,75.54 C137.304,79.822 137.131,84.151 135.375,88.194 C133.672,92.126 132.018,96.083 130.327,100.074 C132.454,103.866 132.677,105.151 130.712,108.601 C127.386,114.467 123.414,119.737 116.613,121.954 C114.391,122.677 112.191,123.469 109.977,124.213 C108.923,124.566 107.861,124.881 105.981,125.469 C107.841,126.217 108.907,126.574 109.908,127.069 C111.445,127.83 111.673,129.849 110.391,130.935 C110.097,131.189 109.79,131.446 109.447,131.611 C104.9,133.83 100.358,136.057 95.786,138.23 C93.338,139.392 90.867,140.515 88.349,141.513 C86.931,142.076 85.389,142.707 83.921,142.676 C81.223,142.617 78.494,142.274 75.848,141.724 C69.715,140.454 64.882,136.921 60.537,132.538 C58.072,130.052 55.397,127.776 52.749,125.481 C51.561,124.451 50.179,123.685 48.211,124.133 C44.504,126.898 40.457,129.643 36.737,132.777 C33.764,135.278 31.218,138.283 28.434,141.01 C27.323,142.093 26.131,143.114 24.879,144.029 C22.606,145.698 20.182,145.685 17.716,144.416 C15.249,143.148 13.229,141.347 11.44,139.233 C9.056,136.421 6.743,133.615 3.676,131.373 C-0.459,128.353 -1.065,123.114 1.652,118.81 C2.376,117.662 3.198,116.535 4.171,115.597 C7.388,112.487 10.689,109.458 13.97,106.409 C15.253,105.213 16.699,104.167 17.825,102.837 C19.056,101.395 21.024,100.505 21.433,98.209 C20.985,96.496 19.901,95.268 18.248,94.392 C16.01,93.208 13.844,91.891 11.633,90.645 C9.901,89.672 8.453,88.441 7.489,86.64 C6.092,84.041 7.023,81.954 9.891,81.511 C10.849,81.364 11.84,81.418 12.793,81.264 C13.802,81.104 14.999,82.228 15.985,80.677 C15.276,79.798 14.576,78.905 13.85,78.036 C9.947,73.345 8.026,68.009 8.09,61.839 C8.144,56.405 9.534,51.462 12.319,46.837 C13.211,45.351 13.901,43.727 14.549,42.112 C16.995,36.016 20.34,30.594 25.794,26.73 C27.059,25.834 28.262,24.658 29.68,24.22 C31.037,23.798 32.636,24.17 33.93,24.187 C35.656,22.01 36.918,19.654 38.838,18.131 C44.942,13.286 51.098,8.383 59.468,8.103 C60.515,8.067 61.914,7.553 62.506,6.77 C64.828,3.704 68.117,2.747 71.565,1.935 C79.999,-0.05 88.583,0.41 97.134,0.329 C97.469,0.324 97.813,0.642 98.151,0.807 C99.764,2.351 97.101,4.482 98.468,5.821 C102.363,4.869 105.89,3.442 109.477,3.275 C114.021,3.062 118.61,3.87 123.113,4.233 C123.69,7.423 120.253,9.341 121.401,12.229 C132.136,14.143 135.739,15.403 139.988,18.748 C138.819,24.212 137.299,29.691 137.668,35.694 C141.262,37.409 144.464,38.84 147.577,40.446 z M18.916,75.876 C20.564,77.529 22.537,78.865 24.138,80.556 C25.318,81.795 26.417,83.273 27.03,84.848 C27.565,86.229 27.58,87.91 27.453,89.429 C27.289,91.394 25.027,91.108 23.976,92.211 C24.572,93.435 25.161,94.654 25.752,95.875 C26.257,96.907 26.756,97.94 27.219,98.899 C27.121,100.91 26.028,102.279 24.735,103.497 C21.618,106.438 18.482,109.357 15.318,112.247 C13.61,113.814 11.593,115.066 10.334,117.389 C10.716,117.988 10.995,118.788 11.551,119.222 C15.207,122.058 17.468,125.924 19.505,129.947 C20.818,132.536 22.284,134.994 24.323,137.447 C25.626,136.245 26.589,135.315 27.589,134.434 C30.649,131.723 33.614,128.882 36.829,126.377 C39.63,124.198 42.8,122.459 42.299,118.238 C46.581,116.687 50.1,117.893 53.399,119.425 C56.562,120.892 59.446,122.901 61.853,125.578 C64.449,128.463 67.378,131.004 71.218,133.343 C71.014,132.475 71.009,132.029 70.816,131.689 C70.53,131.189 70.114,130.761 69.74,130.314 C67.358,127.483 65.143,124.483 62.554,121.855 C57.894,117.129 52.924,112.776 45.984,111.721 C44.928,111.558 44.071,110.779 44.455,109.697 C44.728,108.924 45.738,107.787 46.298,107.855 C48.574,108.12 51.199,108.207 52.98,109.419 C58.151,112.938 59.86,112.235 65.535,109.908 C67.289,109.189 69.403,109.238 70.538,107.255 C71.932,104.804 72.711,102.249 72.302,99.408 C72.216,98.823 72.159,98.243 72.057,97.664 C70.993,91.832 70.696,86.043 72.59,80.283 C73.122,78.648 73.205,76.867 73.486,75.217 C63.331,69.137 48.918,72.3 36.996,83.307 C36.767,85.321 36.575,87.64 36.22,89.928 C36.04,91.091 35.572,92.228 34.09,92.312 C32.725,92.39 31.429,91.379 31.208,89.929 C31.065,88.979 31.095,87.99 31.138,87.021 C31.402,80.679 29.454,75.276 25.187,70.448 C21.85,66.668 19.189,62.289 16.189,58.203 C15.674,57.506 14.956,56.965 13.812,55.837 C12.287,63.929 13.51,70.463 18.916,75.876 z M112.928,96.146 C113.851,90.993 114.47,85.788 115.245,80.405 C114.571,79.986 113.98,79.396 113.29,79.23 C108.373,78.034 103.441,76.92 98.51,75.799 C95.564,75.129 92.689,75.479 89.921,76.597 C85.606,78.342 81.319,80.168 77.142,81.914 C75.435,85.979 75.768,90.019 76.457,93.729 C77.413,98.879 77.492,103.764 75.014,109.113 C76.785,108.979 77.952,109.152 78.871,108.755 C80.458,108.061 81.947,107.075 83.396,106.088 C87.02,103.626 91.145,102.503 95.301,101.458 C97.845,100.82 100.293,101.234 102.769,101.956 C104.976,102.602 107.174,103.639 109.698,102.826 C111.506,101.021 112.484,98.628 112.928,96.146 z M98.877,38.135 C99.954,38.568 100.946,39.122 102.001,39.354 C103.319,39.643 104.696,39.723 106.05,39.792 C112.651,40.13 112.647,40.117 111.57,46.473 C111.508,46.845 111.605,47.246 111.634,47.632 C111.964,47.814 112.353,48.215 112.609,48.144 C115.396,47.348 118.118,46.228 120.958,45.707 C123.601,45.222 126.354,45.354 129.002,45.215 C131.613,42.2 132.911,38.921 132.88,34.999 C132.863,32.679 133.456,30.361 133.673,28.029 C133.874,25.913 133.934,23.786 134.06,21.642 C129.417,18.362 124.468,17.417 119.468,18.921 C113.346,20.764 107.439,23.331 101.449,25.616 C101.117,25.741 100.88,26.125 100.399,26.579 C99.922,30.195 99.421,34.024 98.877,38.135 z M96.03,43.917 C89.79,45.256 83.623,46.913 77.423,47.003 C75.257,51.57 73.535,62.72 73.998,68.387 C79.408,71.534 79.408,71.534 80.952,74.432 C87.153,72.873 92.928,68.772 99.405,70.485 C103.35,67.103 104.508,62.967 105.129,58.717 C105.772,54.329 105.989,49.876 106.398,45.332 C102.91,43.68 99.417,43.191 96.03,43.917 z M94.596,33.073 C95.283,27.696 95.773,22.294 96.369,16.626 C95.05,16.555 93.737,16.387 92.428,16.426 C87.978,16.563 83.526,16.648 79.088,16.993 C75.821,17.245 72.572,17.816 69.333,18.361 C66.909,18.768 65.705,20.448 65.378,22.8 C65.218,23.946 65.038,25.127 65.133,26.268 C65.378,29.158 65.771,32.035 66.122,35.079 C68.93,35.891 71.609,35.852 74.292,35.82 C75.258,35.806 76.236,35.722 77.191,35.82 C78.346,35.936 79.231,37.073 79.176,38.311 C79.149,38.88 78.878,39.435 78.778,40.007 C78.682,40.563 78.669,41.135 78.602,41.848 C83.687,42.498 88.17,40.572 93.15,39.156 C93.631,37.172 94.332,35.152 94.596,33.073 z M51.763,68.116 C57.202,67.549 62.353,67.013 68.095,66.416 C69.829,62.972 69.141,58.548 70.068,54.457 C71.006,50.316 71.437,46.059 72.083,41.897 C61.653,38.896 53.015,40.418 46.383,49.086 C47.898,55.533 48.64,62.135 51.763,68.116 z M106.456,71.376 C107.732,71.989 108.686,72.687 109.738,72.912 C113.704,73.747 117.469,75.57 121.723,75.046 C123.817,74.789 125.307,73.986 126.727,72.467 C128.938,70.095 130.249,67.299 131.035,64.252 C132.002,60.474 132.793,56.65 133.601,52.835 C133.756,52.115 133.619,51.332 133.614,50.38 C129.527,50.39 125.658,50.273 121.803,50.446 C117.293,50.652 113.77,53.079 110.27,56.008 C110.748,61.409 108.849,66.286 106.456,71.376 z M46.997,40.712 C50.367,37.196 56.007,36.604 60.959,34.426 C60.651,30.594 60.003,27.116 60.207,23.689 C60.399,20.458 61.495,17.282 62.276,13.693 C61.372,13.507 60.338,13.12 59.311,13.135 C58.167,13.154 56.958,13.359 55.902,13.791 C47.625,17.167 40.369,21.723 36.752,30.521 C35.183,34.331 35.22,35.344 37.923,39.802 C40.992,40.11 43.635,40.375 46.997,40.712 z M86.921,118.622 C82.618,115.725 77.691,114.548 72.622,114.032 C69.919,113.759 67.185,113.877 64.809,116.15 C65.873,119.172 68.099,121.377 70.02,123.716 C72.115,126.271 74.545,128.547 76.794,130.975 C79.034,133.389 81.639,134.285 85.037,134.376 C90.069,134.506 94.699,133.669 99.03,131.211 C99.942,130.695 100.602,129.736 101.532,128.824 C96.421,125.243 91.722,121.855 86.921,118.622 z M46.445,70.03 C44.331,61.981 42.226,53.962 40.112,45.917 C32.77,45.525 26.826,49.056 23.88,55.555 C23.099,57.281 23.032,58.92 24.084,60.548 C24.4,61.04 24.626,61.593 24.986,62.043 C26.926,64.475 28.963,66.831 30.828,69.312 C32.553,71.61 34.105,74.04 35.819,76.534 C39.479,74.294 42.923,72.183 46.445,70.03 z M102.235,106.812 C99.55,105.971 96.912,106.035 94.202,106.889 C91.046,107.885 87.931,108.902 84.958,111.093 C86.744,113.921 89.966,114.193 92.145,115.943 C94.407,117.768 96.857,119.358 99.328,121.118 C103.946,119.941 108.518,118.986 112.942,117.575 C115.501,116.759 117.879,115.301 120.234,113.95 C121.403,113.282 122.361,112.22 121.978,109.979 C115.044,110.207 108.594,108.792 102.235,106.812 z M118.805,105.317 C126.263,97.849 131.705,87.153 132.089,79.068 C128.428,78.868 124.963,79.901 121.521,80.481 C119.864,82.549 119.913,84.998 119.394,87.21 C118.728,90.036 118.721,93.024 117.965,95.816 C117.226,98.576 115.906,101.18 114.538,104.618 C116.336,104.911 117.627,105.126 118.805,105.317 z M70.738,11.835 C78.561,12.359 86.261,11.943 91.135,10.678 C91.337,9.714 91.625,8.612 91.791,7.49 C91.87,6.949 91.724,6.374 91.684,5.847 C84.15,4.572 75.662,5.441 69.393,8.133 C69.845,9.376 70.297,10.624 70.738,11.835 z M21.722,38.539 C20.305,41.062 19.372,43.864 18.251,46.551 C17.443,48.488 17.546,50.329 19.059,52.23 C21.958,51.285 22.917,48.139 25.227,46.531 C27.441,44.987 29.459,43.159 31.829,41.238 C31.346,37.972 30.892,34.604 28.681,31.578 C25.419,33.131 23.325,35.684 21.722,38.539 z M101.385,18.701 C104.69,18.834 109.663,17.278 115.354,14.35 C115.617,12.697 115.918,10.827 116.263,8.673 C111.78,6.696 107.885,7.89 104.148,9.672 C103.188,12.821 102.292,15.736 101.385,18.701 z M136.264,44.121 C140.464,45.236 140.469,45.276 139.479,48.888 C138.395,52.822 137.351,56.769 136.362,60.726 C136.197,61.375 136.39,62.114 136.419,62.948 C137.085,62.762 137.538,62.776 137.666,62.578 C140.548,57.954 143.041,53.13 144.819,47.96 C146.122,44.185 145.748,43.468 141.834,41.958 C140.937,41.61 140.042,41.229 139.107,40.967 C137.279,40.45 136.742,40.949 135.934,43.731 C136.043,43.866 136.133,44.086 136.264,44.121 z M9.935,124.997 C9.26,124.346 8.435,123.829 7.622,123.349 C7.351,123.191 6.743,123.195 6.566,123.382 C6.214,123.765 5.778,124.392 5.876,124.795 C6.095,125.681 6.401,126.815 7.066,127.282 C10.128,129.423 12.194,132.459 14.586,135.21 C14.935,135.609 15.456,135.854 16.916,136.908 C14.918,131.772 13.056,127.997 9.935,124.997 z" fill="#FFFFFF"/>
    <g id="Leaves">
      <path d="M19.022,75.876 C13.617,70.463 12.393,63.929 13.918,55.837 C15.063,56.965 15.78,57.506 16.295,58.203 C19.295,62.288 21.957,66.668 25.293,70.448 C29.561,75.276 31.508,80.679 31.244,87.021 C31.202,87.99 31.172,88.979 31.315,89.929 C31.535,91.379 32.832,92.39 34.197,92.312 C35.678,92.228 36.146,91.091 36.326,89.928 C36.682,87.64 36.873,85.321 37.102,83.307 C49.024,72.3 63.438,69.137 73.592,75.217 C73.311,76.867 73.229,78.648 72.697,80.283 C70.803,86.043 71.099,91.832 72.163,97.664 C72.266,98.243 72.323,98.823 72.409,99.408 C72.818,102.249 72.038,104.804 70.645,107.255 C69.51,109.238 67.396,109.189 65.641,109.908 C59.967,112.235 58.258,112.938 53.086,109.419 C51.305,108.207 48.681,108.12 46.405,107.855 C45.844,107.787 44.834,108.924 44.562,109.696 C44.178,110.779 45.035,111.558 46.09,111.721 C53.031,112.776 58,117.129 62.66,121.855 C65.249,124.483 67.465,127.483 69.847,130.314 C70.22,130.761 70.636,131.189 70.922,131.689 C71.116,132.029 71.121,132.475 71.325,133.343 C67.485,131.004 64.556,128.463 61.96,125.578 C59.553,122.901 56.669,120.892 53.506,119.425 C50.206,117.893 46.688,116.687 42.405,118.238 C42.907,122.459 39.737,124.198 36.936,126.377 C33.72,128.882 30.756,131.723 27.695,134.434 C26.695,135.315 25.733,136.245 24.43,137.447 C22.391,134.993 20.925,132.536 19.612,129.947 C17.575,125.924 15.314,122.058 11.657,119.222 C11.102,118.788 10.822,117.988 10.44,117.389 C11.7,115.066 13.716,113.814 15.425,112.247 C18.588,109.357 21.724,106.438 24.842,103.497 C26.135,102.279 27.227,100.91 27.325,98.899 C26.862,97.94 26.364,96.907 25.859,95.875 C25.268,94.654 24.679,93.435 24.083,92.211 C25.133,91.108 27.396,91.394 27.559,89.429 C27.687,87.91 27.672,86.229 27.137,84.848 C26.524,83.273 25.424,81.795 24.244,80.556 C22.643,78.865 20.67,77.529 19.022,75.876 z" fill="#00A66A"/>
      <path d="M113.035,96.146 C112.59,98.628 111.612,101.021 109.804,102.826 C107.281,103.639 105.082,102.602 102.875,101.956 C100.399,101.234 97.951,100.82 95.408,101.458 C91.251,102.503 87.127,103.625 83.503,106.088 C82.053,107.075 80.565,108.061 78.978,108.755 C78.058,109.152 76.892,108.979 75.121,109.113 C77.599,103.764 77.52,98.879 76.564,93.729 C75.875,90.019 75.542,85.979 77.249,81.914 C81.425,80.168 85.713,78.342 90.028,76.597 C92.795,75.479 95.67,75.129 98.616,75.799 C103.547,76.92 108.48,78.034 113.397,79.23 C114.087,79.396 114.678,79.986 115.351,80.405 C114.577,85.788 113.957,90.993 113.035,96.146 z" fill="#00A66A"/>
      <path d="M98.983,38.135 C99.527,34.024 100.029,30.195 100.505,26.579 C100.987,26.125 101.224,25.741 101.556,25.616 C107.545,23.331 113.452,20.764 119.575,18.921 C124.575,17.417 129.524,18.362 134.167,21.641 C134.041,23.786 133.98,25.913 133.78,28.029 C133.563,30.361 132.97,32.679 132.987,34.999 C133.017,38.921 131.719,42.2 129.108,45.215 C126.46,45.354 123.708,45.222 121.065,45.707 C118.225,46.228 115.503,47.348 112.715,48.144 C112.459,48.215 112.07,47.814 111.74,47.632 C111.712,47.246 111.614,46.845 111.676,46.473 C112.754,40.117 112.757,40.13 106.156,39.792 C104.803,39.723 103.426,39.643 102.108,39.354 C101.052,39.122 100.061,38.568 98.983,38.135 z" fill="#00A66A"/>
      <path d="M96.137,43.916 C99.524,43.191 103.017,43.68 106.505,45.332 C106.096,49.876 105.879,54.329 105.236,58.717 C104.614,62.967 103.456,67.103 99.512,70.485 C93.034,68.772 87.26,72.873 81.058,74.432 C79.515,71.534 79.515,71.534 74.104,68.387 C73.641,62.72 75.363,51.57 77.53,47.003 C83.73,46.913 89.896,45.256 96.137,43.916 z" fill="#00A66A"/>
      <path d="M94.702,33.073 C94.438,35.152 93.738,37.172 93.256,39.156 C88.277,40.572 83.794,42.498 78.708,41.848 C78.776,41.135 78.789,40.563 78.885,40.007 C78.984,39.435 79.255,38.88 79.282,38.311 C79.338,37.073 78.452,35.936 77.297,35.82 C76.343,35.721 75.365,35.806 74.399,35.82 C71.715,35.852 69.037,35.891 66.229,35.079 C65.877,32.035 65.485,29.158 65.239,26.268 C65.145,25.127 65.325,23.946 65.485,22.8 C65.811,20.448 67.015,18.768 69.439,18.361 C72.678,17.816 75.927,17.245 79.195,16.993 C83.632,16.648 88.085,16.563 92.534,16.426 C93.844,16.387 95.157,16.555 96.475,16.626 C95.879,22.294 95.389,27.696 94.702,33.073 z" fill="#00A66A"/>
      <path d="M51.869,68.116 C48.747,62.135 48.004,55.533 46.489,49.086 C53.122,40.418 61.759,38.896 72.19,41.897 C71.544,46.059 71.113,50.316 70.175,54.457 C69.247,58.548 69.936,62.972 68.202,66.416 C62.46,67.013 57.309,67.549 51.869,68.116 z" fill="#00A66A"/>
      <path d="M106.562,71.376 C108.956,66.286 110.855,61.409 110.377,56.008 C113.877,53.079 117.4,50.652 121.91,50.446 C125.765,50.273 129.633,50.39 133.721,50.38 C133.726,51.332 133.862,52.115 133.707,52.835 C132.899,56.65 132.108,60.474 131.142,64.252 C130.356,67.299 129.044,70.095 126.834,72.467 C125.413,73.986 123.923,74.789 121.829,75.046 C117.575,75.57 113.811,73.747 109.845,72.912 C108.793,72.687 107.838,71.989 106.562,71.376 z" fill="#00A66A"/>
      <path d="M47.104,40.712 C43.742,40.375 41.099,40.11 38.03,39.802 C35.326,35.344 35.289,34.331 36.858,30.521 C40.476,21.723 47.732,17.167 56.009,13.791 C57.064,13.359 58.273,13.154 59.418,13.135 C60.445,13.12 61.478,13.507 62.382,13.693 C61.601,17.282 60.505,20.458 60.313,23.689 C60.11,27.116 60.758,30.594 61.066,34.426 C56.113,36.604 50.474,37.196 47.104,40.712 z" fill="#00A66A"/>
      <path d="M87.028,118.622 C91.829,121.855 96.527,125.243 101.638,128.824 C100.709,129.736 100.049,130.695 99.137,131.211 C94.805,133.669 90.176,134.506 85.144,134.376 C81.745,134.285 79.141,133.389 76.9,130.975 C74.651,128.547 72.222,126.271 70.126,123.716 C68.205,121.377 65.98,119.172 64.916,116.15 C67.291,113.877 70.025,113.758 72.729,114.032 C77.797,114.548 82.725,115.725 87.028,118.622 z" fill="#00A66A"/>
      <path d="M46.551,70.03 C43.03,72.183 39.585,74.294 35.926,76.534 C34.212,74.04 32.66,71.61 30.934,69.312 C29.069,66.831 27.032,64.475 25.093,62.043 C24.733,61.593 24.507,61.04 24.191,60.548 C23.138,58.92 23.206,57.281 23.987,55.555 C26.933,49.056 32.877,45.525 40.218,45.917 C42.333,53.962 44.437,61.981 46.551,70.03 z" fill="#00A66A"/>
      <path d="M102.342,106.811 C108.7,108.792 115.151,110.207 122.085,109.979 C122.467,112.22 121.509,113.282 120.341,113.95 C117.986,115.301 115.607,116.758 113.048,117.575 C108.624,118.986 104.052,119.941 99.435,121.118 C96.963,119.358 94.514,117.768 92.251,115.943 C90.073,114.193 86.851,113.921 85.065,111.093 C88.038,108.902 91.152,107.885 94.308,106.889 C97.019,106.035 99.657,105.971 102.342,106.811 z" fill="#00A66A"/>
      <path d="M118.912,105.317 C117.733,105.125 116.442,104.911 114.644,104.618 C116.013,101.18 117.333,98.576 118.072,95.816 C118.828,93.024 118.834,90.036 119.501,87.21 C120.019,84.998 119.971,82.549 121.627,80.481 C125.07,79.901 128.534,78.868 132.196,79.067 C131.812,87.153 126.369,97.849 118.912,105.317 z" fill="#00A66A"/>
      <path d="M70.845,11.835 C70.404,10.624 69.951,9.376 69.5,8.133 C75.769,5.441 84.257,4.572 91.79,5.847 C91.83,6.374 91.977,6.949 91.898,7.49 C91.731,8.612 91.443,9.714 91.241,10.678 C86.368,11.943 78.668,12.359 70.845,11.835 z" fill="#00A66A"/>
      <path d="M21.829,38.539 C23.431,35.684 25.525,33.131 28.788,31.578 C30.998,34.604 31.453,37.972 31.936,41.238 C29.566,43.159 27.547,44.987 25.334,46.531 C23.024,48.139 22.064,51.285 19.166,52.23 C17.652,50.329 17.549,48.487 18.357,46.551 C19.479,43.864 20.411,41.062 21.829,38.539 z" fill="#00A66A"/>
      <path d="M101.492,18.701 C102.399,15.736 103.295,12.821 104.254,9.672 C107.991,7.89 111.887,6.696 116.37,8.673 C116.025,10.827 115.723,12.697 115.461,14.349 C109.769,17.278 104.796,18.834 101.492,18.701 z" fill="#00A66A"/>
      <path d="M136.371,44.121 C136.239,44.086 136.15,43.866 136.041,43.73 C136.849,40.949 137.386,40.45 139.214,40.967 C140.148,41.229 141.044,41.61 141.941,41.958 C145.855,43.468 146.229,44.185 144.926,47.96 C143.148,53.13 140.655,57.954 137.773,62.578 C137.645,62.776 137.192,62.762 136.525,62.948 C136.497,62.114 136.303,61.375 136.468,60.726 C137.458,56.769 138.502,52.822 139.586,48.888 C140.576,45.276 140.571,45.236 136.371,44.121 z" fill="#00A66A"/>
      <path d="M10.041,124.997 C13.162,127.997 15.024,131.772 17.023,136.908 C15.563,135.854 15.041,135.609 14.693,135.21 C12.301,132.459 10.235,129.423 7.173,127.282 C6.508,126.815 6.201,125.681 5.983,124.795 C5.885,124.392 6.321,123.765 6.673,123.382 C6.85,123.195 7.457,123.191 7.728,123.349 C8.541,123.829 9.366,124.346 10.041,124.997 z" fill="#00A66A"/>
    </g>
    <g id="Accents" display="none">
      <path d="M31.703,108.308 C34.417,105.323 37.89,102.829 40.992,99.937 C42.26,98.755 43.423,97.436 44.465,96.049 C44.876,95.498 44.918,94.605 44.967,93.858 C45.026,92.94 43.649,92.109 42.829,92.5 C42.482,92.666 42.088,92.791 41.81,93.039 C34.567,99.525 26.51,105.131 20.492,112.937 C19.788,113.85 19.03,114.77 18.537,115.796 C17.81,117.293 19.153,119.133 20.828,118.825 C22.158,118.578 23.249,118.005 24.515,119.214 C24.976,119.657 26.373,119.444 27.181,119.121 C29.621,118.145 31.156,116.05 32.712,114.053 C34.102,112.265 33.999,111.87 32.2,109.647 C31.988,109.385 31.946,108.981 31.703,108.308 z" fill="#FFFFFF"/>
      <path d="M41.337,116.535 C41.48,116.175 41.795,115.781 41.728,115.468 C41.583,114.78 41.413,113.836 40.927,113.54 C40.401,113.222 39.491,113.449 38.779,113.593 C38.46,113.652 38.119,114.032 37.959,114.355 C36.487,117.242 33.868,118.906 31.41,120.787 C30.058,121.815 28.883,123.134 27.85,124.488 C27.542,124.894 27.757,126.095 28.158,126.531 C28.555,126.969 29.74,127.274 30.161,126.995 C34.483,124.171 39.236,121.761 41.337,116.535 z" fill="#FFFFFF"/>
      <path d="M65.707,82.108 C65.434,84.08 65.023,86.344 64.845,88.627 C64.767,89.589 65.323,90.635 66.479,90.565 C67.122,90.528 68.163,89.965 68.286,89.459 C69.099,86.113 69.75,82.72 70.334,79.323 C70.393,79.002 69.703,78.437 69.252,78.178 C69.021,78.046 68.4,78.225 68.212,78.472 C67.407,79.521 66.696,80.65 65.707,82.108 z" fill="#FFFFFF"/>
      <path d="M54.51,82.154 C54.887,82.744 55.205,83.907 55.854,84.141 C58.271,85.008 63.165,82.458 64.079,80.077 C64.437,79.139 63.619,77.704 62.788,77.984 C60.261,78.839 57.779,79.842 55.306,80.85 C55.025,80.967 54.906,81.482 54.51,82.154 z" fill="#FFFFFF"/>
      <path d="M46.144,103.981 C48.507,104.865 51.148,103.303 51.332,101.283 C51.404,100.495 50.29,99.31 49.51,99.386 C47.891,99.54 46.465,100.245 45.768,101.688 C45.47,102.31 46.021,103.345 46.144,103.981 z" fill="#FFFFFF"/>
      <path d="M111.831,87.692 C111.945,86.752 112.226,85.051 112.321,83.341 C112.341,82.903 111.824,82.103 111.464,82.044 C110.785,81.941 109.88,82.051 109.37,82.455 C108.814,82.884 108.627,83.76 108.238,84.427 C107.186,86.244 106.114,88.056 105.042,89.865 C104.754,90.356 104.207,90.822 104.19,91.318 C104.163,92.026 104.311,92.953 104.764,93.411 C105.195,93.851 106.19,94.101 106.802,93.936 C109.563,93.191 110.427,90.697 111.831,87.692 z" fill="#FFFFFF"/>
      <path d="M100.065,83.546 C99.624,84.479 100.604,86.033 101.678,86.08 C102.048,86.097 102.456,86.131 102.791,86.011 C105.075,85.225 106.705,83.331 106.508,81.564 C106.459,81.112 105.947,80.463 105.53,80.349 C103.585,79.83 101.121,81.339 100.065,83.546 z" fill="#FFFFFF"/>
      <path d="M84.502,87.109 C83.342,86.816 82.842,86.524 82.625,86.664 C81.524,87.384 80.42,88.144 79.479,89.05 C79.206,89.312 79.283,90.225 79.522,90.653 C79.758,91.067 80.423,91.5 80.876,91.475 C82.861,91.374 84.216,90.146 84.485,88.343 C84.569,87.765 84.505,87.163 84.502,87.109 z" fill="#FFFFFF"/>
      <path d="M81.78,98.359 C81.903,98.706 81.942,99.367 82.288,99.673 C82.662,99.998 83.394,100.216 83.849,100.081 C85.751,99.506 87.039,97.852 86.746,96.366 C86.66,95.926 86.076,95.336 85.643,95.26 C84.085,94.994 82.676,96.151 81.78,98.359 z" fill="#FFFFFF"/>
      <path d="M129.293,24.455 C128.16,27.3 126.897,30.28 125.83,33.325 C125.65,33.838 126.133,34.911 126.631,35.248 C127.15,35.598 128.221,35.645 128.749,35.326 C129.502,34.874 130.298,34.047 130.513,33.232 C131.108,31.01 131.517,28.724 131.771,26.434 C131.924,25.108 131.124,24.297 129.293,24.455 z" fill="#FFFFFF"/>
      <path d="M125.45,23.383 C124.389,22.788 123.096,23.219 121.906,24.567 C120.531,26.123 120.206,27.625 121.071,28.747 C121.278,29.011 121.721,29.265 122.032,29.241 C123.983,29.106 126.285,26.326 126.111,24.308 C126.088,23.984 125.682,23.693 125.45,23.383 z" fill="#FFFFFF"/>
      <path d="M101.875,49.79 C100.015,53.49 98.564,56.371 96.976,59.53 C97.48,59.941 97.98,60.652 98.594,60.77 C99.242,60.897 100.363,60.684 100.644,60.225 C102.153,57.76 103.656,55.221 103.234,52.13 C103.173,51.648 102.722,51.217 101.875,49.79 z" fill="#FFFFFF"/>
      <path d="M82.613,57.088 C81.405,56.703 80.763,56.248 80.378,56.412 C77.871,57.449 76.263,59.273 76.188,62.116 C76.169,62.584 76.565,63.276 76.964,63.486 C77.366,63.699 78.078,63.575 78.541,63.352 C79.031,63.117 79.506,62.662 79.79,62.184 C80.674,60.711 81.465,59.18 82.613,57.088 z" fill="#FFFFFF"/>
      <path d="M85.717,62.341 C83.689,62.593 82.389,63.961 81.368,65.606 C81.125,65.992 81.206,66.782 81.447,67.213 C81.674,67.622 82.335,68.094 82.748,68.045 C85.164,67.736 86.61,65.872 86.526,63.246 C86.517,62.965 86.049,62.698 85.717,62.341 z" fill="#FFFFFF"/>
      <path d="M93.121,52.321 C93.83,52.409 94.333,52.634 94.544,52.472 C95.729,51.579 96.924,50.664 97.951,49.602 C98.56,48.971 97.741,47.505 96.867,47.478 C94.896,47.414 93.086,48.57 92.571,50.488 C92.418,51.048 92.948,51.797 93.121,52.321 z" fill="#FFFFFF"/>
      <path d="M88.02,25.365 C87.529,26.596 86.887,27.799 86.616,29.081 C86.497,29.654 86.955,30.655 87.46,30.968 C87.985,31.291 89.086,31.306 89.569,30.951 C92.648,28.685 93.7,25.519 93.076,21.799 C92.995,21.327 92.399,20.618 92.005,20.596 C91.345,20.558 90.317,20.781 90.051,21.246 C89.296,22.558 88.85,24.048 88.283,25.472 C88.197,25.436 88.11,25.401 88.02,25.365 z" fill="#FFFFFF"/>
      <path d="M78.991,24.609 C78.161,24.674 77.252,24.472 76.753,24.836 C74.753,26.29 72.824,27.858 71.011,29.541 C70.644,29.887 70.631,31.108 70.957,31.582 C71.301,32.082 72.434,32.591 72.883,32.375 C75.651,31.049 78.076,29.234 79.452,26.366 C79.617,26.01 79.201,25.365 78.991,24.609 z" fill="#FFFFFF"/>
      <path d="M73.814,20.331 C72.139,20.008 70.397,21.075 69.937,22.419 C69.69,23.143 70.516,24.406 71.338,24.562 C72.757,24.829 74.159,23.782 74.408,22.029 C74.496,21.449 73.986,20.781 73.814,20.331 z" fill="#FFFFFF"/>
      <path d="M54.379,56.3 C54.643,56.703 54.909,57.592 55.453,57.829 C56.274,58.186 57.518,58.495 58.183,58.113 C61.219,56.376 63.833,54.072 65.673,51.046 C65.954,50.579 65.74,49.421 65.33,49.02 C64.885,48.586 63.661,48.278 63.267,48.574 C60.357,50.759 57.561,53.103 54.741,55.413 C54.613,55.522 54.591,55.768 54.379,56.3 z" fill="#FFFFFF"/>
      <path d="M59.581,45.256 C58.789,45.083 58.401,44.879 58.062,44.945 C55.684,45.413 53.864,46.751 52.778,48.9 C52.507,49.44 52.633,50.517 53.017,50.957 C53.411,51.41 54.606,51.768 54.998,51.499 C56.71,50.327 58.353,49.007 59.793,47.515 C60.155,47.145 59.66,45.937 59.581,45.256 z" fill="#FFFFFF"/>
      <path d="M118.435,57.396 C118.59,58.022 118.564,58.692 118.889,59.037 C119.219,59.388 119.955,59.669 120.398,59.552 C122.877,58.895 125.014,57.613 126.524,55.487 C126.798,55.1 126.736,54.384 126.633,53.86 C126.578,53.598 126.059,53.221 125.783,53.245 C122.736,53.51 120.411,55.057 118.435,57.396 z" fill="#FFFFFF"/>
      <path d="M130.241,57.63 C129.5,57.672 128.614,57.454 128.15,57.8 C125.86,59.498 124.987,62.033 124.647,64.746 C124.598,65.148 125.169,65.872 125.598,66.028 C126.032,66.181 126.795,65.977 127.175,65.645 C129.141,63.927 129.833,62.06 130.241,57.63 z" fill="#FFFFFF"/>
      <path d="M57.837,19.458 C56.017,18.158 55.103,18.934 54.308,19.775 C53.391,20.74 52.379,20.651 51.169,20.603 C50.118,20.561 48.842,20.946 48.007,21.594 C45.83,23.273 44.258,25.49 43.834,28.287 C43.736,28.922 44.112,29.86 44.593,30.302 C45.354,31.002 46.438,30.944 47.199,30.188 C48.002,29.388 48.64,28.419 49.584,27.225 C50.352,27.892 50.977,28.533 51.696,29.037 C52.638,29.696 53.739,29.481 54.158,28.541 C55.483,25.59 56.606,22.543 57.837,19.458 z" fill="#FFFFFF"/>
      <path d="M87.724,127.649 C87.904,127.72 88.081,127.815 88.266,127.861 C89.227,128.111 90.327,128.3 90.677,127.128 C90.854,126.55 90.532,125.485 90.064,125.101 C88.271,123.629 86.349,122.307 84.421,121.007 C83.973,120.7 83.312,120.528 82.777,120.58 C82.268,120.629 81.612,120.939 81.352,121.345 C81.095,121.746 81.026,122.571 81.268,122.939 C82.842,125.283 85.184,126.618 87.724,127.649 z" fill="#FFFFFF"/>
      <path d="M85.64,130.01 C84.655,127.257 82.819,126.567 80.767,126.024 C79.913,128.143 80.94,129.35 82.351,130.012 C83.179,130.401 84.364,130.04 85.64,130.01 z" fill="#FFFFFF"/>
      <path d="M29.346,56.453 C29.274,56.742 28.956,57.323 29.035,57.844 C29.141,58.543 29.385,59.422 29.885,59.808 C30.695,60.432 31.816,60.295 32.422,59.412 C33.937,57.208 35.329,54.922 36.733,52.643 C36.922,52.34 37.006,51.883 36.944,51.532 C36.846,50.995 36.713,50.196 36.358,50.035 C35.76,49.761 34.775,49.599 34.299,49.918 C32.013,51.447 30.56,53.705 29.346,56.453 z" fill="#FFFFFF"/>
      <path d="M34.661,67.262 C37.39,65.456 37.927,63.415 38.292,61.342 C38.37,60.912 37.9,60.202 37.484,59.916 C37.083,59.644 36.294,59.52 35.897,59.74 C34.27,60.618 33.314,62.153 33.275,63.934 C33.254,64.91 34.065,65.902 34.661,67.262 z" fill="#FFFFFF"/>
      <path d="M100.946,116.065 C101.729,116.884 102.313,118.029 102.919,118.04 C106.222,118.115 109.423,117.47 112.351,115.823 C112.674,115.639 113.085,115.352 113.161,115.039 C113.337,114.339 113.507,113.547 113.339,112.889 C113.231,112.495 112.481,112.257 111.999,111.988 C111.843,111.905 111.614,111.895 111.435,111.941 C107.902,112.805 104.373,113.679 100.946,116.065 z" fill="#FFFFFF"/>
      <path d="M96.444,113.136 C97.306,113.485 98.04,114.076 98.623,113.95 C99.909,113.681 101.134,113.077 102.341,112.516 C102.498,112.445 102.515,111.775 102.388,111.467 C102.266,111.149 101.894,110.721 101.621,110.713 C99.685,110.652 97.791,110.779 96.444,113.136 z" fill="#FFFFFF"/>
      <path d="M124.536,85.989 C124.157,87.229 123.768,88.132 123.657,89.065 C123.606,89.512 123.98,90.306 124.342,90.44 C124.985,90.672 126.061,90.832 126.445,90.476 C128.471,88.565 129.631,86.153 129.406,83.305 C129.357,82.734 128.584,81.888 128.022,81.778 C127.477,81.672 126.541,82.176 126.19,82.698 C125.451,83.797 124.978,85.076 124.536,85.989 z" fill="#FFFFFF"/>
    </g>
  </g>
</svg>
