<?xml version="1.0" encoding="UTF-8"?>
<!DOCTYPE svg PUBLIC "-//W3C//DTD SVG 1.1//EN" "http://www.w3.org/Graphics/SVG/1.1/DTD/svg11.dtd">
<svg version="1.1" xmlns="http://www.w3.org/2000/svg" xmlns:xlink="http://www.w3.org/1999/xlink" x="0" y="0" width="380" height="280" viewBox="0, 0, 190, 140">
  <g id="Simplified_Text">
    <path d="M26.45,138.935 C24.85,138.035 24.75,136.435 25.35,119.235 C25.75,105.835 26.25,100.135 27.15,99.235 C27.95,98.435 30.95,97.835 34.45,97.735 C39.65,97.635 40.95,97.935 44.15,100.435 C46.25,101.935 48.25,104.335 48.75,105.635 C49.75,108.335 48.65,116.235 46.95,118.335 C46.15,119.335 46.65,121.835 49.05,128.035 L52.25,136.435 L52.75,119.835 C53.05,109.535 53.65,102.735 54.35,102.035 C54.95,101.435 57.45,101.035 59.85,101.235 L64.25,101.535 L64.55,119.235 C64.75,136.535 64.75,136.935 62.65,138.135 C61.45,138.735 58.55,139.035 56.15,138.735 C53.85,138.535 51.45,138.735 50.95,139.235 C50.45,139.735 48.25,140.035 46.15,139.835 C42.35,139.535 42.25,139.435 39.25,132.135 L36.25,124.735 L35.95,131.035 C35.75,134.635 35.15,138.035 34.55,138.735 C33.35,140.235 28.95,140.435 26.45,138.935 z M40.444,110.216 C38.883,105.532 33.159,104.751 33.159,109.175 C33.159,111.517 34.98,113.338 37.322,113.338 C39.664,113.338 40.965,112.037 40.444,110.216 z" fill="#005434"/>
    <path d="M176.15,139.335 C174.95,139.135 172.25,137.435 170.15,135.635 L166.35,132.335 L169.35,128.735 C172.65,124.535 172.95,124.435 176.35,126.635 C180.75,129.535 180.15,127.235 175.25,122.335 C165.75,112.735 164.45,107.635 170.05,101.735 C174.35,97.135 179.25,96.135 184.45,98.635 C188.55,100.735 189.25,102.335 188.25,107.735 C187.45,112.035 185.55,112.835 182.05,110.035 C177.05,106.135 178.35,109.935 184.15,116.035 C189.45,121.535 189.75,122.135 189.75,126.935 C189.75,133.535 188.45,136.635 184.85,138.535 C181.85,140.035 180.35,140.135 176.15,139.335 z" fill="#005434"/>
    <path d="M1.45,138.335 C0.35,136.535 0.25,102.135 1.35,101.035 C2.05,100.335 5.95,100.035 11.85,100.235 L21.25,100.535 L21.55,104.835 C21.95,110.635 20.45,112.435 15.55,111.635 C12.25,111.135 11.75,111.235 11.75,112.935 C11.75,114.635 12.55,114.935 16.55,115.235 L21.25,115.535 L21.25,120.535 L21.25,125.535 L16.55,125.835 L11.85,126.135 L11.55,132.335 L11.25,138.535 L6.55,138.835 C4.05,139.035 1.75,138.735 1.45,138.335 z" fill="#005434"/>
    <path d="M71.15,138.035 C69.05,137.235 68.95,136.335 68.25,119.635 C67.65,105.435 67.75,101.735 68.85,100.435 C70.05,99.035 71.65,98.835 79.65,99.435 C84.85,99.835 89.45,100.335 89.85,100.635 C91.15,101.435 90.95,108.435 89.55,109.835 C88.85,110.535 86.15,111.035 83.55,111.035 C80.05,111.035 78.75,111.435 78.75,112.435 C78.75,113.335 79.95,114.035 82.05,114.235 C85.15,114.535 85.25,114.735 85.55,119.335 C85.85,123.935 85.75,124.235 82.85,125.335 C78.25,127.035 79.05,127.935 85.55,128.235 C90.85,128.535 91.25,128.735 91.55,131.135 C91.75,132.535 91.35,134.835 90.85,136.335 C89.85,138.935 89.65,139.035 81.55,138.935 C76.95,138.935 72.25,138.535 71.15,138.035 z" fill="#005434"/>
    <path d="M94.85,137.635 C93.95,136.635 93.85,131.435 94.25,117.935 C94.55,107.835 95.15,99.235 95.55,98.935 C95.95,98.535 98.35,97.935 100.85,97.535 L105.45,96.835 L112.65,107.535 L119.75,118.235 L119.75,108.835 C119.75,98.435 120.85,96.035 125.95,96.035 C130.35,96.035 131.65,98.635 131.05,106.535 C130.85,110.435 130.25,119.135 129.95,126.035 L129.25,138.535 L124.35,138.535 L119.35,138.535 L114.05,129.535 C111.05,124.635 108.25,119.435 107.65,118.135 C106.05,114.235 105.55,116.335 105.35,127.735 L105.25,138.535 L100.65,138.835 C97.55,139.035 95.65,138.635 94.85,137.635 z" fill="#005434"/>
    <path d="M135.95,137.835 C135.15,137.035 134.75,131.235 134.75,118.335 L134.75,100.035 L137.35,99.035 C145.65,95.835 157.45,99.835 162.85,107.735 C173.05,122.535 162.25,139.035 142.25,139.035 C139.45,139.035 136.65,138.535 135.95,137.835 z M153.35,124.935 C155.25,123.435 155.95,118.735 154.85,115.735 C153.95,113.335 148.55,109.035 146.55,109.035 C146.05,109.035 145.75,113.135 145.75,118.135 L145.75,127.335 L148.95,126.635 C150.65,126.335 152.65,125.535 153.35,124.935 z" fill="#005434"/>
    <path d="M44.85,86.835 C43.85,84.435 42.45,80.735 41.65,78.535 L40.25,74.535 L39.75,82.035 L39.25,89.535 L35.45,89.835 C28.95,90.335 28.85,90.035 29.45,70.835 C29.65,61.435 30.35,52.735 30.75,51.435 C31.85,48.535 35.35,47.535 41.55,48.435 C45.35,48.935 46.95,49.835 50.05,53.035 C53.65,56.835 53.85,57.435 53.25,61.335 C52.85,63.635 52.05,66.735 51.35,68.135 C50.25,70.335 50.55,71.735 53.45,79.435 C57.35,89.535 56.95,91.035 50.55,91.035 C46.95,91.035 46.55,90.735 44.85,86.835 z M44.473,60.913 C42.911,56.23 37.187,55.449 37.187,59.872 C37.187,62.214 39.009,64.036 41.35,64.036 C43.692,64.036 44.993,62.735 44.473,60.913 z" fill="#005434"/>
    <path d="M73.95,90.035 C69.85,89.035 64.25,83.935 61.55,78.635 C59.95,75.435 59.65,73.435 60.05,68.335 C61.55,49.135 83.05,41.835 93.15,57.135 C96.15,61.635 98.25,71.335 97.35,76.335 C96.55,80.535 91.95,86.335 87.75,88.535 C84.05,90.435 78.05,91.135 73.95,90.035 z M84.75,76.335 C89.45,70.335 82.25,59.135 74.95,61.435 C70.75,62.835 69.55,70.535 72.75,75.835 C74.45,78.535 75.25,79.035 78.65,79.035 C81.75,79.035 83.05,78.435 84.75,76.335 z" fill="#005434"/>
    <path d="M122.35,89.835 C122.05,89.135 121.15,85.235 120.25,81.335 C119.25,77.335 118.15,74.235 117.75,74.535 C117.25,74.835 116.35,77.635 115.65,80.835 C113.75,89.735 113.35,90.235 107.95,89.835 C104.15,89.635 103.15,89.135 102.95,87.535 C102.85,86.435 104.55,79.535 106.75,72.135 C108.95,64.735 110.75,57.535 110.75,56.035 C110.75,52.535 113.45,50.135 117.75,49.835 C121.15,49.535 121.15,49.535 124.15,57.735 C125.85,62.235 127.55,66.235 127.85,66.535 C128.25,66.835 129.75,63.535 131.25,59.135 C132.85,54.335 134.65,50.635 135.75,50.035 C138.35,48.635 144.35,48.835 145.55,50.335 C146.15,50.935 148.25,59.335 150.25,68.835 C154.15,87.635 154.15,88.335 148.65,89.535 C144.35,90.535 143.05,88.835 141.15,79.935 C140.15,75.635 139.05,72.035 138.75,72.035 C138.05,72.035 135.45,79.635 134.15,85.535 C133.15,90.035 131.95,91.035 127.05,91.035 C124.45,91.035 122.55,90.535 122.35,89.835 z" fill="#005434"/>
    <path d="M1.45,89.335 C1.15,88.835 0.85,80.235 0.65,70.035 L0.25,51.535 L4.25,50.935 C6.45,50.535 11.15,50.535 14.75,50.935 L21.25,51.535 L21.25,56.535 L21.25,61.535 L16.55,61.835 C13.15,62.035 11.75,62.535 11.75,63.635 C11.75,64.635 12.95,65.035 15.55,65.035 C20.25,65.035 21.75,66.435 21.75,71.035 C21.75,75.635 20.25,77.035 15.55,77.035 L11.75,77.035 L11.75,82.535 C11.75,86.835 11.35,88.135 9.85,89.035 C7.55,90.235 2.05,90.435 1.45,89.335 z" fill="#005434"/>
    <path d="M35.75,40.335 C33.15,39.335 27.65,33.635 25.65,29.835 C23.05,24.735 23.15,15.935 25.85,10.335 C28.95,3.835 35.05,0.035 42.35,0.035 C48.75,0.035 52.95,2.035 56.45,6.835 C59.25,10.635 62.05,21.535 61.35,25.935 C59.95,34.535 51.65,41.135 42.15,40.935 C39.45,40.935 36.55,40.635 35.75,40.335 z M47.85,28.135 C52.55,24.335 49.35,14.435 42.65,12.135 C39.95,11.235 39.35,11.335 37.15,13.535 C34.35,16.335 33.95,21.535 36.25,26.035 C38.55,30.435 43.85,31.435 47.85,28.135 z" fill="#005434"/>
    <path d="M74.75,39.935 C71.05,38.435 67.85,35.035 65.15,29.835 C61.25,22.135 62.35,12.835 67.95,6.435 C72.15,1.635 75.65,0.035 82.05,0.035 C86.45,0.035 88.25,0.535 91.55,3.035 C100.65,9.635 103.55,25.335 97.25,33.635 C92.45,39.835 81.95,42.835 74.75,39.935 z M87.25,27.535 C90.25,24.635 90.35,22.935 87.65,17.435 C86.35,14.535 84.65,12.835 82.65,12.135 C78.85,10.835 77.05,11.535 75.25,15.135 C70.25,24.835 79.95,34.935 87.25,27.535 z" fill="#005434"/>
    <path d="M1.45,39.335 C0.55,37.935 0.25,3.535 1.05,2.235 C1.95,0.935 14.25,0.635 18.75,1.935 C20.95,2.535 21.25,3.135 21.25,7.535 L21.25,12.535 L16.55,12.835 C13.15,13.035 11.75,13.535 11.75,14.635 C11.75,15.635 12.95,16.035 15.65,16.035 C20.45,16.035 21.95,17.735 21.55,22.735 C21.25,26.535 21.25,26.535 16.55,26.835 L11.85,27.135 L11.55,33.335 L11.25,39.535 L6.55,39.835 C4.05,40.035 1.75,39.735 1.45,39.335 z" fill="#005434"/>
    <path d="M104.85,38.235 C104.35,37.235 104.25,29.235 104.55,18.535 L105.25,0.535 L111.75,0.235 C120.95,-0.165 124.35,0.635 128.75,4.635 C134.65,10.035 137.15,15.835 136.25,22.735 C134.95,33.335 125.65,40.035 112.15,40.035 C107.15,40.035 105.65,39.635 104.85,38.235 z M122.55,27.035 C122.75,27.035 123.55,25.435 124.35,23.535 C125.65,20.335 125.65,19.635 124.25,16.635 C122.85,13.635 119.25,11.035 116.75,11.035 C116.15,11.035 115.75,14.935 115.75,19.935 L115.75,28.935 L118.95,27.935 C120.75,27.435 122.35,27.035 122.55,27.035 z" fill="#005434"/>
  </g>
</svg>
