<?xml version="1.0" encoding="UTF-8"?>
<!DOCTYPE svg PUBLIC "-//W3C//DTD SVG 1.1//EN" "http://www.w3.org/Graphics/SVG/1.1/DTD/svg11.dtd">
<svg version="1.1" xmlns="http://www.w3.org/2000/svg" xmlns:xlink="http://www.w3.org/1999/xlink" x="0" y="0" width="400" height="50" viewBox="0, 0, 400, 50">
  <g id="Background">
    <rect x="0" y="0" width="400" height="50" fill="#000000" fill-opacity="0"/>
  </g>
  <g id="Thin_full_logo">
    <g>
      <path d="M159.317,574.668 C156.106,571.467 155.379,567.603 156.285,562.818 C156.965,563.485 157.391,563.805 157.697,564.217 C159.479,566.633 161.06,569.223 163.042,571.458 C165.577,574.313 166.734,577.508 166.577,581.258 C166.552,581.831 166.534,582.416 166.619,582.978 C166.75,583.835 167.52,584.433 168.331,584.387 C169.211,584.337 169.489,583.665 169.596,582.977 C169.807,581.624 169.921,580.253 170.057,579.062 C177.139,572.553 185.701,570.683 191.733,574.278 C191.566,575.254 191.517,576.307 191.201,577.274 C190.076,580.68 190.252,584.103 190.884,587.552 C190.945,587.894 190.979,588.237 191.03,588.583 C191.273,590.263 190.81,591.774 189.982,593.223 C189.308,594.396 188.052,594.367 187.01,594.792 C183.639,596.168 182.624,596.584 179.552,594.503 C178.494,593.786 176.935,593.735 175.583,593.578 C175.25,593.538 174.65,594.21 174.488,594.667 C174.26,595.307 174.769,595.768 175.396,595.864 C179.519,596.488 182.471,599.062 185.239,601.857 C186.777,603.411 188.093,605.185 189.508,606.859 C189.73,607.123 189.977,607.376 190.147,607.672 C190.262,607.873 190.265,608.137 190.386,608.65 C188.105,607.267 186.365,605.764 184.823,604.058 C183.393,602.475 181.68,601.287 179.801,600.42 C177.841,599.514 175.751,598.801 173.207,599.718 C173.505,602.214 171.622,603.242 169.958,604.531 C168.048,606.012 166.287,607.692 164.469,609.295 C163.875,609.816 163.303,610.366 162.529,611.077 C161.318,609.626 160.447,608.173 159.667,606.642 C158.457,604.263 157.114,601.977 154.942,600.3 C154.612,600.043 154.446,599.57 154.219,599.216 C154.967,597.842 156.165,597.102 157.18,596.175 C159.059,594.466 160.922,592.74 162.774,591.001 C163.542,590.281 164.191,589.471 164.249,588.282 C163.974,587.715 163.678,587.104 163.378,586.494 C163.027,585.772 162.677,585.051 162.323,584.327 C162.947,583.675 164.291,583.844 164.388,582.682 C164.464,581.784 164.455,580.79 164.137,579.973 C163.773,579.042 163.12,578.168 162.419,577.435 C161.468,576.435 160.296,575.645 159.317,574.668 z" fill="#00A66A"/>
      <path d="M215.163,586.654 C214.899,588.122 214.318,589.537 213.244,590.604 C211.745,591.085 210.439,590.472 209.128,590.09 C207.657,589.663 206.203,589.418 204.692,589.795 C202.223,590.413 199.773,591.077 197.62,592.533 C196.759,593.117 195.875,593.7 194.932,594.11 C194.386,594.345 193.693,594.243 192.641,594.322 C194.113,591.159 194.066,588.27 193.498,585.225 C193.089,583.031 192.891,580.642 193.905,578.238 C196.386,577.206 198.933,576.126 201.496,575.094 C203.14,574.433 204.848,574.226 206.598,574.622 C209.527,575.285 212.457,575.944 215.378,576.651 C215.788,576.749 216.139,577.098 216.539,577.346 C216.079,580.529 215.711,583.607 215.163,586.654 z" fill="#00A66A"/>
      <path d="M206.816,552.35 C207.139,549.919 207.437,547.655 207.72,545.517 C208.006,545.248 208.147,545.021 208.344,544.947 C211.902,543.596 215.411,542.078 219.048,540.988 C222.018,540.099 224.958,540.658 227.716,542.597 C227.641,543.865 227.605,545.123 227.486,546.374 C227.357,547.753 227.005,549.124 227.015,550.496 C227.033,552.815 226.262,554.754 224.711,556.537 C223.138,556.619 221.503,556.541 219.933,556.828 C218.246,557.136 216.629,557.798 214.973,558.269 C214.821,558.311 214.59,558.074 214.394,557.966 C214.377,557.738 214.319,557.501 214.356,557.281 C214.996,553.522 214.998,553.53 211.077,553.33 C210.273,553.289 209.455,553.242 208.672,553.071 C208.045,552.934 207.456,552.606 206.816,552.35 z" fill="#00A66A"/>
      <path d="M205.125,555.769 C207.137,555.34 209.212,555.629 211.284,556.606 C211.041,559.293 210.912,561.926 210.53,564.521 C210.161,567.034 209.473,569.48 207.13,571.48 C203.282,570.467 199.852,572.892 196.168,573.814 C195.251,572.1 195.251,572.1 192.037,570.239 C191.762,566.888 192.785,560.295 194.072,557.594 C197.755,557.541 201.418,556.561 205.125,555.769 z" fill="#00A66A"/>
      <path d="M204.273,549.357 C204.116,550.586 203.7,551.781 203.414,552.954 C200.456,553.791 197.793,554.93 194.772,554.546 C194.812,554.124 194.82,553.786 194.877,553.457 C194.936,553.119 195.097,552.791 195.113,552.454 C195.146,551.722 194.62,551.05 193.934,550.981 C193.367,550.923 192.786,550.973 192.212,550.981 C190.618,551 189.027,551.023 187.359,550.543 C187.15,548.743 186.917,547.042 186.771,545.333 C186.715,544.658 186.822,543.96 186.917,543.282 C187.111,541.891 187.826,540.898 189.266,540.657 C191.19,540.335 193.12,539.997 195.061,539.848 C197.697,539.644 200.342,539.594 202.985,539.513 C203.763,539.49 204.543,539.589 205.326,539.631 C204.972,542.983 204.681,546.177 204.273,549.357 z" fill="#00A66A"/>
      <path d="M178.829,570.079 C176.974,566.542 176.533,562.638 175.633,558.826 C179.573,553.7 184.704,552.8 190.9,554.575 C190.516,557.036 190.26,559.553 189.703,562.002 C189.152,564.421 189.561,567.037 188.531,569.074 C185.12,569.427 182.06,569.744 178.829,570.079 z" fill="#00A66A"/>
      <path d="M211.318,572.007 C212.74,568.997 213.868,566.113 213.584,562.919 C215.663,561.187 217.756,559.752 220.435,559.63 C222.725,559.528 225.023,559.597 227.451,559.591 C227.454,560.154 227.535,560.617 227.443,561.043 C226.963,563.299 226.493,565.56 225.919,567.794 C225.452,569.596 224.673,571.249 223.36,572.652 C222.516,573.55 221.631,574.025 220.387,574.177 C217.86,574.487 215.624,573.409 213.268,572.915 C212.643,572.782 212.076,572.369 211.318,572.007 z" fill="#00A66A"/>
      <path d="M175.998,553.874 C174.001,553.675 172.431,553.518 170.608,553.336 C169.002,550.7 168.98,550.101 169.912,547.848 C172.061,542.645 176.371,539.951 181.288,537.955 C181.915,537.699 182.633,537.578 183.313,537.567 C183.923,537.558 184.537,537.787 185.074,537.897 C184.61,540.019 183.959,541.897 183.845,543.808 C183.724,545.834 184.109,547.891 184.292,550.157 C181.35,551.445 178,551.795 175.998,553.874 z" fill="#00A66A"/>
      <path d="M199.714,599.945 C202.566,601.857 205.357,603.86 208.393,605.978 C207.841,606.517 207.449,607.084 206.907,607.389 C204.334,608.843 201.584,609.338 198.595,609.261 C196.576,609.207 195.029,608.677 193.698,607.25 C192.362,605.814 190.919,604.468 189.674,602.957 C188.533,601.574 187.211,600.27 186.579,598.483 C187.99,597.139 189.614,597.069 191.22,597.231 C194.231,597.536 197.158,598.232 199.714,599.945 z" fill="#00A66A"/>
      <path d="M175.67,571.211 C173.578,572.484 171.532,573.732 169.358,575.057 C168.34,573.582 167.418,572.145 166.393,570.786 C165.285,569.319 164.075,567.926 162.923,566.488 C162.709,566.222 162.575,565.895 162.387,565.604 C161.762,564.641 161.802,563.672 162.266,562.651 C164.016,558.808 167.547,556.72 171.908,556.952 C173.164,561.709 174.414,566.451 175.67,571.211 z" fill="#00A66A"/>
      <path d="M208.811,592.961 C212.588,594.132 216.42,594.969 220.539,594.834 C220.766,596.159 220.197,596.787 219.503,597.182 C218.104,597.981 216.691,598.843 215.171,599.326 C212.543,600.16 209.827,600.725 207.084,601.421 C205.616,600.38 204.161,599.44 202.817,598.361 C201.523,597.326 199.609,597.165 198.548,595.493 C200.314,594.197 202.164,593.596 204.039,593.007 C205.649,592.502 207.216,592.464 208.811,592.961 z" fill="#00A66A"/>
      <path d="M218.654,592.077 C217.954,591.964 217.187,591.837 216.119,591.664 C216.932,589.631 217.716,588.091 218.155,586.459 C218.604,584.808 218.608,583.041 219.004,581.37 C219.312,580.062 219.283,578.614 220.267,577.391 C222.312,577.048 224.37,576.437 226.545,576.555 C226.317,581.336 223.084,587.661 218.654,592.077 z" fill="#00A66A"/>
      <path d="M190.101,536.798 C189.839,536.082 189.57,535.344 189.302,534.609 C193.026,533.017 198.068,532.503 202.543,533.257 C202.567,533.569 202.654,533.909 202.607,534.229 C202.508,534.892 202.337,535.544 202.217,536.114 C199.322,536.862 194.748,537.108 190.101,536.798 z" fill="#00A66A"/>
      <path d="M160.984,552.589 C161.936,550.901 163.18,549.391 165.118,548.473 C166.431,550.262 166.701,552.254 166.988,554.185 C165.58,555.321 164.381,556.402 163.066,557.315 C161.694,558.266 161.124,560.126 159.402,560.685 C158.503,559.561 158.442,558.472 158.922,557.327 C159.588,555.738 160.142,554.081 160.984,552.589 z" fill="#00A66A"/>
      <path d="M208.306,540.858 C208.845,539.105 209.377,537.381 209.947,535.519 C212.167,534.465 214.481,533.759 217.144,534.928 C216.939,536.202 216.76,537.308 216.604,538.285 C213.223,540.017 210.269,540.937 208.306,540.858 z" fill="#00A66A"/>
      <path d="M229.025,555.89 C228.947,555.869 228.894,555.739 228.829,555.659 C229.309,554.014 229.628,553.719 230.714,554.025 C231.269,554.18 231.801,554.405 232.334,554.611 C234.659,555.504 234.881,555.928 234.107,558.16 C233.051,561.217 231.57,564.07 229.858,566.804 C229.782,566.921 229.513,566.913 229.117,567.023 C229.1,566.53 228.985,566.093 229.083,565.709 C229.671,563.369 230.291,561.035 230.935,558.709 C231.523,556.573 231.52,556.549 229.025,555.89 z" fill="#00A66A"/>
      <path d="M153.982,603.715 C155.836,605.489 156.942,607.721 158.129,610.758 C157.262,610.135 156.952,609.99 156.745,609.754 C155.324,608.127 154.097,606.332 152.278,605.066 C151.883,604.79 151.701,604.119 151.571,603.595 C151.513,603.357 151.772,602.986 151.981,602.76 C152.086,602.649 152.447,602.647 152.608,602.74 C153.091,603.024 153.581,603.33 153.982,603.715 z" fill="#00A66A"/>
    </g>
    <g>
      <text transform="matrix(1, 0, 0, 1, 282.994, 544.893)">
        <tspan x="-42.437" y="11" font-family="Riya-Black" font-size="31" kerning="-0.5" fill="#005434">FOOD</tspan>
      </text>
      <text transform="matrix(1, 0, 0, 1, 288.961, 574.493)">
        <tspan x="-48.403" y="11" font-family="Riya-Black" font-size="31" kerning="1.5" fill="#005434">FROM</tspan>
      </text>
      <text transform="matrix(1, 0, 0, 1, 299.172, 604.093)">
        <tspan x="-58.617" y="11" font-family="Riya-Black" font-size="31" kerning="-1" fill="#005434">FRIENDS</tspan>
      </text>
    </g>
    <path d="M235.682,553.717 C237.177,554.487 237.305,554.906 236.967,556.5 C235.977,561.229 233.833,565.42 231.013,569.295 C230.404,570.129 229.751,570.932 229.181,571.671 C229.41,572.715 229.814,573.608 229.752,574.469 C229.58,577.001 229.477,579.561 228.434,581.952 C227.422,584.277 226.44,586.617 225.435,588.977 C226.699,591.219 226.831,591.979 225.664,594.019 C223.688,597.488 221.329,600.604 217.289,601.915 C215.969,602.343 214.662,602.811 213.347,603.251 C212.721,603.46 212.09,603.646 210.973,603.994 C212.078,604.436 212.711,604.647 213.306,604.94 C214.219,605.39 214.354,606.584 213.593,607.226 C213.418,607.376 213.236,607.528 213.032,607.626 C210.331,608.938 207.633,610.255 204.917,611.54 C203.463,612.227 201.995,612.891 200.499,613.481 C199.657,613.814 198.741,614.187 197.869,614.169 C196.266,614.134 194.645,613.931 193.073,613.606 C189.43,612.855 186.559,610.766 183.978,608.174 C182.514,606.704 180.925,605.358 179.352,604.001 C178.646,603.392 177.825,602.939 176.656,603.204 C174.454,604.839 172.05,606.462 169.84,608.315 C168.074,609.794 166.562,611.571 164.908,613.184 C164.248,613.824 163.54,614.428 162.796,614.969 C161.446,615.956 160.006,615.948 158.541,615.198 C157.076,614.448 155.876,613.383 154.813,612.133 C153.397,610.47 152.023,608.811 150.201,607.485 C147.745,605.699 147.385,602.601 148.999,600.056 C149.429,599.377 149.917,598.711 150.495,598.156 C152.406,596.317 154.367,594.526 156.316,592.723 C157.078,592.016 157.937,591.397 158.606,590.611 C159.337,589.758 160.506,589.232 160.749,587.874 C160.483,586.861 159.839,586.135 158.857,585.617 C157.528,584.917 156.241,584.138 154.928,583.401 C153.899,582.826 153.039,582.098 152.466,581.033 C151.636,579.496 152.189,578.262 153.893,578 C154.462,577.913 155.051,577.945 155.617,577.854 C156.216,577.759 156.927,578.424 157.513,577.507 C157.092,576.987 156.676,576.459 156.245,575.945 C153.926,573.171 152.785,570.016 152.823,566.367 C152.855,563.154 153.681,560.231 155.335,557.496 C155.865,556.617 156.275,555.657 156.66,554.702 C158.113,551.097 160.1,547.891 163.34,545.606 C164.091,545.076 164.806,544.381 165.648,544.122 C166.454,543.872 167.404,544.092 168.173,544.102 C169.198,542.815 169.948,541.422 171.088,540.521 C174.714,537.656 178.371,534.757 183.343,534.591 C183.965,534.57 184.796,534.266 185.148,533.803 C186.527,531.99 188.481,531.424 190.529,530.944 C195.539,529.77 200.638,530.042 205.718,529.994 C205.917,529.991 206.121,530.179 206.322,530.277 C207.28,531.19 205.698,532.45 206.51,533.242 C208.824,532.679 210.919,531.835 213.05,531.736 C215.749,531.61 218.475,532.088 221.15,532.303 C221.493,534.189 219.451,535.323 220.133,537.031 C226.51,538.163 228.65,538.908 231.174,540.886 C230.48,544.117 229.577,547.357 229.796,550.907 C231.931,551.921 233.833,552.767 235.682,553.717 z M159.254,574.668 C160.233,575.645 161.405,576.435 162.356,577.435 C163.057,578.168 163.71,579.042 164.074,579.973 C164.392,580.79 164.401,581.784 164.325,582.682 C164.228,583.844 162.884,583.675 162.26,584.327 C162.614,585.051 162.964,585.772 163.315,586.494 C163.615,587.104 163.911,587.715 164.186,588.282 C164.128,589.471 163.479,590.281 162.711,591.001 C160.859,592.74 158.996,594.466 157.117,596.175 C156.102,597.102 154.904,597.842 154.156,599.216 C154.383,599.57 154.549,600.043 154.879,600.3 C157.051,601.977 158.394,604.263 159.604,606.642 C160.384,608.173 161.255,609.626 162.466,611.077 C163.24,610.366 163.812,609.816 164.406,609.295 C166.224,607.692 167.985,606.012 169.895,604.531 C171.559,603.242 173.442,602.214 173.144,599.718 C175.688,598.801 177.778,599.514 179.738,600.42 C181.617,601.287 183.33,602.475 184.76,604.058 C186.302,605.764 188.042,607.267 190.323,608.65 C190.202,608.137 190.199,607.873 190.084,607.672 C189.914,607.376 189.667,607.123 189.445,606.859 C188.03,605.185 186.714,603.411 185.176,601.857 C182.408,599.062 179.456,596.488 175.333,595.864 C174.706,595.768 174.197,595.307 174.425,594.667 C174.587,594.21 175.187,593.538 175.52,593.578 C176.872,593.735 178.431,593.786 179.489,594.503 C182.561,596.584 183.576,596.168 186.947,594.792 C187.989,594.367 189.245,594.396 189.919,593.223 C190.747,591.774 191.21,590.263 190.967,588.583 C190.916,588.237 190.882,587.894 190.821,587.552 C190.189,584.103 190.013,580.68 191.138,577.274 C191.454,576.307 191.503,575.254 191.67,574.278 C185.638,570.683 177.076,572.553 169.994,579.062 C169.858,580.253 169.744,581.624 169.533,582.977 C169.426,583.665 169.148,584.337 168.268,584.387 C167.457,584.433 166.687,583.835 166.556,582.978 C166.471,582.416 166.489,581.831 166.514,581.258 C166.671,577.508 165.514,574.313 162.979,571.458 C160.997,569.223 159.416,566.633 157.634,564.217 C157.328,563.805 156.902,563.485 156.222,562.818 C155.316,567.603 156.043,571.467 159.254,574.668 z M215.1,586.654 C215.648,583.607 216.016,580.529 216.476,577.346 C216.076,577.098 215.725,576.749 215.315,576.651 C212.394,575.944 209.464,575.285 206.535,574.622 C204.785,574.226 203.077,574.433 201.433,575.094 C198.87,576.126 196.323,577.206 193.842,578.238 C192.828,580.642 193.026,583.031 193.435,585.225 C194.003,588.27 194.05,591.159 192.578,594.322 C193.63,594.243 194.323,594.345 194.869,594.11 C195.812,593.7 196.696,593.117 197.557,592.533 C199.71,591.077 202.16,590.413 204.629,589.795 C206.14,589.418 207.594,589.663 209.065,590.09 C210.376,590.472 211.682,591.085 213.181,590.604 C214.255,589.537 214.836,588.122 215.1,586.654 z M206.753,552.35 C207.393,552.606 207.982,552.934 208.609,553.071 C209.392,553.242 210.21,553.289 211.014,553.33 C214.935,553.53 214.933,553.522 214.293,557.281 C214.256,557.501 214.314,557.738 214.331,557.966 C214.527,558.074 214.758,558.311 214.91,558.269 C216.566,557.798 218.183,557.136 219.87,556.828 C221.44,556.541 223.075,556.619 224.648,556.537 C226.199,554.754 226.97,552.815 226.952,550.496 C226.942,549.124 227.294,547.753 227.423,546.374 C227.542,545.123 227.578,543.865 227.653,542.597 C224.895,540.658 221.955,540.099 218.985,540.988 C215.348,542.078 211.839,543.596 208.281,544.947 C208.084,545.021 207.943,545.248 207.657,545.517 C207.374,547.655 207.076,549.919 206.753,552.35 z M205.062,555.769 C201.355,556.561 197.692,557.541 194.009,557.594 C192.722,560.295 191.699,566.888 191.974,570.239 C195.188,572.1 195.188,572.1 196.105,573.814 C199.789,572.892 203.219,570.467 207.067,571.48 C209.41,569.48 210.098,567.034 210.467,564.521 C210.849,561.926 210.978,559.293 211.221,556.606 C209.149,555.629 207.074,555.34 205.062,555.769 z M204.21,549.357 C204.618,546.177 204.909,542.983 205.263,539.631 C204.48,539.589 203.7,539.49 202.922,539.513 C200.279,539.594 197.634,539.644 194.998,539.848 C193.057,539.997 191.127,540.335 189.203,540.657 C187.763,540.898 187.048,541.891 186.854,543.282 C186.759,543.96 186.652,544.658 186.708,545.333 C186.854,547.042 187.087,548.743 187.296,550.543 C188.964,551.023 190.555,551 192.149,550.981 C192.723,550.973 193.304,550.923 193.871,550.981 C194.557,551.05 195.083,551.722 195.05,552.454 C195.034,552.791 194.873,553.119 194.814,553.457 C194.757,553.786 194.749,554.124 194.709,554.546 C197.73,554.93 200.393,553.791 203.351,552.954 C203.637,551.781 204.053,550.586 204.21,549.357 z M178.766,570.079 C181.997,569.744 185.057,569.427 188.468,569.074 C189.498,567.037 189.089,564.421 189.64,562.002 C190.197,559.553 190.453,557.036 190.837,554.575 C184.641,552.8 179.51,553.7 175.57,558.826 C176.47,562.638 176.911,566.542 178.766,570.079 z M211.255,572.007 C212.013,572.369 212.58,572.782 213.205,572.915 C215.561,573.409 217.797,574.487 220.324,574.177 C221.568,574.025 222.453,573.55 223.297,572.652 C224.61,571.249 225.389,569.596 225.856,567.794 C226.43,565.56 226.9,563.299 227.38,561.043 C227.472,560.617 227.391,560.154 227.388,559.591 C224.96,559.597 222.662,559.528 220.372,559.63 C217.693,559.752 215.6,561.187 213.521,562.919 C213.805,566.113 212.677,568.997 211.255,572.007 z M175.935,553.874 C177.937,551.795 181.287,551.445 184.229,550.157 C184.046,547.891 183.661,545.834 183.782,543.808 C183.896,541.897 184.547,540.019 185.011,537.897 C184.474,537.787 183.86,537.558 183.25,537.567 C182.57,537.578 181.852,537.699 181.225,537.955 C176.308,539.951 171.998,542.645 169.849,547.848 C168.917,550.101 168.939,550.7 170.545,553.336 C172.368,553.518 173.938,553.675 175.935,553.874 z M199.651,599.945 C197.095,598.232 194.168,597.536 191.157,597.231 C189.551,597.069 187.927,597.139 186.516,598.483 C187.148,600.27 188.47,601.574 189.611,602.957 C190.856,604.468 192.299,605.814 193.635,607.25 C194.966,608.677 196.513,609.207 198.532,609.261 C201.521,609.338 204.271,608.843 206.844,607.389 C207.386,607.084 207.778,606.517 208.33,605.978 C205.294,603.86 202.503,601.857 199.651,599.945 z M175.607,571.211 C174.351,566.451 173.101,561.709 171.845,556.952 C167.484,556.72 163.953,558.808 162.203,562.651 C161.739,563.672 161.699,564.641 162.324,565.604 C162.512,565.895 162.646,566.222 162.86,566.488 C164.012,567.926 165.222,569.319 166.33,570.786 C167.355,572.145 168.277,573.582 169.295,575.057 C171.469,573.732 173.515,572.484 175.607,571.211 z M208.748,592.961 C207.153,592.464 205.586,592.502 203.976,593.007 C202.101,593.596 200.251,594.197 198.485,595.493 C199.546,597.165 201.46,597.326 202.754,598.361 C204.098,599.44 205.553,600.38 207.021,601.421 C209.764,600.725 212.48,600.16 215.108,599.326 C216.628,598.843 218.041,597.981 219.44,597.182 C220.134,596.787 220.703,596.159 220.476,594.834 C216.357,594.969 212.525,594.132 208.748,592.961 z M218.591,592.077 C223.021,587.661 226.254,581.336 226.482,576.555 C224.307,576.437 222.249,577.048 220.204,577.391 C219.22,578.614 219.249,580.062 218.941,581.37 C218.545,583.041 218.541,584.808 218.092,586.459 C217.653,588.091 216.869,589.631 216.056,591.664 C217.124,591.837 217.891,591.964 218.591,592.077 z M190.038,536.798 C194.685,537.108 199.259,536.862 202.154,536.114 C202.274,535.544 202.445,534.892 202.544,534.229 C202.591,533.909 202.504,533.569 202.48,533.257 C198.005,532.503 192.963,533.017 189.239,534.609 C189.507,535.344 189.776,536.082 190.038,536.798 z M160.921,552.589 C160.079,554.081 159.525,555.738 158.859,557.327 C158.379,558.472 158.44,559.561 159.339,560.685 C161.061,560.126 161.631,558.266 163.003,557.315 C164.318,556.402 165.517,555.321 166.925,554.185 C166.638,552.254 166.368,550.262 165.055,548.473 C163.117,549.391 161.873,550.901 160.921,552.589 z M208.243,540.858 C210.206,540.937 213.16,540.017 216.541,538.285 C216.697,537.308 216.876,536.202 217.081,534.928 C214.418,533.759 212.104,534.465 209.884,535.519 C209.314,537.381 208.782,539.105 208.243,540.858 z M228.962,555.89 C231.457,556.549 231.46,556.573 230.872,558.709 C230.228,561.035 229.608,563.369 229.02,565.709 C228.922,566.093 229.037,566.53 229.054,567.023 C229.45,566.913 229.719,566.921 229.795,566.804 C231.507,564.07 232.988,561.217 234.044,558.16 C234.818,555.928 234.596,555.504 232.271,554.611 C231.738,554.405 231.206,554.18 230.651,554.025 C229.565,553.719 229.246,554.014 228.766,555.659 C228.831,555.739 228.884,555.869 228.962,555.89 z M153.919,603.715 C153.518,603.33 153.028,603.024 152.545,602.74 C152.384,602.647 152.023,602.649 151.918,602.76 C151.709,602.986 151.45,603.357 151.508,603.595 C151.638,604.119 151.82,604.79 152.215,605.066 C154.034,606.332 155.261,608.127 156.682,609.754 C156.889,609.99 157.199,610.135 158.066,610.758 C156.879,607.721 155.773,605.489 153.919,603.715 z" fill="#005434"/>
    <path d="M166.85,593.846 C168.462,592.081 170.525,590.606 172.368,588.896 C173.121,588.197 173.812,587.417 174.431,586.597 C174.675,586.271 174.7,585.743 174.729,585.301 C174.764,584.758 173.946,584.267 173.459,584.498 C173.253,584.596 173.019,584.67 172.854,584.817 C168.551,588.652 163.765,591.967 160.19,596.583 C159.772,597.123 159.322,597.667 159.029,598.274 C158.597,599.159 159.395,600.247 160.39,600.065 C161.18,599.919 161.828,599.58 162.58,600.295 C162.854,600.557 163.684,600.431 164.164,600.24 C165.613,599.663 166.525,598.424 167.449,597.243 C168.275,596.186 168.214,595.952 167.145,594.638 C167.019,594.483 166.994,594.244 166.85,593.846 z" fill="#005434"/>
    <path d="M172.573,598.711 C172.658,598.498 172.845,598.265 172.805,598.08 C172.719,597.673 172.618,597.115 172.329,596.94 C172.017,596.752 171.476,596.886 171.053,596.971 C170.864,597.006 170.661,597.231 170.566,597.422 C169.692,599.129 168.136,600.113 166.676,601.225 C165.873,601.833 165.175,602.613 164.561,603.414 C164.378,603.654 164.506,604.364 164.744,604.622 C164.98,604.881 165.684,605.061 165.934,604.896 C168.501,603.226 171.325,601.801 172.573,598.711 z" fill="#005434"/>
    <path d="M187.049,578.353 C186.887,579.519 186.643,580.858 186.537,582.208 C186.491,582.777 186.821,583.395 187.508,583.354 C187.89,583.332 188.508,582.999 188.581,582.7 C189.064,580.721 189.451,578.715 189.798,576.706 C189.833,576.516 189.423,576.182 189.155,576.029 C189.018,575.951 188.649,576.057 188.537,576.203 C188.059,576.823 187.637,577.491 187.049,578.353 z" fill="#005434"/>
    <path d="M180.398,578.38 C180.622,578.729 180.811,579.417 181.196,579.555 C182.632,580.068 185.539,578.56 186.082,577.152 C186.295,576.597 185.809,575.749 185.315,575.914 C183.814,576.42 182.34,577.013 180.871,577.609 C180.704,577.678 180.633,577.983 180.398,578.38 z" fill="#005434"/>
    <path d="M175.428,591.287 C176.832,591.81 178.401,590.886 178.51,589.692 C178.553,589.226 177.891,588.525 177.428,588.57 C176.466,588.661 175.619,589.078 175.205,589.931 C175.028,590.299 175.355,590.911 175.428,591.287 z" fill="#005434"/>
    <path d="M214.448,581.655 C214.516,581.099 214.683,580.093 214.739,579.082 C214.751,578.823 214.444,578.35 214.23,578.315 C213.827,578.254 213.289,578.319 212.986,578.558 C212.656,578.812 212.545,579.33 212.314,579.724 C211.689,580.799 211.052,581.87 210.415,582.94 C210.244,583.23 209.919,583.506 209.909,583.799 C209.893,584.218 209.981,584.766 210.25,585.037 C210.506,585.297 211.097,585.445 211.461,585.347 C213.101,584.907 213.614,583.432 214.448,581.655 z" fill="#005434"/>
    <path d="M207.459,579.203 C207.197,579.755 207.779,580.674 208.417,580.702 C208.637,580.712 208.879,580.732 209.078,580.661 C210.435,580.196 211.403,579.076 211.286,578.031 C211.257,577.764 210.953,577.38 210.705,577.313 C209.55,577.006 208.086,577.898 207.459,579.203 z" fill="#005434"/>
    <path d="M198.214,581.31 C197.525,581.137 197.228,580.964 197.099,581.047 C196.445,581.473 195.789,581.922 195.23,582.458 C195.068,582.613 195.114,583.153 195.256,583.406 C195.396,583.651 195.791,583.907 196.06,583.892 C197.239,583.832 198.044,583.106 198.204,582.04 C198.254,581.698 198.216,581.342 198.214,581.31 z" fill="#005434"/>
    <path d="M196.597,587.963 C196.67,588.168 196.693,588.559 196.899,588.74 C197.121,588.932 197.556,589.061 197.826,588.981 C198.956,588.641 199.721,587.663 199.547,586.784 C199.496,586.524 199.149,586.175 198.892,586.13 C197.966,585.973 197.129,586.657 196.597,587.963 z" fill="#005434"/>
    <path d="M224.821,544.261 C224.148,545.943 223.398,547.705 222.764,549.506 C222.657,549.809 222.944,550.444 223.24,550.643 C223.548,550.85 224.184,550.878 224.498,550.689 C224.945,550.422 225.418,549.933 225.546,549.451 C225.899,548.137 226.142,546.785 226.293,545.431 C226.384,544.647 225.909,544.167 224.821,544.261 z" fill="#005434"/>
    <path d="M222.538,543.627 C221.908,543.275 221.14,543.53 220.433,544.327 C219.616,545.247 219.423,546.135 219.937,546.799 C220.06,546.955 220.323,547.105 220.508,547.091 C221.667,547.011 223.034,545.367 222.931,544.174 C222.917,543.982 222.676,543.81 222.538,543.627 z" fill="#005434"/>
    <path d="M208.534,559.242 C207.429,561.43 206.567,563.134 205.624,565.002 C205.923,565.245 206.22,565.665 206.585,565.735 C206.97,565.81 207.636,565.684 207.803,565.413 C208.699,563.955 209.592,562.454 209.341,560.626 C209.305,560.341 209.037,560.086 208.534,559.242 z" fill="#005434"/>
    <path d="M197.092,563.558 C196.374,563.33 195.993,563.061 195.764,563.158 C194.275,563.771 193.32,564.85 193.275,566.531 C193.264,566.808 193.499,567.217 193.736,567.341 C193.975,567.467 194.398,567.394 194.673,567.262 C194.964,567.123 195.246,566.854 195.415,566.571 C195.94,565.7 196.41,564.795 197.092,563.558 z" fill="#005434"/>
    <path d="M198.936,566.664 C197.731,566.813 196.959,567.622 196.352,568.595 C196.208,568.823 196.256,569.29 196.399,569.545 C196.534,569.787 196.927,570.066 197.172,570.037 C198.607,569.854 199.466,568.752 199.416,567.199 C199.411,567.033 199.133,566.875 198.936,566.664 z" fill="#005434"/>
    <path d="M203.334,560.739 C203.755,560.791 204.054,560.924 204.179,560.828 C204.883,560.3 205.593,559.759 206.203,559.131 C206.565,558.758 206.078,557.891 205.559,557.875 C204.388,557.837 203.313,558.521 203.007,559.655 C202.916,559.986 203.231,560.429 203.334,560.739 z" fill="#005434"/>
    <path d="M200.304,544.799 C200.012,545.527 199.631,546.238 199.47,546.996 C199.399,547.335 199.671,547.927 199.971,548.112 C200.283,548.303 200.937,548.312 201.224,548.102 C203.053,546.762 203.678,544.89 203.307,542.69 C203.259,542.411 202.905,541.992 202.671,541.979 C202.279,541.956 201.668,542.088 201.51,542.363 C201.062,543.139 200.797,544.02 200.46,544.862 C200.409,544.841 200.357,544.82 200.304,544.799 z" fill="#005434"/>
    <path d="M194.94,544.352 C194.447,544.39 193.907,544.271 193.611,544.486 C192.423,545.346 191.277,546.273 190.2,547.268 C189.982,547.473 189.974,548.195 190.168,548.475 C190.372,548.771 191.045,549.072 191.312,548.944 C192.956,548.16 194.397,547.087 195.214,545.391 C195.312,545.18 195.065,544.799 194.94,544.352 z" fill="#005434"/>
    <path d="M191.865,541.822 C190.87,541.631 189.835,542.262 189.562,543.057 C189.415,543.485 189.906,544.232 190.394,544.324 C191.237,544.482 192.07,543.863 192.218,542.826 C192.27,542.483 191.967,542.088 191.865,541.822 z" fill="#005434"/>
    <path d="M180.32,563.092 C180.477,563.33 180.635,563.856 180.958,563.996 C181.446,564.207 182.185,564.39 182.58,564.164 C184.383,563.137 185.936,561.774 187.029,559.985 C187.196,559.709 187.069,559.024 186.825,558.787 C186.561,558.53 185.834,558.348 185.6,558.523 C183.871,559.815 182.21,561.201 180.535,562.567 C180.459,562.632 180.446,562.777 180.32,563.092 z" fill="#005434"/>
    <path d="M183.41,556.561 C182.94,556.459 182.709,556.338 182.508,556.377 C181.095,556.654 180.014,557.445 179.369,558.716 C179.208,559.035 179.283,559.672 179.511,559.932 C179.745,560.2 180.455,560.412 180.688,560.253 C181.705,559.56 182.681,558.779 183.536,557.897 C183.751,557.678 183.457,556.964 183.41,556.561 z" fill="#005434"/>
    <path d="M218.371,563.74 C218.463,564.11 218.448,564.506 218.641,564.71 C218.837,564.918 219.274,565.084 219.537,565.015 C221.01,564.626 222.279,563.868 223.176,562.611 C223.339,562.382 223.302,561.959 223.241,561.649 C223.208,561.494 222.9,561.271 222.736,561.285 C220.926,561.442 219.545,562.357 218.371,563.74 z" fill="#005434"/>
    <path d="M225.384,563.878 C224.944,563.903 224.418,563.774 224.142,563.979 C222.782,564.983 222.263,566.482 222.061,568.086 C222.032,568.324 222.371,568.752 222.626,568.844 C222.884,568.935 223.337,568.814 223.563,568.618 C224.731,567.602 225.142,566.498 225.384,563.878 z" fill="#005434"/>
    <path d="M182.374,541.306 C181.293,540.537 180.75,540.996 180.278,541.493 C179.733,542.064 179.132,542.011 178.413,541.983 C177.789,541.958 177.031,542.186 176.535,542.569 C175.242,543.562 174.308,544.873 174.056,546.527 C173.998,546.902 174.221,547.457 174.507,547.718 C174.959,548.132 175.603,548.098 176.055,547.651 C176.532,547.178 176.911,546.605 177.472,545.899 C177.928,546.293 178.299,546.672 178.726,546.97 C179.286,547.36 179.94,547.233 180.189,546.677 C180.976,544.932 181.643,543.13 182.374,541.306 z" fill="#005434"/>
    <path d="M200.128,605.283 C200.235,605.325 200.34,605.381 200.45,605.408 C201.021,605.556 201.674,605.668 201.882,604.975 C201.987,604.633 201.796,604.003 201.518,603.776 C200.453,602.906 199.311,602.124 198.166,601.355 C197.9,601.174 197.507,601.072 197.189,601.103 C196.887,601.132 196.497,601.315 196.343,601.555 C196.19,601.792 196.149,602.28 196.293,602.498 C197.228,603.884 198.619,604.673 200.128,605.283 z" fill="#005434"/>
    <path d="M198.89,606.679 C198.305,605.051 197.214,604.643 195.995,604.322 C195.488,605.575 196.098,606.289 196.936,606.68 C197.428,606.91 198.132,606.697 198.89,606.679 z" fill="#005434"/>
    <path d="M165.45,563.182 C165.407,563.353 165.218,563.697 165.265,564.005 C165.328,564.418 165.473,564.938 165.77,565.166 C166.251,565.535 166.917,565.454 167.277,564.932 C168.177,563.629 169.004,562.277 169.838,560.929 C169.95,560.75 170,560.48 169.963,560.272 C169.905,559.955 169.826,559.482 169.615,559.387 C169.26,559.225 168.675,559.129 168.392,559.318 C167.034,560.222 166.171,561.557 165.45,563.182 z" fill="#005434"/>
    <path d="M168.607,569.574 C170.228,568.506 170.547,567.299 170.764,566.073 C170.81,565.819 170.531,565.399 170.284,565.23 C170.046,565.069 169.577,564.996 169.341,565.126 C168.375,565.645 167.807,566.553 167.784,567.606 C167.771,568.183 168.253,568.77 168.607,569.574 z" fill="#005434"/>
    <path d="M207.982,598.433 C208.447,598.917 208.794,599.594 209.154,599.601 C211.116,599.645 213.018,599.264 214.757,598.29 C214.949,598.181 215.193,598.011 215.238,597.826 C215.343,597.412 215.444,596.944 215.344,596.555 C215.28,596.322 214.834,596.181 214.548,596.022 C214.455,595.973 214.319,595.967 214.213,595.994 C212.114,596.505 210.018,597.022 207.982,598.433 z" fill="#005434"/>
    <path d="M205.308,596.701 C205.82,596.907 206.256,597.257 206.602,597.182 C207.366,597.023 208.094,596.666 208.811,596.334 C208.904,596.292 208.914,595.896 208.839,595.714 C208.766,595.526 208.545,595.273 208.383,595.268 C207.233,595.232 206.108,595.307 205.308,596.701 z" fill="#005434"/>
    <path d="M221.995,580.648 C221.77,581.381 221.539,581.915 221.473,582.467 C221.443,582.731 221.665,583.201 221.88,583.28 C222.262,583.417 222.901,583.512 223.129,583.301 C224.333,582.171 225.022,580.745 224.888,579.061 C224.859,578.723 224.4,578.223 224.066,578.158 C223.742,578.095 223.186,578.393 222.978,578.702 C222.539,579.352 222.258,580.108 221.995,580.648 z" fill="#005434"/>
    <g>
      <g>
        <path d="M6.589,26.051 C4.717,24.184 4.293,21.931 4.821,19.141 C5.218,19.53 5.466,19.716 5.645,19.957 C6.684,21.365 7.606,22.876 8.761,24.179 C10.24,25.844 10.914,27.707 10.823,29.894 C10.808,30.228 10.798,30.569 10.847,30.897 C10.924,31.397 11.373,31.745 11.846,31.718 C12.359,31.689 12.521,31.297 12.583,30.896 C12.706,30.107 12.773,29.308 12.852,28.613 C16.982,24.818 21.975,23.727 25.492,25.824 C25.395,26.393 25.366,27.007 25.182,27.571 C24.526,29.557 24.629,31.553 24.997,33.564 C25.033,33.763 25.053,33.963 25.082,34.165 C25.224,35.145 24.954,36.026 24.471,36.871 C24.078,37.555 23.346,37.538 22.738,37.786 C20.772,38.588 20.18,38.831 18.389,37.617 C17.772,37.199 16.863,37.17 16.075,37.078 C15.88,37.055 15.531,37.447 15.436,37.713 C15.303,38.086 15.6,38.355 15.966,38.411 C18.37,38.775 20.091,40.276 21.705,41.906 C22.602,42.812 23.37,43.846 24.195,44.823 C24.324,44.977 24.468,45.124 24.567,45.297 C24.634,45.414 24.636,45.568 24.707,45.867 C23.377,45.061 22.362,44.184 21.463,43.189 C20.629,42.266 19.63,41.573 18.534,41.068 C17.391,40.54 16.173,40.124 14.689,40.658 C14.863,42.114 13.765,42.713 12.794,43.465 C11.681,44.329 10.654,45.308 9.594,46.243 C9.247,46.547 8.914,46.868 8.462,47.282 C7.756,46.436 7.248,45.589 6.793,44.696 C6.088,43.309 5.305,41.976 4.038,40.998 C3.846,40.848 3.749,40.572 3.617,40.366 C4.053,39.565 4.751,39.133 5.343,38.592 C6.439,37.596 7.525,36.589 8.605,35.575 C9.053,35.155 9.432,34.683 9.465,33.99 C9.305,33.659 9.132,33.303 8.957,32.947 C8.753,32.526 8.549,32.106 8.342,31.683 C8.706,31.303 9.49,31.402 9.546,30.724 C9.591,30.201 9.585,29.621 9.4,29.144 C9.188,28.602 8.807,28.092 8.398,27.664 C7.844,27.081 7.16,26.621 6.589,26.051 z" fill="#00A66A"/>
        <path d="M39.155,33.04 C39.001,33.896 38.662,34.722 38.036,35.344 C37.162,35.624 36.4,35.267 35.636,35.044 C34.778,34.795 33.93,34.652 33.049,34.872 C31.609,35.232 30.181,35.62 28.925,36.469 C28.423,36.809 27.908,37.149 27.358,37.388 C27.039,37.525 26.635,37.466 26.022,37.512 C26.88,35.667 26.853,33.983 26.521,32.207 C26.283,30.928 26.167,29.535 26.759,28.133 C28.206,27.531 29.691,26.901 31.185,26.299 C32.144,25.914 33.14,25.793 34.16,26.024 C35.868,26.411 37.577,26.795 39.28,27.207 C39.519,27.264 39.724,27.468 39.957,27.613 C39.689,29.469 39.475,31.264 39.155,33.04 z" fill="#00A66A"/>
        <path d="M34.288,13.037 C34.476,11.619 34.65,10.299 34.815,9.052 C34.982,8.895 35.064,8.763 35.179,8.72 C37.253,7.932 39.3,7.047 41.421,6.411 C43.152,5.893 44.867,6.219 46.475,7.349 C46.431,8.089 46.41,8.822 46.341,9.552 C46.266,10.356 46.061,11.155 46.066,11.955 C46.077,13.308 45.627,14.438 44.723,15.478 C43.806,15.526 42.852,15.48 41.937,15.648 C40.953,15.827 40.01,16.213 39.044,16.488 C38.956,16.513 38.821,16.374 38.707,16.311 C38.697,16.178 38.663,16.04 38.684,15.912 C39.058,13.72 39.059,13.725 36.772,13.608 C36.304,13.584 35.827,13.557 35.37,13.457 C35.004,13.377 34.661,13.186 34.288,13.037 z" fill="#00A66A"/>
        <path d="M33.302,15.03 C34.475,14.78 35.685,14.949 36.893,15.518 C36.751,17.085 36.676,18.621 36.453,20.134 C36.238,21.599 35.837,23.026 34.471,24.192 C32.227,23.601 30.227,25.015 28.078,25.553 C27.544,24.553 27.544,24.553 25.669,23.468 C25.509,21.514 26.106,17.67 26.856,16.095 C29.004,16.064 31.14,15.492 33.302,15.03 z" fill="#00A66A"/>
        <path d="M32.805,11.291 C32.713,12.008 32.471,12.705 32.304,13.389 C30.579,13.877 29.026,14.541 27.264,14.317 C27.288,14.071 27.292,13.874 27.326,13.682 C27.36,13.485 27.454,13.294 27.463,13.097 C27.482,12.67 27.176,12.278 26.776,12.238 C26.445,12.204 26.106,12.234 25.772,12.238 C24.842,12.249 23.914,12.263 22.942,11.983 C22.82,10.933 22.684,9.941 22.599,8.945 C22.566,8.551 22.628,8.144 22.684,7.749 C22.797,6.938 23.214,6.359 24.054,6.218 C25.176,6.03 26.301,5.833 27.433,5.746 C28.97,5.627 30.512,5.598 32.054,5.551 C32.507,5.537 32.962,5.595 33.419,5.62 C33.212,7.574 33.043,9.437 32.805,11.291 z" fill="#00A66A"/>
        <path d="M17.967,23.375 C16.886,21.312 16.629,19.036 16.104,16.813 C18.401,13.824 21.393,13.299 25.006,14.334 C24.783,15.769 24.633,17.237 24.308,18.665 C23.987,20.076 24.226,21.601 23.625,22.789 C21.636,22.995 19.852,23.18 17.967,23.375 z" fill="#00A66A"/>
        <path d="M36.913,24.499 C37.742,22.744 38.4,21.062 38.234,19.2 C39.447,18.19 40.667,17.353 42.229,17.282 C43.565,17.222 44.905,17.263 46.321,17.259 C46.322,17.587 46.37,17.857 46.316,18.106 C46.036,19.421 45.762,20.74 45.427,22.042 C45.155,23.093 44.701,24.057 43.935,24.875 C43.443,25.399 42.927,25.676 42.201,25.765 C40.728,25.945 39.424,25.317 38.05,25.029 C37.686,24.951 37.355,24.71 36.913,24.499 z" fill="#00A66A"/>
        <path d="M16.317,13.925 C15.152,13.809 14.237,13.718 13.173,13.612 C12.237,12.074 12.224,11.725 12.768,10.411 C14.021,7.377 16.534,5.806 19.401,4.642 C19.767,4.493 20.186,4.423 20.582,4.416 C20.938,4.411 21.296,4.544 21.609,4.609 C21.339,5.846 20.959,6.941 20.892,8.055 C20.822,9.237 21.046,10.436 21.153,11.758 C19.438,12.509 17.484,12.713 16.317,13.925 z" fill="#00A66A"/>
        <path d="M30.146,40.791 C31.809,41.906 33.437,43.074 35.207,44.309 C34.885,44.623 34.657,44.954 34.341,45.132 C32.84,45.98 31.237,46.268 29.494,46.223 C28.316,46.192 27.414,45.883 26.638,45.051 C25.859,44.213 25.018,43.428 24.292,42.547 C23.626,41.741 22.855,40.98 22.487,39.938 C23.31,39.155 24.257,39.114 25.193,39.208 C26.949,39.386 28.656,39.792 30.146,40.791 z" fill="#00A66A"/>
        <path d="M16.125,24.035 C14.905,24.777 13.712,25.505 12.445,26.278 C11.851,25.418 11.313,24.58 10.716,23.787 C10.069,22.932 9.364,22.119 8.692,21.281 C8.567,21.126 8.489,20.935 8.38,20.765 C8.015,20.204 8.038,19.639 8.309,19.043 C9.329,16.802 11.389,15.585 13.932,15.72 C14.664,18.494 15.393,21.259 16.125,24.035 z" fill="#00A66A"/>
        <path d="M35.451,36.718 C37.653,37.401 39.888,37.889 42.29,37.81 C42.422,38.583 42.091,38.949 41.686,39.18 C40.87,39.646 40.046,40.148 39.16,40.43 C37.627,40.916 36.043,41.246 34.444,41.652 C33.588,41.044 32.739,40.496 31.956,39.867 C31.201,39.264 30.085,39.17 29.466,38.195 C30.496,37.439 31.575,37.089 32.668,36.745 C33.607,36.451 34.521,36.428 35.451,36.718 z" fill="#00A66A"/>
        <path d="M41.191,36.203 C40.783,36.137 40.335,36.063 39.713,35.962 C40.187,34.776 40.644,33.878 40.9,32.927 C41.162,31.964 41.164,30.934 41.395,29.959 C41.574,29.196 41.558,28.352 42.131,27.639 C43.324,27.439 44.524,27.083 45.792,27.151 C45.659,29.939 43.774,33.628 41.191,36.203 z" fill="#00A66A"/>
        <path d="M24.541,3.968 C24.388,3.55 24.231,3.12 24.075,2.691 C26.246,1.763 29.186,1.463 31.796,1.903 C31.81,2.085 31.861,2.283 31.833,2.47 C31.775,2.856 31.676,3.236 31.606,3.569 C29.918,4.005 27.25,4.148 24.541,3.968 z" fill="#00A66A"/>
        <path d="M7.561,13.176 C8.117,12.192 8.842,11.311 9.972,10.776 C10.738,11.819 10.895,12.981 11.063,14.107 C10.241,14.769 9.542,15.399 8.775,15.932 C7.975,16.486 7.643,17.571 6.639,17.897 C6.115,17.242 6.079,16.607 6.359,15.939 C6.747,15.012 7.07,14.046 7.561,13.176 z" fill="#00A66A"/>
        <path d="M35.156,6.335 C35.471,5.313 35.781,4.308 36.113,3.222 C37.408,2.607 38.757,2.196 40.31,2.877 C40.191,3.62 40.086,4.265 39.995,4.835 C38.024,5.845 36.301,6.381 35.156,6.335 z" fill="#00A66A"/>
        <path d="M47.238,15.101 C47.193,15.089 47.162,15.013 47.124,14.966 C47.404,14.007 47.59,13.835 48.223,14.013 C48.547,14.104 48.857,14.235 49.168,14.355 C50.524,14.876 50.653,15.123 50.202,16.425 C49.586,18.207 48.723,19.871 47.724,21.465 C47.68,21.533 47.523,21.529 47.292,21.593 C47.282,21.305 47.215,21.051 47.272,20.827 C47.615,19.462 47.977,18.101 48.352,16.745 C48.695,15.499 48.693,15.485 47.238,15.101 z" fill="#00A66A"/>
        <path d="M3.478,42.989 C4.559,44.024 5.204,45.325 5.897,47.096 C5.391,46.733 5.21,46.648 5.09,46.511 C4.261,45.562 3.545,44.515 2.485,43.777 C2.254,43.616 2.148,43.225 2.072,42.919 C2.039,42.78 2.19,42.564 2.311,42.432 C2.373,42.368 2.583,42.366 2.677,42.421 C2.959,42.586 3.244,42.765 3.478,42.989 z" fill="#00A66A"/>
      </g>
      <path d="M51.12,13.834 C51.992,14.283 52.067,14.527 51.87,15.457 C51.292,18.214 50.042,20.658 48.398,22.918 C48.042,23.404 47.662,23.872 47.329,24.303 C47.463,24.912 47.698,25.433 47.662,25.935 C47.562,27.411 47.502,28.904 46.894,30.299 C46.304,31.654 45.731,33.019 45.145,34.395 C45.882,35.702 45.959,36.146 45.278,37.335 C44.126,39.358 42.75,41.175 40.395,41.94 C39.625,42.189 38.863,42.462 38.096,42.719 C37.731,42.841 37.363,42.949 36.712,43.152 C37.356,43.41 37.725,43.533 38.072,43.704 C38.604,43.966 38.683,44.662 38.239,45.037 C38.137,45.124 38.031,45.213 37.912,45.27 C36.337,46.035 34.764,46.803 33.18,47.552 C32.332,47.953 31.476,48.34 30.604,48.684 C30.113,48.878 29.579,49.096 29.07,49.085 C28.135,49.065 27.19,48.947 26.273,48.757 C24.149,48.319 22.475,47.101 20.97,45.589 C20.116,44.732 19.19,43.947 18.272,43.156 C17.861,42.801 17.382,42.537 16.7,42.691 C15.416,43.645 14.014,44.591 12.725,45.672 C11.696,46.534 10.814,47.57 9.849,48.511 C9.465,48.884 9.052,49.236 8.618,49.552 C7.831,50.127 6.991,50.123 6.137,49.685 C5.282,49.248 4.583,48.627 3.963,47.898 C3.137,46.928 2.336,45.961 1.273,45.188 C-0.159,44.146 -0.369,42.34 0.572,40.856 C0.823,40.46 1.108,40.071 1.445,39.748 C2.559,38.675 3.703,37.631 4.839,36.579 C5.284,36.167 5.784,35.806 6.175,35.348 C6.601,34.85 7.283,34.544 7.424,33.752 C7.269,33.161 6.894,32.738 6.321,32.436 C5.546,32.028 4.795,31.573 4.03,31.143 C3.43,30.808 2.928,30.384 2.594,29.763 C2.11,28.866 2.433,28.147 3.426,27.994 C3.758,27.943 4.102,27.962 4.432,27.909 C4.781,27.853 5.195,28.241 5.537,27.706 C5.292,27.403 5.049,27.095 4.798,26.796 C3.445,25.178 2.78,23.338 2.802,21.21 C2.821,19.337 3.303,17.632 4.267,16.037 C4.576,15.525 4.815,14.965 5.04,14.408 C5.887,12.306 7.046,10.436 8.935,9.104 C9.373,8.795 9.79,8.39 10.281,8.239 C10.751,8.093 11.305,8.221 11.753,8.227 C12.351,7.476 12.788,6.664 13.453,6.139 C15.568,4.468 17.7,2.777 20.6,2.681 C20.962,2.668 21.447,2.491 21.652,2.221 C22.456,1.164 23.596,0.834 24.79,0.554 C27.711,-0.131 30.685,0.028 33.647,0 C33.763,-0.002 33.882,0.108 33.999,0.165 C34.558,0.697 33.636,1.432 34.109,1.894 C35.458,1.566 36.68,1.074 37.923,1.016 C39.497,0.942 41.086,1.221 42.646,1.346 C42.846,2.446 41.655,3.108 42.053,4.104 C45.772,4.764 47.02,5.198 48.491,6.352 C48.087,8.236 47.56,10.125 47.688,12.195 C48.933,12.786 50.042,13.28 51.12,13.834 z M6.552,26.051 C7.123,26.621 7.807,27.081 8.361,27.664 C8.77,28.092 9.151,28.602 9.363,29.144 C9.549,29.621 9.554,30.201 9.509,30.724 C9.453,31.402 8.669,31.303 8.305,31.683 C8.512,32.106 8.716,32.526 8.921,32.947 C9.095,33.303 9.268,33.659 9.428,33.99 C9.395,34.683 9.016,35.155 8.568,35.575 C7.488,36.589 6.402,37.596 5.306,38.592 C4.714,39.133 4.016,39.565 3.58,40.366 C3.712,40.572 3.809,40.848 4.001,40.998 C5.268,41.976 6.051,43.309 6.757,44.696 C7.211,45.589 7.719,46.436 8.425,47.282 C8.877,46.868 9.21,46.547 9.557,46.243 C10.617,45.308 11.644,44.329 12.758,43.465 C13.728,42.713 14.826,42.114 14.652,40.658 C16.136,40.124 17.354,40.54 18.497,41.068 C19.593,41.573 20.592,42.266 21.426,43.189 C22.325,44.184 23.34,45.061 24.67,45.867 C24.599,45.568 24.598,45.414 24.53,45.297 C24.431,45.124 24.287,44.977 24.158,44.823 C23.333,43.846 22.565,42.812 21.668,41.906 C20.054,40.276 18.333,38.775 15.929,38.411 C15.563,38.355 15.266,38.086 15.399,37.713 C15.494,37.447 15.844,37.055 16.038,37.078 C16.826,37.17 17.735,37.199 18.352,37.617 C20.144,38.831 20.735,38.588 22.701,37.786 C23.309,37.538 24.041,37.555 24.434,36.871 C24.917,36.026 25.187,35.145 25.045,34.165 C25.016,33.964 24.996,33.763 24.96,33.564 C24.592,31.553 24.489,29.557 25.145,27.571 C25.329,27.007 25.358,26.393 25.455,25.824 C21.938,23.727 16.945,24.818 12.815,28.613 C12.736,29.308 12.67,30.107 12.546,30.896 C12.484,31.297 12.322,31.689 11.809,31.718 C11.336,31.745 10.887,31.397 10.81,30.897 C10.761,30.569 10.771,30.228 10.786,29.894 C10.878,27.707 10.203,25.844 8.725,24.179 C7.569,22.876 6.647,21.365 5.608,19.957 C5.429,19.716 5.181,19.53 4.784,19.141 C4.256,21.931 4.68,24.184 6.552,26.051 z M39.118,33.04 C39.438,31.264 39.652,29.469 39.921,27.613 C39.687,27.468 39.483,27.264 39.244,27.207 C37.54,26.795 35.832,26.411 34.124,26.024 C33.103,25.793 32.107,25.914 31.148,26.299 C29.654,26.901 28.169,27.531 26.722,28.133 C26.131,29.535 26.246,30.928 26.485,32.207 C26.816,33.983 26.843,35.667 25.985,37.512 C26.598,37.466 27.002,37.525 27.321,37.388 C27.871,37.149 28.386,36.809 28.888,36.469 C30.144,35.62 31.572,35.232 33.012,34.872 C33.893,34.652 34.741,34.795 35.599,35.044 C36.363,35.267 37.125,35.624 37.999,35.344 C38.625,34.722 38.964,33.896 39.118,33.04 z M34.251,13.037 C34.624,13.186 34.967,13.377 35.333,13.457 C35.79,13.557 36.267,13.584 36.735,13.608 C39.022,13.725 39.021,13.72 38.648,15.912 C38.626,16.04 38.66,16.178 38.67,16.311 C38.784,16.374 38.919,16.513 39.007,16.488 C39.973,16.213 40.916,15.827 41.9,15.648 C42.815,15.48 43.769,15.526 44.686,15.478 C45.59,14.438 46.04,13.308 46.029,11.955 C46.024,11.155 46.229,10.356 46.304,9.552 C46.373,8.822 46.394,8.089 46.438,7.349 C44.83,6.219 43.116,5.893 41.384,6.411 C39.263,7.047 37.217,7.932 35.142,8.72 C35.027,8.763 34.945,8.895 34.778,9.052 C34.613,10.299 34.439,11.619 34.251,13.037 z M33.265,15.03 C31.103,15.492 28.967,16.064 26.819,16.095 C26.069,17.67 25.472,21.514 25.633,23.468 C27.507,24.553 27.507,24.553 28.042,25.553 C30.19,25.015 32.19,23.601 34.434,24.192 C35.8,23.026 36.201,21.599 36.416,20.134 C36.639,18.621 36.714,17.085 36.856,15.518 C35.648,14.949 34.438,14.78 33.265,15.03 z M32.768,11.291 C33.006,9.437 33.175,7.574 33.382,5.62 C32.925,5.595 32.47,5.537 32.017,5.551 C30.476,5.598 28.933,5.627 27.396,5.746 C26.264,5.833 25.139,6.03 24.017,6.218 C23.177,6.359 22.76,6.938 22.647,7.749 C22.592,8.144 22.529,8.551 22.562,8.945 C22.647,9.941 22.783,10.933 22.905,11.983 C23.877,12.263 24.805,12.249 25.735,12.238 C26.069,12.234 26.408,12.204 26.739,12.238 C27.139,12.278 27.446,12.67 27.426,13.097 C27.417,13.294 27.323,13.485 27.289,13.682 C27.255,13.874 27.251,14.071 27.227,14.317 C28.989,14.541 30.542,13.877 32.267,13.389 C32.434,12.705 32.676,12.008 32.768,11.291 z M17.931,23.375 C19.815,23.18 21.599,22.995 23.588,22.789 C24.189,21.601 23.95,20.076 24.272,18.665 C24.596,17.237 24.746,15.769 24.97,14.334 C21.356,13.299 18.364,13.824 16.067,16.813 C16.592,19.036 16.849,21.312 17.931,23.375 z M36.876,24.499 C37.318,24.71 37.649,24.951 38.013,25.029 C39.387,25.317 40.691,25.945 42.164,25.765 C42.89,25.676 43.406,25.399 43.898,24.875 C44.664,24.057 45.118,23.093 45.39,22.042 C45.725,20.74 45.999,19.421 46.279,18.106 C46.333,17.857 46.285,17.587 46.284,17.259 C44.868,17.263 43.528,17.222 42.192,17.282 C40.63,17.353 39.41,18.19 38.197,19.2 C38.363,21.062 37.705,22.744 36.876,24.499 z M16.28,13.925 C17.447,12.713 19.401,12.509 21.116,11.758 C21.009,10.436 20.785,9.237 20.856,8.055 C20.922,6.941 21.302,5.846 21.572,4.609 C21.259,4.544 20.901,4.411 20.545,4.416 C20.149,4.423 19.73,4.493 19.364,4.642 C16.497,5.806 13.984,7.377 12.731,10.411 C12.187,11.725 12.2,12.074 13.137,13.612 C14.2,13.718 15.115,13.809 16.28,13.925 z M30.109,40.791 C28.619,39.792 26.912,39.386 25.156,39.208 C24.22,39.114 23.273,39.155 22.45,39.938 C22.818,40.98 23.589,41.741 24.255,42.547 C24.981,43.428 25.822,44.213 26.601,45.051 C27.377,45.883 28.279,46.192 29.457,46.223 C31.2,46.268 32.803,45.98 34.304,45.132 C34.62,44.954 34.848,44.623 35.17,44.309 C33.4,43.074 31.772,41.906 30.109,40.791 z M16.088,24.035 C15.356,21.259 14.627,18.494 13.895,15.72 C11.352,15.585 9.293,16.802 8.272,19.043 C8.002,19.639 7.978,20.204 8.343,20.765 C8.452,20.935 8.53,21.126 8.655,21.281 C9.327,22.119 10.033,22.932 10.679,23.787 C11.276,24.58 11.814,25.418 12.408,26.278 C13.675,25.505 14.868,24.777 16.088,24.035 z M35.414,36.718 C34.484,36.428 33.57,36.451 32.631,36.745 C31.538,37.089 30.459,37.439 29.429,38.195 C30.048,39.17 31.164,39.264 31.919,39.867 C32.702,40.496 33.551,41.045 34.407,41.652 C36.007,41.246 37.59,40.916 39.123,40.43 C40.009,40.148 40.833,39.646 41.649,39.18 C42.054,38.949 42.385,38.583 42.253,37.81 C39.851,37.889 37.617,37.401 35.414,36.718 z M41.154,36.203 C43.737,33.628 45.622,29.939 45.755,27.151 C44.487,27.083 43.287,27.439 42.094,27.639 C41.521,28.352 41.538,29.196 41.358,29.959 C41.127,30.934 41.125,31.964 40.863,32.927 C40.607,33.878 40.15,34.776 39.676,35.962 C40.298,36.063 40.746,36.137 41.154,36.203 z M24.504,3.968 C27.213,4.148 29.881,4.005 31.569,3.569 C31.639,3.236 31.739,2.856 31.796,2.47 C31.824,2.283 31.773,2.085 31.759,1.903 C29.149,1.463 26.209,1.763 24.038,2.691 C24.194,3.12 24.351,3.55 24.504,3.968 z M7.525,13.176 C7.034,14.046 6.71,15.012 6.322,15.939 C6.042,16.607 6.078,17.242 6.602,17.897 C7.606,17.571 7.939,16.486 8.739,15.932 C9.505,15.399 10.205,14.769 11.026,14.107 C10.858,12.981 10.701,11.819 9.935,10.776 C8.805,11.311 8.08,12.192 7.525,13.176 z M35.12,6.335 C36.264,6.381 37.987,5.845 39.958,4.835 C40.049,4.265 40.154,3.62 40.273,2.877 C38.72,2.196 37.371,2.607 36.077,3.222 C35.744,4.308 35.434,5.313 35.12,6.335 z M47.202,15.101 C48.656,15.485 48.658,15.499 48.315,16.745 C47.94,18.101 47.578,19.462 47.235,20.827 C47.178,21.051 47.245,21.305 47.255,21.593 C47.486,21.529 47.643,21.533 47.687,21.465 C48.686,19.871 49.549,18.207 50.165,16.425 C50.616,15.123 50.487,14.876 49.131,14.355 C48.82,14.235 48.51,14.104 48.186,14.013 C47.553,13.835 47.367,14.007 47.087,14.966 C47.125,15.013 47.156,15.089 47.202,15.101 z M3.441,42.989 C3.208,42.765 2.922,42.586 2.64,42.421 C2.546,42.366 2.336,42.368 2.275,42.432 C2.153,42.564 2.002,42.78 2.035,42.919 C2.111,43.225 2.217,43.616 2.448,43.777 C3.508,44.515 4.224,45.562 5.053,46.511 C5.173,46.648 5.354,46.733 5.86,47.096 C5.167,45.325 4.523,44.024 3.441,42.989 z" fill="#005434"/>
      <path d="M10.982,37.234 C11.922,36.205 13.125,35.345 14.2,34.348 C14.639,33.94 15.042,33.485 15.403,33.007 C15.545,32.817 15.56,32.509 15.576,32.251 C15.597,31.935 15.12,31.648 14.836,31.783 C14.716,31.84 14.579,31.883 14.483,31.969 C11.974,34.206 9.183,36.139 7.098,38.83 C6.854,39.145 6.592,39.462 6.421,39.816 C6.169,40.332 6.635,40.967 7.215,40.861 C7.676,40.776 8.053,40.578 8.492,40.995 C8.652,41.148 9.136,41.074 9.416,40.963 C10.261,40.626 10.792,39.904 11.331,39.215 C11.813,38.599 11.777,38.462 11.154,37.696 C11.08,37.606 11.066,37.466 10.982,37.234 z" fill="#005434"/>
      <path d="M14.319,40.071 C14.369,39.947 14.478,39.811 14.454,39.703 C14.404,39.466 14.345,39.141 14.177,39.039 C13.995,38.929 13.679,39.007 13.433,39.057 C13.323,39.077 13.204,39.208 13.149,39.32 C12.639,40.315 11.732,40.889 10.88,41.537 C10.412,41.892 10.005,42.347 9.647,42.814 C9.54,42.954 9.615,43.368 9.754,43.518 C9.891,43.669 10.302,43.774 10.448,43.678 C11.945,42.704 13.591,41.873 14.319,40.071 z" fill="#005434"/>
      <path d="M22.761,28.2 C22.666,28.88 22.524,29.661 22.462,30.448 C22.435,30.78 22.628,31.14 23.028,31.116 C23.251,31.103 23.611,30.909 23.654,30.735 C23.936,29.581 24.161,28.411 24.364,27.239 C24.384,27.129 24.145,26.934 23.989,26.845 C23.909,26.799 23.694,26.861 23.628,26.946 C23.35,27.308 23.104,27.697 22.761,28.2 z" fill="#005434"/>
      <path d="M18.882,28.216 C19.013,28.419 19.123,28.82 19.348,28.901 C20.185,29.2 21.88,28.321 22.197,27.499 C22.321,27.176 22.038,26.681 21.749,26.778 C20.874,27.073 20.015,27.418 19.158,27.766 C19.061,27.806 19.019,27.984 18.882,28.216 z" fill="#005434"/>
      <path d="M15.984,35.742 C16.803,36.047 17.718,35.508 17.781,34.812 C17.806,34.54 17.42,34.131 17.15,34.158 C16.589,34.211 16.095,34.454 15.854,34.951 C15.751,35.166 15.941,35.523 15.984,35.742 z" fill="#005434"/>
      <path d="M38.738,30.125 C38.778,29.801 38.875,29.214 38.908,28.625 C38.915,28.474 38.736,28.198 38.611,28.178 C38.376,28.142 38.062,28.18 37.885,28.319 C37.693,28.467 37.628,28.77 37.494,28.999 C37.129,29.626 36.758,30.251 36.386,30.875 C36.286,31.044 36.097,31.205 36.091,31.376 C36.082,31.62 36.133,31.939 36.29,32.097 C36.439,32.249 36.784,32.335 36.996,32.278 C37.952,32.022 38.252,31.162 38.738,30.125 z" fill="#005434"/>
      <path d="M34.662,28.695 C34.51,29.017 34.849,29.553 35.221,29.57 C35.349,29.575 35.49,29.587 35.607,29.546 C36.398,29.275 36.962,28.621 36.894,28.012 C36.877,27.856 36.7,27.632 36.555,27.593 C35.882,27.414 35.028,27.934 34.662,28.695 z" fill="#005434"/>
      <path d="M29.271,29.924 C28.87,29.823 28.696,29.722 28.621,29.771 C28.24,30.019 27.857,30.281 27.531,30.594 C27.437,30.684 27.464,30.999 27.546,31.146 C27.628,31.289 27.858,31.439 28.015,31.43 C28.703,31.395 29.172,30.971 29.265,30.35 C29.295,30.15 29.272,29.943 29.271,29.924 z" fill="#005434"/>
      <path d="M28.328,33.804 C28.371,33.923 28.384,34.151 28.505,34.257 C28.634,34.369 28.888,34.444 29.045,34.397 C29.704,34.199 30.15,33.629 30.049,33.116 C30.019,32.965 29.817,32.761 29.667,32.735 C29.127,32.643 28.639,33.042 28.328,33.804 z" fill="#005434"/>
      <path d="M44.787,8.32 C44.394,9.3 43.957,10.328 43.587,11.378 C43.525,11.555 43.692,11.925 43.865,12.041 C44.044,12.162 44.415,12.178 44.598,12.068 C44.859,11.912 45.135,11.627 45.21,11.346 C45.415,10.58 45.557,9.791 45.645,9.002 C45.698,8.545 45.421,8.265 44.787,8.32 z" fill="#005434"/>
      <path d="M43.455,7.95 C43.088,7.745 42.64,7.893 42.228,8.358 C41.752,8.895 41.639,9.412 41.939,9.8 C42.01,9.891 42.164,9.978 42.272,9.97 C42.948,9.923 43.745,8.965 43.685,8.269 C43.676,8.157 43.536,8.057 43.455,7.95 z" fill="#005434"/>
      <path d="M35.289,17.056 C34.645,18.331 34.142,19.325 33.592,20.414 C33.767,20.556 33.94,20.801 34.153,20.842 C34.377,20.886 34.766,20.812 34.863,20.654 C35.385,19.804 35.906,18.929 35.76,17.863 C35.739,17.696 35.583,17.548 35.289,17.056 z" fill="#005434"/>
      <path d="M28.617,19.572 C28.198,19.439 27.976,19.283 27.843,19.339 C26.974,19.697 26.417,20.326 26.391,21.306 C26.385,21.468 26.522,21.706 26.66,21.778 C26.799,21.852 27.046,21.809 27.206,21.732 C27.376,21.651 27.541,21.494 27.639,21.329 C27.945,20.821 28.219,20.294 28.617,19.572 z" fill="#005434"/>
      <path d="M29.692,21.384 C28.99,21.47 28.539,21.942 28.186,22.51 C28.102,22.643 28.13,22.915 28.213,23.064 C28.292,23.205 28.521,23.367 28.664,23.35 C29.501,23.244 30.001,22.601 29.972,21.696 C29.969,21.599 29.807,21.507 29.692,21.384 z" fill="#005434"/>
      <path d="M32.257,17.928 C32.502,17.959 32.677,18.036 32.75,17.98 C33.16,17.672 33.574,17.357 33.93,16.991 C34.141,16.773 33.857,16.268 33.554,16.258 C32.872,16.236 32.245,16.635 32.066,17.296 C32.013,17.489 32.197,17.748 32.257,17.928 z" fill="#005434"/>
      <path d="M30.49,8.633 C30.32,9.058 30.098,9.472 30.004,9.914 C29.962,10.112 30.121,10.457 30.296,10.565 C30.478,10.677 30.859,10.682 31.027,10.559 C32.093,9.778 32.458,8.686 32.241,7.403 C32.213,7.241 32.007,6.996 31.87,6.989 C31.642,6.975 31.285,7.052 31.193,7.213 C30.932,7.665 30.778,8.179 30.581,8.67 C30.551,8.658 30.521,8.646 30.49,8.633 z" fill="#005434"/>
      <path d="M27.362,8.373 C27.075,8.395 26.76,8.325 26.587,8.451 C25.894,8.952 25.226,9.493 24.598,10.073 C24.471,10.193 24.466,10.614 24.579,10.777 C24.698,10.95 25.091,11.125 25.247,11.05 C26.205,10.593 27.046,9.968 27.522,8.979 C27.579,8.855 27.435,8.633 27.362,8.373 z" fill="#005434"/>
      <path d="M25.569,6.897 C24.989,6.786 24.385,7.154 24.226,7.618 C24.14,7.867 24.427,8.303 24.711,8.356 C25.203,8.448 25.689,8.088 25.775,7.483 C25.805,7.283 25.628,7.052 25.569,6.897 z" fill="#005434"/>
      <path d="M18.837,19.301 C18.928,19.439 19.02,19.746 19.209,19.828 C19.493,19.951 19.924,20.058 20.155,19.926 C21.206,19.327 22.112,18.532 22.749,17.489 C22.846,17.328 22.772,16.928 22.63,16.79 C22.476,16.64 22.052,16.534 21.916,16.636 C20.907,17.39 19.939,18.198 18.962,18.994 C18.918,19.032 18.91,19.117 18.837,19.301 z" fill="#005434"/>
      <path d="M20.639,15.492 C20.365,15.433 20.23,15.362 20.113,15.385 C19.289,15.546 18.658,16.008 18.282,16.749 C18.188,16.935 18.232,17.306 18.365,17.458 C18.501,17.614 18.915,17.738 19.051,17.645 C19.644,17.241 20.214,16.786 20.712,16.271 C20.837,16.144 20.666,15.727 20.639,15.492 z" fill="#005434"/>
      <path d="M41.026,19.678 C41.079,19.894 41.07,20.125 41.183,20.244 C41.297,20.365 41.552,20.462 41.706,20.422 C42.564,20.195 43.304,19.753 43.828,19.02 C43.923,18.887 43.901,18.64 43.865,18.459 C43.846,18.369 43.667,18.239 43.571,18.247 C42.515,18.338 41.71,18.872 41.026,19.678 z" fill="#005434"/>
      <path d="M45.115,19.759 C44.859,19.774 44.552,19.698 44.391,19.818 C43.598,20.403 43.295,21.277 43.177,22.213 C43.16,22.352 43.358,22.601 43.507,22.655 C43.657,22.708 43.921,22.637 44.053,22.523 C44.734,21.931 44.974,21.287 45.115,19.759 z" fill="#005434"/>
      <path d="M20.034,6.596 C19.404,6.148 19.087,6.416 18.812,6.705 C18.494,7.038 18.144,7.008 17.725,6.991 C17.361,6.977 16.919,7.11 16.63,7.333 C15.876,7.912 15.331,8.676 15.184,9.641 C15.15,9.86 15.28,10.183 15.447,10.335 C15.711,10.577 16.086,10.557 16.35,10.296 C16.628,10.021 16.849,9.686 17.176,9.275 C17.442,9.505 17.658,9.726 17.907,9.899 C18.234,10.127 18.615,10.053 18.76,9.728 C19.219,8.711 19.608,7.66 20.034,6.596 z" fill="#005434"/>
      <path d="M30.387,43.904 C30.45,43.928 30.511,43.961 30.575,43.977 C30.908,44.063 31.289,44.128 31.41,43.724 C31.471,43.525 31.36,43.157 31.198,43.025 C30.577,42.518 29.911,42.061 29.243,41.613 C29.088,41.508 28.859,41.448 28.674,41.466 C28.498,41.483 28.27,41.59 28.18,41.73 C28.091,41.868 28.067,42.152 28.151,42.28 C28.696,43.088 29.507,43.548 30.387,43.904 z" fill="#005434"/>
      <path d="M29.666,44.718 C29.324,43.768 28.688,43.53 27.977,43.343 C27.682,44.074 28.037,44.49 28.526,44.718 C28.813,44.852 29.224,44.728 29.666,44.718 z" fill="#005434"/>
      <path d="M10.166,19.353 C10.14,19.453 10.03,19.653 10.058,19.833 C10.094,20.074 10.179,20.377 10.352,20.51 C10.633,20.725 11.021,20.678 11.231,20.374 C11.756,19.614 12.238,18.825 12.724,18.039 C12.79,17.935 12.819,17.777 12.797,17.656 C12.763,17.471 12.717,17.195 12.594,17.14 C12.387,17.046 12.046,16.99 11.881,17.1 C11.089,17.627 10.586,18.405 10.166,19.353 z" fill="#005434"/>
      <path d="M12.006,23.08 C12.952,22.458 13.138,21.754 13.264,21.039 C13.291,20.891 13.128,20.646 12.984,20.547 C12.846,20.453 12.572,20.411 12.434,20.487 C11.871,20.789 11.54,21.319 11.527,21.933 C11.519,22.269 11.8,22.612 12.006,23.08 z" fill="#005434"/>
      <path d="M34.967,39.909 C35.239,40.191 35.441,40.586 35.651,40.59 C36.795,40.616 37.904,40.394 38.918,39.826 C39.03,39.762 39.172,39.663 39.199,39.555 C39.26,39.314 39.319,39.041 39.26,38.814 C39.223,38.678 38.963,38.596 38.796,38.503 C38.742,38.475 38.663,38.471 38.601,38.487 C37.377,38.785 36.155,39.086 34.967,39.909 z" fill="#005434"/>
      <path d="M33.408,38.899 C33.707,39.019 33.961,39.223 34.163,39.18 C34.608,39.087 35.033,38.879 35.451,38.685 C35.505,38.661 35.511,38.43 35.467,38.324 C35.425,38.214 35.296,38.066 35.201,38.064 C34.531,38.043 33.875,38.086 33.408,38.899 z" fill="#005434"/>
      <path d="M43.139,29.538 C43.008,29.966 42.873,30.277 42.834,30.599 C42.817,30.753 42.946,31.027 43.072,31.073 C43.295,31.153 43.667,31.208 43.8,31.085 C44.502,30.426 44.904,29.595 44.826,28.613 C44.809,28.416 44.541,28.124 44.347,28.086 C44.158,28.049 43.833,28.223 43.712,28.403 C43.456,28.782 43.292,29.223 43.139,29.538 z" fill="#005434"/>
    </g>
    <g>
      <path d="M292.708,38.755 C291.657,38.163 291.591,37.112 291.986,25.811 C292.248,17.007 292.577,13.262 293.168,12.671 C293.694,12.145 295.665,11.751 297.965,11.685 C301.381,11.62 302.235,11.817 304.338,13.459 C305.717,14.445 307.031,16.022 307.36,16.876 C308.017,18.65 307.294,23.84 306.177,25.22 C305.652,25.877 305.98,27.52 307.557,31.593 L309.66,37.112 L309.988,26.206 C310.185,19.438 310.579,14.971 311.039,14.511 C311.433,14.116 313.076,13.854 314.653,13.985 L317.544,14.182 L317.741,25.811 C317.872,37.178 317.872,37.441 316.493,38.229 C315.704,38.623 313.799,38.82 312.222,38.623 C310.711,38.492 309.134,38.623 308.805,38.952 C308.477,39.28 307.031,39.477 305.652,39.346 C303.155,39.149 303.089,39.083 301.118,34.287 L299.147,29.425 L298.95,33.564 C298.819,35.93 298.424,38.163 298.03,38.623 C297.242,39.609 294.351,39.74 292.708,38.755 z M301.903,19.886 C300.877,16.808 297.116,16.295 297.116,19.202 C297.116,20.741 298.313,21.937 299.851,21.937 C301.39,21.937 302.245,21.082 301.903,19.886 z" fill="#00A66A"/>
      <path d="M391.064,39.018 C390.276,38.886 388.502,37.769 387.122,36.587 L384.626,34.418 L386.597,32.053 C388.765,29.294 388.962,29.228 391.196,30.673 C394.087,32.579 393.693,31.068 390.473,27.848 C384.231,21.541 383.377,18.19 387.057,14.314 C389.882,11.291 393.101,10.634 396.518,12.277 C399.212,13.657 399.671,14.708 399.014,18.256 C398.489,21.081 397.241,21.606 394.941,19.767 C391.656,17.204 392.51,19.701 396.321,23.709 C399.803,27.323 400,27.717 400,30.87 C400,35.207 399.146,37.244 396.781,38.492 C394.81,39.477 393.824,39.543 391.064,39.018 z" fill="#00A66A"/>
      <path d="M276.283,38.361 C275.56,37.178 275.494,14.576 276.217,13.854 C276.677,13.394 279.239,13.197 283.116,13.328 L289.292,13.525 L289.489,16.35 C289.752,20.161 288.766,21.344 285.547,20.818 C283.379,20.49 283.05,20.555 283.05,21.672 C283.05,22.789 283.576,22.986 286.204,23.183 L289.292,23.38 L289.292,26.666 L289.292,29.951 L286.204,30.148 L283.116,30.345 L282.919,34.418 L282.722,38.492 L279.634,38.689 C277.991,38.82 276.48,38.623 276.283,38.361 z" fill="#00A66A"/>
      <path d="M322.077,38.163 C320.697,37.638 320.632,37.047 320.172,26.074 C319.778,16.745 319.843,14.314 320.566,13.459 C321.354,12.54 322.406,12.408 327.662,12.802 C331.078,13.065 334.101,13.394 334.364,13.591 C335.218,14.116 335.086,18.716 334.166,19.635 C333.706,20.095 331.933,20.424 330.224,20.424 C327.925,20.424 327.071,20.687 327.071,21.344 C327.071,21.935 327.859,22.395 329.239,22.526 C331.276,22.723 331.341,22.855 331.538,25.877 C331.735,28.899 331.67,29.097 329.764,29.819 C326.742,30.936 327.268,31.528 331.538,31.725 C335.021,31.922 335.283,32.053 335.48,33.63 C335.612,34.55 335.349,36.061 335.021,37.047 C334.364,38.755 334.232,38.82 328.91,38.755 C325.888,38.755 322.8,38.492 322.077,38.163 z" fill="#00A66A"/>
      <path d="M337.649,37.901 C337.057,37.244 336.992,33.827 337.254,24.957 C337.452,18.321 337.846,12.671 338.109,12.474 C338.371,12.211 339.948,11.817 341.591,11.554 L344.613,11.094 L349.344,18.124 L354.008,25.154 L354.008,18.978 C354.008,12.145 354.731,10.569 358.082,10.569 C360.973,10.569 361.827,12.277 361.433,17.467 C361.301,20.03 360.907,25.746 360.71,30.279 L360.25,38.492 L357.031,38.492 L353.746,38.492 L350.263,32.579 C348.292,29.359 346.453,25.943 346.059,25.089 C345.007,22.526 344.679,23.906 344.547,31.396 L344.482,38.492 L341.459,38.689 C339.423,38.82 338.174,38.558 337.649,37.901 z" fill="#00A66A"/>
      <path d="M364.652,38.032 C364.127,37.506 363.864,33.696 363.864,25.22 L363.864,13.197 L365.572,12.54 C371.025,10.437 378.778,13.065 382.326,18.256 C389.028,27.98 381.932,38.82 368.791,38.82 C366.952,38.82 365.112,38.492 364.652,38.032 z M376.084,29.556 C377.333,28.571 377.793,25.483 377.07,23.512 C376.479,21.935 372.931,19.11 371.617,19.11 C371.288,19.11 371.091,21.804 371.091,25.089 L371.091,31.133 L373.194,30.673 C374.31,30.476 375.624,29.951 376.084,29.556 z" fill="#00A66A"/>
    </g>
    <g>
      <path d="M190.193,36.194 C189.538,34.623 188.622,32.201 188.098,30.761 L187.181,28.142 L186.854,33.052 L186.527,37.962 L184.039,38.158 C179.784,38.485 179.719,38.289 180.111,25.72 C180.242,19.567 180.701,13.871 180.962,13.02 C181.682,11.122 183.974,10.467 188.032,11.056 C190.52,11.384 191.567,11.973 193.597,14.068 C195.953,16.555 196.084,16.948 195.692,19.501 C195.43,21.007 194.906,23.036 194.448,23.953 C193.728,25.393 193.924,26.309 195.822,31.35 C198.376,37.962 198.114,38.944 193.924,38.944 C191.567,38.944 191.306,38.747 190.193,36.194 z M189.946,19.225 C188.923,16.159 185.176,15.648 185.176,18.543 C185.176,20.077 186.368,21.269 187.901,21.269 C189.435,21.269 190.286,20.418 189.946,19.225 z" fill="#00A66A"/>
      <path d="M209.242,38.289 C206.558,37.634 202.893,34.296 201.125,30.826 C200.078,28.731 199.881,27.422 200.143,24.084 C201.125,11.515 215.2,6.736 221.811,16.752 C223.775,19.697 225.15,26.047 224.561,29.321 C224.037,32.07 221.026,35.867 218.276,37.307 C215.854,38.551 211.926,39.009 209.242,38.289 z M216.312,29.321 C219.389,25.393 214.676,18.061 209.897,19.567 C207.148,20.483 206.362,25.524 208.457,28.993 C209.57,30.761 210.093,31.088 212.319,31.088 C214.349,31.088 215.2,30.695 216.312,29.321 z" fill="#00A66A"/>
      <path d="M240.927,38.158 C240.73,37.7 240.141,35.147 239.552,32.594 C238.897,29.975 238.177,27.946 237.915,28.142 C237.588,28.339 236.999,30.172 236.541,32.266 C235.297,38.093 235.035,38.42 231.5,38.158 C229.012,38.027 228.358,37.7 228.227,36.652 C228.161,35.932 229.274,31.415 230.714,26.571 C232.155,21.727 233.333,17.014 233.333,16.032 C233.333,13.74 235.1,12.169 237.915,11.973 C240.141,11.776 240.141,11.776 242.105,17.144 C243.218,20.09 244.331,22.709 244.527,22.905 C244.789,23.102 245.771,20.941 246.753,18.061 C247.8,14.919 248.979,12.497 249.699,12.104 C251.401,11.187 255.328,11.318 256.114,12.3 C256.507,12.693 257.882,18.192 259.191,24.411 C261.744,36.718 261.744,37.176 258.143,37.962 C255.328,38.616 254.477,37.503 253.234,31.677 C252.579,28.862 251.859,26.506 251.663,26.506 C251.204,26.506 249.502,31.481 248.651,35.343 C247.997,38.289 247.211,38.944 244.003,38.944 C242.301,38.944 241.058,38.616 240.927,38.158 z" fill="#00A66A"/>
      <path d="M161.782,37.831 C161.585,37.503 161.389,31.874 161.258,25.196 L160.996,13.086 L163.615,12.693 C165.055,12.431 168.132,12.431 170.488,12.693 L174.743,13.086 L174.743,16.359 L174.743,19.632 L171.667,19.828 C169.441,19.959 168.524,20.287 168.524,21.007 C168.524,21.661 169.31,21.923 171.012,21.923 C174.089,21.923 175.071,22.84 175.071,25.851 C175.071,28.862 174.089,29.779 171.012,29.779 L168.524,29.779 L168.524,33.379 C168.524,36.194 168.263,37.045 167.281,37.634 C165.775,38.42 162.174,38.551 161.782,37.831 z" fill="#00A66A"/>
    </g>
    <g>
      <path d="M83.377,37.864 C81.687,37.214 78.113,33.509 76.813,31.04 C75.124,27.725 75.189,22.006 76.943,18.367 C78.958,14.143 82.922,11.673 87.666,11.673 C91.826,11.673 94.555,12.973 96.83,16.092 C98.649,18.562 100.469,25.646 100.014,28.505 C99.104,34.094 93.71,38.383 87.536,38.253 C85.782,38.253 83.897,38.059 83.377,37.864 z M91.241,29.935 C94.295,27.465 92.216,21.031 87.861,19.537 C86.107,18.952 85.717,19.017 84.287,20.447 C82.467,22.266 82.207,25.646 83.702,28.57 C85.197,31.43 88.641,32.08 91.241,29.935 z" fill="#00A66A"/>
      <path d="M108.723,37.604 C106.318,36.629 104.239,34.419 102.484,31.04 C99.949,26.036 100.664,19.992 104.303,15.832 C107.033,12.713 109.308,11.673 113.467,11.673 C116.326,11.673 117.496,11.998 119.641,13.623 C125.555,17.912 127.439,28.115 123.345,33.509 C120.226,37.539 113.402,39.488 108.723,37.604 z M116.846,29.545 C118.796,27.66 118.861,26.556 117.106,22.981 C116.261,21.096 115.157,19.992 113.857,19.537 C111.387,18.692 110.217,19.147 109.048,21.486 C105.798,27.79 112.102,34.354 116.846,29.545 z" fill="#00A66A"/>
      <path d="M61.086,37.214 C60.501,36.304 60.306,13.948 60.826,13.103 C61.411,12.258 69.405,12.063 72.329,12.908 C73.759,13.298 73.954,13.688 73.954,16.547 L73.954,19.797 L70.899,19.992 C68.69,20.122 67.78,20.447 67.78,21.161 C67.78,21.811 68.56,22.071 70.314,22.071 C73.434,22.071 74.409,23.176 74.149,26.426 C73.954,28.895 73.954,28.895 70.899,29.09 L67.845,29.285 L67.65,33.314 L67.455,37.344 L64.4,37.539 C62.776,37.669 61.281,37.474 61.086,37.214 z" fill="#00A66A"/>
      <path d="M128.284,36.499 C127.959,35.849 127.894,30.65 128.089,23.696 L128.544,11.998 L132.769,11.803 C138.747,11.543 140.957,12.063 143.817,14.663 C147.651,18.172 149.276,21.941 148.691,26.426 C147.846,33.314 141.802,37.669 133.028,37.669 C129.779,37.669 128.804,37.409 128.284,36.499 z M139.787,29.22 C139.917,29.22 140.437,28.18 140.957,26.945 C141.802,24.866 141.802,24.411 140.892,22.461 C139.982,20.512 137.643,18.822 136.018,18.822 C135.628,18.822 135.368,21.356 135.368,24.606 L135.368,30.455 L137.448,29.805 C138.617,29.48 139.657,29.22 139.787,29.22 z" fill="#00A66A"/>
    </g>
  </g>
</svg>
