<?xml version="1.0" encoding="UTF-8"?>
<!DOCTYPE svg PUBLIC "-//W3C//DTD SVG 1.1//EN" "http://www.w3.org/Graphics/SVG/1.1/DTD/svg11.dtd">
<svg version="1.1" xmlns="http://www.w3.org/2000/svg" xmlns:xlink="http://www.w3.org/1999/xlink" x="0" y="0" width="100" height="5" viewBox="0, 0, 100, 5">
  <g id="Background">
    <rect x="0" y="0" width="100" height="5" fill="#FFFFFF"/>
  </g>
  <g id="Background"/>
  <g id="Layer_1">
    <path d="M100,2.5 L100,5 L0,5 L0,2.5 L100,2.5 z" fill="#00A669"/>
    <path d="M100,0 L100,2.5 L0,2.5 L0,0 L100,0 z" fill="#005434"/>
    <path d="M100,5 L0,5 L0.002,3.605 C0.008,3.834 0.011,4.068 0.252,4.222 C0.458,4.298 0.678,4.311 0.896,4.329 C2.144,4.391 3.411,4.162 4.637,4.536 C6.123,4.608 7.608,4.685 9.092,4.495 C9.553,4.259 10.059,4.575 10.522,4.392 C11.745,4.31 12.972,4.281 14.192,4.159 C15.189,4.024 16.202,4.086 17.199,3.953 C18.178,3.822 19.165,4.041 20.144,3.902 C20.8,3.798 21.486,3.674 22.122,3.744 C24.137,3.965 26.11,3.731 28.089,3.478 C28.662,3.44 29.242,3.456 29.791,3.259 C30.033,3.172 30.29,3.194 30.543,3.232 C31.923,3.445 33.312,3.589 34.706,3.706 C36.793,4.016 38.827,3.591 40.875,3.348 C41.653,3.287 42.435,3.367 43.214,3.291 C44.564,3.037 45.888,3.285 47.217,3.459 C47.302,3.479 47.392,3.454 47.469,3.472 C47.516,3.484 47.43,3.497 47.427,3.522 C47.347,3.628 47.742,3.737 47.416,3.864 C47.333,3.896 47.417,4.05 47.543,4.094 C48.051,4.19 48.589,4.045 49.087,4.243 C49.423,4.102 49.847,4.366 50.146,4.054 L50.118,4.075 C50.655,3.75 51.204,3.986 51.75,4.048 L51.738,4.034 C52.009,4.121 52.307,4.097 52.575,4.198 C53.063,4.463 53.563,4.689 54.159,4.657 C54.338,4.647 54.527,4.639 54.654,4.796 L54.648,4.787 C55.232,4.857 54.98,4.848 55.403,4.846 L55.188,4.921 C55.511,5.055 55.858,4.951 56.19,5 C56.227,4.965 56.244,4.923 56.238,4.874 C56.235,4.805 56.239,4.74 56.315,4.701 C57.276,4.697 58.244,4.663 59.206,4.781 C59.272,4.771 59.336,4.755 59.398,4.73 C59.992,4.41 60.571,4.719 61.156,4.76 C61.265,4.767 61.372,4.752 61.477,4.723 C62.438,4.452 63.442,4.568 64.42,4.521 C65.231,4.481 66.058,4.349 66.886,4.488 C67.925,4.661 68.99,4.553 70.037,4.661 C70.257,4.594 70.486,4.554 70.712,4.587 C72.234,4.81 73.764,4.67 75.292,4.685 C75.756,4.799 76.249,4.744 76.708,4.881 C77.809,4.773 78.909,4.882 80.009,4.893 C81.058,4.753 82.106,4.59 83.17,4.771 C83.367,4.812 83.565,4.82 83.765,4.801 C83.844,4.79 83.921,4.774 83.997,4.75 C84.693,4.652 85.393,4.723 86.092,4.703 C86.466,4.713 86.846,4.66 87.213,4.77 C87.544,4.836 87.88,4.821 88.215,4.803 C88.288,4.797 88.361,4.79 88.434,4.778 C89.466,4.918 90.482,4.696 91.505,4.652 C91.928,4.552 92.373,4.643 92.797,4.539 L92.779,4.552 C93.118,4.32 93.542,4.602 93.887,4.402 C94.289,4.124 94.784,4.258 95.217,4.219 C96.104,4.14 97.001,3.759 97.907,4.147 C98.413,4.148 98.921,4.132 99.426,4.156 C99.838,4.176 100.011,4.051 99.991,3.66 C99.988,3.614 99.986,3.568 99.984,3.522" fill="#00A669"/>
    <path d="M99.992,2.034 C100.019,1.606 99.818,1.508 99.384,1.508 C98.938,1.507 98.467,1.635 98.042,1.395 C97.55,1.566 97.034,1.507 96.526,1.523 C95.566,1.722 94.589,1.762 93.609,1.774 C92.744,2.019 91.873,2.171 90.978,1.899 C89.824,1.924 88.676,2.092 87.519,2.015 C87,1.808 86.43,1.811 85.9,1.831 C84.224,1.892 82.552,1.988 80.874,1.896 C80.443,1.872 80.036,1.67 79.592,1.763 C79.558,1.767 79.524,1.767 79.491,1.763 C78.376,1.893 77.264,1.784 76.151,1.725 C74.193,1.839 72.24,1.696 70.285,1.639 C70.026,1.631 69.73,1.743 69.514,1.509 C69.415,1.462 69.315,1.416 69.216,1.369 C68.937,1.387 68.657,1.404 68.377,1.421 C65.742,1.54 63.106,1.646 60.465,1.627 C60.219,1.558 59.967,1.591 59.717,1.582 C59.65,1.581 59.584,1.587 59.518,1.6 C59.27,1.664 59.024,1.664 58.779,1.59 C58.715,1.584 58.65,1.58 58.586,1.578 C58.315,1.496 58.033,1.524 57.755,1.518 C56.755,1.453 55.749,1.431 54.761,1.248 C54.421,1.133 54.044,1.302 53.714,1.131 C53.372,0.921 52.976,0.91 52.585,0.888 C51.745,0.86 50.898,1.002 50.068,0.791 C49.375,0.833 48.751,0.555 48.093,0.44 C47.52,0.329 46.931,0.3 46.363,0.162 C45.143,0.131 43.922,0.105 42.702,0.176 C42.348,0.413 41.936,0.299 41.548,0.333 C40.736,0.428 39.914,0.392 39.102,0.525 C38.307,0.655 37.517,0.531 36.747,0.324 C36.105,0.328 35.465,0.285 34.825,0.254 C33.456,-0.115 32.074,-0.021 30.689,0.154 C30.639,0.154 30.59,0.155 30.541,0.156 C29.911,0.342 29.225,0.281 28.605,0.513 C28.243,0.748 27.794,0.81 27.391,0.839 C26.646,0.893 25.897,1.238 25.14,0.892 C24.17,0.892 23.199,0.893 22.228,0.893 C22.129,0.934 22.027,1.013 21.93,1.01 C20.685,0.972 19.449,1.097 18.208,1.141 C17.746,1.142 17.285,1.143 16.823,1.144 C16.359,1.448 15.766,1.101 15.299,1.392 C14.007,1.535 12.709,1.532 11.411,1.517 C10.882,1.871 10.233,1.779 9.648,1.84 C8.769,1.932 7.856,2.136 6.981,1.771 C6.707,1.663 6.402,1.711 6.124,1.628 C5.88,1.564 5.628,1.542 5.377,1.521 C4.732,1.469 4.07,1.681 3.453,1.55 C2.536,1.357 1.625,1.412 0.709,1.398 C0.274,1.381 0.042,1.654 0,2.058 L0,0 L100,0" fill="#005434"/>
    <path d="M16.829,1.144 C17.291,1.143 17.752,1.142 18.214,1.141 C19.454,1.097 20.691,0.972 21.936,1.009 C22.033,1.012 22.134,0.934 22.234,0.893 C23.205,0.893 24.175,0.892 25.146,0.892 C25.903,1.238 26.652,0.893 27.397,0.839 C27.799,0.81 28.248,0.748 28.611,0.513 C29.23,0.281 29.917,0.342 30.547,0.155 C30.596,0.155 30.645,0.154 30.694,0.153 C32.08,-0.021 33.462,-0.115 34.831,0.254 C35.471,0.285 36.111,0.328 36.753,0.324 C37.523,0.531 38.313,0.655 39.107,0.525 C39.919,0.392 40.742,0.428 41.554,0.333 C41.942,0.299 42.354,0.413 42.707,0.176 C43.928,0.105 45.149,0.131 46.369,0.162 C46.936,0.3 47.525,0.329 48.098,0.44 C48.757,0.555 49.381,0.833 50.074,0.791 C50.904,1.002 51.751,0.86 52.59,0.887 C52.982,0.91 53.377,0.921 53.72,1.131 C54.05,1.302 54.427,1.133 54.766,1.248 C55.755,1.431 56.76,1.453 57.76,1.518 C58.038,1.524 58.32,1.496 58.591,1.578 C58.656,1.58 58.721,1.584 58.785,1.59 C59.03,1.664 59.276,1.664 59.524,1.6 C59.59,1.587 59.656,1.581 59.723,1.582 C59.973,1.591 60.225,1.557 60.47,1.627 C63.112,1.646 65.747,1.54 68.383,1.421 C68.663,1.404 68.942,1.387 69.222,1.369 C69.321,1.416 69.42,1.462 69.519,1.509 C69.736,1.743 70.032,1.631 70.291,1.639 C72.245,1.696 74.199,1.839 76.157,1.725 C77.27,1.784 78.382,1.893 79.497,1.763 C79.53,1.767 79.564,1.767 79.598,1.763 C80.042,1.67 80.449,1.872 80.879,1.896 C82.558,1.988 84.23,1.892 85.906,1.831 C86.436,1.811 87.006,1.808 87.524,2.015 C88.682,2.092 89.83,1.924 90.984,1.899 C91.879,2.171 92.75,2.019 93.615,1.774 C94.595,1.762 95.572,1.722 96.532,1.523 C97.04,1.507 97.555,1.566 98.047,1.395 C98.472,1.635 98.944,1.507 99.39,1.508 C99.823,1.508 100.024,1.605 99.998,2.034 C99.964,2.574 99.968,3.119 99.996,3.66 C100.017,4.051 99.844,4.176 99.432,4.156 C98.927,4.132 98.419,4.148 97.912,4.147 C97.007,3.759 96.11,4.139 95.223,4.219 C94.79,4.258 94.294,4.124 93.892,4.402 C93.548,4.602 93.124,4.32 92.785,4.552 L92.803,4.539 C92.379,4.643 91.934,4.552 91.51,4.652 C90.487,4.696 89.472,4.918 88.439,4.778 C88.367,4.79 88.294,4.797 88.22,4.803 C87.885,4.821 87.55,4.836 87.218,4.77 C86.851,4.66 86.472,4.713 86.098,4.703 C85.399,4.723 84.699,4.652 84.002,4.75 C83.927,4.774 83.85,4.79 83.771,4.801 C83.571,4.819 83.372,4.812 83.176,4.771 C82.112,4.59 81.064,4.752 80.015,4.893 C78.914,4.882 77.814,4.773 76.714,4.881 C76.255,4.744 75.762,4.799 75.297,4.684 C73.77,4.67 72.24,4.809 70.718,4.587 C70.492,4.554 70.263,4.594 70.043,4.661 C68.996,4.552 67.931,4.661 66.892,4.487 C66.064,4.349 65.237,4.481 64.426,4.521 C63.448,4.568 62.444,4.452 61.483,4.723 C61.378,4.752 61.271,4.767 61.162,4.76 C60.577,4.719 59.997,4.409 59.404,4.73 C59.341,4.754 59.277,4.771 59.211,4.781 C58.249,4.663 57.282,4.697 56.321,4.701 C56.245,4.739 56.241,4.805 56.244,4.874 C56.249,4.923 56.232,4.965 56.196,5 C55.864,4.951 55.517,5.055 55.193,4.921 C55.324,4.793 55.497,4.866 55.684,4.845 C55.318,4.815 54.979,4.9 54.654,4.787 L54.659,4.796 C54.533,4.639 54.343,4.647 54.165,4.657 C53.569,4.689 53.069,4.463 52.58,4.198 C52.312,4.097 52.015,4.121 51.743,4.034 L51.755,4.048 C51.21,3.986 50.661,3.75 50.123,4.075 L50.151,4.054 C49.853,4.366 49.429,4.102 49.093,4.243 C48.595,4.045 48.057,4.19 47.549,4.094 C47.423,4.05 47.339,3.896 47.422,3.864 C47.748,3.737 47.353,3.628 47.433,3.522 C47.436,3.497 47.521,3.483 47.474,3.472 C47.398,3.454 47.308,3.479 47.223,3.459 C45.894,3.284 44.57,3.037 43.219,3.291 C42.441,3.367 41.659,3.286 40.881,3.347 C38.833,3.591 36.798,4.016 34.712,3.706 C33.318,3.589 31.929,3.445 30.548,3.232 C30.295,3.194 30.039,3.172 29.797,3.259 C29.247,3.456 28.667,3.44 28.094,3.478 C26.115,3.731 24.143,3.965 22.128,3.744 C21.491,3.674 20.805,3.798 20.149,3.902 C19.171,4.041 18.184,3.822 17.205,3.952 C16.208,4.086 15.195,4.024 14.198,4.159 C12.978,4.281 11.75,4.31 10.527,4.392 C10.065,4.575 9.558,4.259 9.098,4.495 C7.614,4.685 6.129,4.607 4.643,4.536 C3.417,4.162 2.15,4.391 0.902,4.329 C0.684,4.311 0.464,4.298 0.257,4.221 C0.017,4.068 0.014,3.834 0.007,3.605 C-0.004,3.106 0.016,2.607 0.001,2.108 C-0.013,1.649 0.188,1.397 0.715,1.398 C1.631,1.412 2.542,1.356 3.459,1.55 C4.076,1.68 4.738,1.469 5.383,1.521 C5.634,1.542 5.886,1.564 6.13,1.628 C6.408,1.711 6.713,1.663 6.986,1.771 C7.862,2.136 8.775,1.932 9.654,1.84 C10.239,1.779 10.888,1.871 11.417,1.517 C12.715,1.532 14.013,1.535 15.305,1.392 C15.772,1.101 16.365,1.448 16.829,1.144" fill="#00A669"/>
  </g>
</svg>
