<?xml version="1.0" encoding="UTF-8"?>
<!DOCTYPE svg PUBLIC "-//W3C//DTD SVG 1.1//EN" "http://www.w3.org/Graphics/SVG/1.1/DTD/svg11.dtd">
<svg version="1.1" xmlns="http://www.w3.org/2000/svg" xmlns:xlink="http://www.w3.org/1999/xlink" x="0" y="0" width="5" height="100" viewBox="0, 0, 5, 100">
  <g id="Background">
    <rect x="0" y="0" width="5" height="100" fill="#000000" fill-opacity="0"/>
  </g>
  <g id="Layer_1">
    <path d="M1.144,83.171 C1.143,82.709 1.142,82.248 1.141,81.786 C1.097,80.546 0.972,79.309 1.009,78.064 C1.012,77.967 0.934,77.866 0.893,77.766 C0.893,76.795 0.892,75.825 0.892,74.854 C1.238,74.097 0.893,73.348 0.839,72.603 C0.81,72.201 0.748,71.752 0.513,71.389 C0.281,70.77 0.342,70.083 0.155,69.453 C0.155,69.404 0.154,69.355 0.153,69.306 C-0.021,67.92 -0.115,66.538 0.254,65.169 C0.285,64.529 0.328,63.889 0.324,63.247 C0.531,62.477 0.655,61.687 0.525,60.893 C0.392,60.081 0.428,59.258 0.333,58.446 C0.299,58.058 0.413,57.646 0.176,57.293 C0.105,56.072 0.131,54.851 0.162,53.631 C0.3,53.064 0.329,52.475 0.44,51.902 C0.555,51.243 0.833,50.619 0.791,49.926 C1.002,49.096 0.86,48.249 0.887,47.41 C0.91,47.018 0.921,46.623 1.131,46.28 C1.302,45.95 1.133,45.573 1.248,45.234 C1.431,44.245 1.453,43.24 1.518,42.24 C1.524,41.962 1.496,41.68 1.578,41.409 C1.58,41.344 1.584,41.279 1.59,41.215 C1.664,40.97 1.664,40.724 1.6,40.476 C1.587,40.41 1.581,40.344 1.582,40.277 C1.591,40.027 1.557,39.775 1.627,39.53 C1.646,36.888 1.54,34.253 1.421,31.617 C1.404,31.337 1.387,31.058 1.369,30.778 C1.416,30.679 1.462,30.58 1.509,30.481 C1.743,30.264 1.631,29.968 1.639,29.709 C1.696,27.755 1.839,25.801 1.725,23.843 C1.784,22.73 1.893,21.618 1.763,20.503 C1.767,20.47 1.767,20.436 1.763,20.402 C1.67,19.958 1.872,19.551 1.896,19.121 C1.988,17.442 1.892,15.77 1.831,14.094 C1.811,13.564 1.808,12.994 2.015,12.476 C2.092,11.318 1.924,10.17 1.899,9.016 C2.171,8.121 2.019,7.25 1.774,6.385 C1.762,5.405 1.722,4.428 1.523,3.468 C1.507,2.96 1.566,2.445 1.395,1.953 C1.635,1.528 1.507,1.056 1.508,0.61 C1.508,0.177 1.605,-0.024 2.034,0.002 C2.574,0.036 3.119,0.032 3.66,0.004 C4.051,-0.017 4.176,0.156 4.156,0.568 C4.132,1.073 4.148,1.581 4.147,2.088 C3.759,2.993 4.139,3.89 4.219,4.777 C4.258,5.21 4.124,5.706 4.402,6.108 C4.602,6.452 4.32,6.876 4.552,7.215 L4.539,7.197 C4.643,7.621 4.552,8.066 4.652,8.49 C4.696,9.513 4.918,10.528 4.778,11.561 C4.79,11.633 4.797,11.706 4.803,11.78 C4.821,12.115 4.836,12.45 4.77,12.782 C4.66,13.149 4.713,13.528 4.703,13.902 C4.723,14.601 4.652,15.301 4.75,15.998 C4.774,16.073 4.79,16.15 4.801,16.229 C4.819,16.429 4.812,16.628 4.771,16.824 C4.59,17.888 4.752,18.936 4.893,19.985 C4.882,21.086 4.773,22.186 4.881,23.286 C4.744,23.745 4.799,24.238 4.684,24.703 C4.67,26.23 4.809,27.76 4.587,29.282 C4.554,29.508 4.594,29.737 4.661,29.957 C4.552,31.004 4.661,32.069 4.487,33.108 C4.349,33.936 4.481,34.763 4.521,35.574 C4.568,36.552 4.452,37.556 4.723,38.517 C4.752,38.622 4.767,38.729 4.76,38.838 C4.719,39.423 4.409,40.003 4.73,40.596 C4.754,40.659 4.771,40.723 4.781,40.789 C4.663,41.751 4.697,42.718 4.701,43.679 C4.739,43.755 4.805,43.759 4.874,43.756 C4.923,43.751 4.965,43.768 5,43.804 C4.951,44.136 5.055,44.483 4.921,44.807 C4.793,44.676 4.866,44.503 4.845,44.316 C4.815,44.682 4.9,45.021 4.787,45.346 L4.796,45.341 C4.639,45.467 4.647,45.657 4.657,45.835 C4.689,46.431 4.463,46.931 4.198,47.42 C4.097,47.688 4.121,47.985 4.034,48.257 L4.048,48.245 C3.986,48.79 3.75,49.339 4.075,49.877 L4.054,49.849 C4.366,50.147 4.102,50.571 4.243,50.907 C4.045,51.405 4.19,51.943 4.094,52.451 C4.05,52.577 3.896,52.661 3.864,52.578 C3.737,52.252 3.628,52.647 3.522,52.567 C3.497,52.564 3.483,52.479 3.472,52.526 C3.454,52.602 3.479,52.692 3.459,52.777 C3.284,54.106 3.037,55.43 3.291,56.781 C3.367,57.559 3.286,58.341 3.347,59.119 C3.591,61.167 4.016,63.202 3.706,65.288 C3.589,66.682 3.445,68.071 3.232,69.452 C3.194,69.705 3.172,69.961 3.259,70.203 C3.456,70.753 3.44,71.333 3.478,71.906 C3.731,73.885 3.965,75.857 3.744,77.872 C3.674,78.509 3.798,79.195 3.902,79.851 C4.041,80.829 3.822,81.816 3.952,82.795 C4.086,83.792 4.024,84.805 4.159,85.802 C4.281,87.022 4.31,88.25 4.392,89.473 C4.575,89.935 4.259,90.442 4.495,90.902 C4.685,92.386 4.607,93.871 4.536,95.357 C4.162,96.583 4.391,97.85 4.329,99.098 C4.311,99.316 4.298,99.536 4.221,99.743 C4.068,99.983 3.834,99.986 3.605,99.993 C3.106,100.004 2.607,99.984 2.108,99.999 C1.649,100.013 1.397,99.812 1.398,99.285 C1.412,98.369 1.356,97.458 1.55,96.541 C1.68,95.924 1.469,95.262 1.521,94.617 C1.542,94.366 1.564,94.114 1.628,93.87 C1.711,93.592 1.663,93.287 1.771,93.014 C2.136,92.138 1.932,91.225 1.84,90.346 C1.779,89.761 1.871,89.112 1.517,88.583 C1.532,87.285 1.535,85.987 1.392,84.695 C1.101,84.228 1.448,83.635 1.144,83.171" fill="#00A669"/>
  </g>
</svg>
