<?xml version="1.0" encoding="UTF-8"?>
<!DOCTYPE svg PUBLIC "-//W3C//DTD SVG 1.1//EN" "http://www.w3.org/Graphics/SVG/1.1/DTD/svg11.dtd">
<svg version="1.1" xmlns="http://www.w3.org/2000/svg" xmlns:xlink="http://www.w3.org/1999/xlink" x="0" y="0" width="5" height="100" viewBox="0, 0, 5, 100">
  <g id="Background">
    <rect x="0" y="0" width="5" height="100" fill="#000000" fill-opacity="0"/>
  </g>
  <g id="Layer_1">
    <path d="M2.5,0 L5,0 L5,100 L2.5,100 L2.5,0 z" fill="#00A669"/>
    <path d="M0,-0 L2.5,-0 L2.5,100 L0,100 L0,-0 z" fill="#005434"/>
    <path d="M5,0 L5,100 L3.605,99.998 C3.834,99.992 4.068,99.989 4.222,99.748 C4.298,99.542 4.311,99.322 4.329,99.104 C4.391,97.856 4.162,96.589 4.536,95.363 C4.608,93.877 4.685,92.392 4.495,90.908 C4.259,90.447 4.575,89.941 4.392,89.478 C4.31,88.255 4.281,87.028 4.159,85.808 C4.024,84.811 4.086,83.798 3.953,82.801 C3.822,81.822 4.041,80.835 3.902,79.856 C3.798,79.2 3.674,78.514 3.744,77.878 C3.965,75.863 3.731,73.89 3.478,71.911 C3.44,71.338 3.456,70.758 3.259,70.209 C3.172,69.967 3.194,69.71 3.232,69.457 C3.445,68.077 3.589,66.688 3.706,65.294 C4.016,63.207 3.591,61.173 3.348,59.125 C3.287,58.347 3.367,57.565 3.291,56.786 C3.037,55.436 3.285,54.112 3.459,52.783 C3.479,52.698 3.454,52.608 3.472,52.531 C3.484,52.484 3.497,52.57 3.522,52.573 C3.628,52.653 3.737,52.258 3.864,52.584 C3.896,52.667 4.05,52.583 4.094,52.457 C4.19,51.949 4.045,51.411 4.243,50.913 C4.102,50.577 4.366,50.153 4.054,49.854 L4.075,49.882 C3.75,49.345 3.986,48.796 4.048,48.25 L4.034,48.262 C4.121,47.991 4.097,47.693 4.198,47.425 C4.463,46.937 4.689,46.437 4.657,45.841 C4.647,45.662 4.639,45.473 4.796,45.346 L4.787,45.352 C4.857,44.768 4.848,45.02 4.846,44.597 L4.921,44.812 C5.055,44.489 4.951,44.142 5,43.81 C4.965,43.773 4.923,43.756 4.874,43.762 C4.805,43.765 4.74,43.761 4.701,43.685 C4.697,42.724 4.663,41.756 4.781,40.794 C4.771,40.728 4.755,40.664 4.73,40.602 C4.41,40.008 4.719,39.429 4.76,38.844 C4.767,38.735 4.752,38.628 4.723,38.523 C4.452,37.562 4.568,36.558 4.521,35.58 C4.481,34.769 4.349,33.942 4.488,33.114 C4.661,32.075 4.553,31.01 4.661,29.963 C4.594,29.743 4.554,29.514 4.587,29.288 C4.81,27.766 4.67,26.236 4.685,24.708 C4.799,24.244 4.744,23.751 4.881,23.292 C4.773,22.191 4.882,21.091 4.893,19.991 C4.753,18.942 4.59,17.894 4.771,16.83 C4.812,16.633 4.82,16.435 4.801,16.235 C4.79,16.156 4.774,16.079 4.75,16.003 C4.652,15.307 4.723,14.607 4.703,13.908 C4.713,13.534 4.66,13.154 4.77,12.787 C4.836,12.456 4.821,12.12 4.803,11.785 C4.797,11.712 4.79,11.639 4.778,11.566 C4.918,10.534 4.696,9.518 4.652,8.495 C4.552,8.072 4.643,7.627 4.539,7.203 L4.552,7.221 C4.32,6.882 4.602,6.458 4.402,6.113 C4.124,5.711 4.258,5.216 4.219,4.783 C4.14,3.896 3.759,2.999 4.147,2.093 C4.148,1.587 4.132,1.079 4.156,0.574 C4.176,0.162 4.051,-0.011 3.66,0.009 C3.614,0.012 3.568,0.014 3.522,0.016" fill="#00A669"/>
    <path d="M2.034,0.008 C1.606,-0.019 1.508,0.182 1.508,0.616 C1.507,1.062 1.635,1.533 1.395,1.958 C1.566,2.45 1.507,2.966 1.523,3.474 C1.722,4.434 1.762,5.411 1.774,6.391 C2.019,7.256 2.171,8.127 1.899,9.022 C1.924,10.176 2.092,11.324 2.015,12.481 C1.808,13 1.811,13.57 1.831,14.1 C1.892,15.776 1.988,17.448 1.896,19.126 C1.872,19.557 1.67,19.964 1.763,20.408 C1.767,20.442 1.767,20.476 1.763,20.509 C1.893,21.624 1.784,22.736 1.725,23.849 C1.839,25.807 1.696,27.76 1.639,29.715 C1.631,29.974 1.743,30.27 1.509,30.486 C1.462,30.585 1.416,30.685 1.369,30.784 C1.387,31.063 1.404,31.343 1.421,31.623 C1.54,34.258 1.646,36.894 1.627,39.535 C1.558,39.781 1.591,40.033 1.582,40.283 C1.581,40.35 1.587,40.416 1.6,40.482 C1.664,40.73 1.664,40.976 1.59,41.221 C1.584,41.285 1.58,41.35 1.578,41.414 C1.496,41.685 1.524,41.967 1.518,42.245 C1.453,43.245 1.431,44.251 1.248,45.239 C1.133,45.579 1.302,45.956 1.131,46.286 C0.921,46.628 0.91,47.024 0.888,47.415 C0.86,48.255 1.002,49.102 0.791,49.932 C0.833,50.625 0.555,51.249 0.44,51.907 C0.329,52.48 0.3,53.069 0.162,53.637 C0.131,54.857 0.105,56.078 0.176,57.298 C0.413,57.652 0.299,58.064 0.333,58.452 C0.428,59.264 0.392,60.086 0.525,60.898 C0.655,61.693 0.531,62.483 0.324,63.253 C0.328,63.895 0.285,64.535 0.254,65.175 C-0.115,66.544 -0.021,67.926 0.154,69.311 C0.154,69.361 0.155,69.41 0.156,69.459 C0.342,70.089 0.281,70.775 0.513,71.395 C0.748,71.757 0.81,72.206 0.839,72.609 C0.893,73.354 1.238,74.103 0.892,74.86 C0.892,75.83 0.893,76.801 0.893,77.772 C0.934,77.871 1.013,77.973 1.01,78.07 C0.972,79.315 1.097,80.551 1.141,81.792 C1.142,82.254 1.143,82.715 1.144,83.177 C1.448,83.641 1.101,84.234 1.392,84.701 C1.535,85.993 1.532,87.291 1.517,88.589 C1.871,89.118 1.779,89.767 1.84,90.352 C1.932,91.231 2.136,92.144 1.771,93.019 C1.663,93.293 1.711,93.598 1.628,93.876 C1.564,94.12 1.542,94.372 1.521,94.623 C1.469,95.268 1.681,95.93 1.55,96.547 C1.357,97.464 1.412,98.375 1.398,99.291 C1.381,99.726 1.654,99.958 2.058,100 L0,100 L0,0" fill="#005434"/>
    <path d="M1.144,83.171 C1.143,82.709 1.142,82.248 1.141,81.786 C1.097,80.546 0.972,79.309 1.009,78.064 C1.012,77.967 0.934,77.866 0.893,77.766 C0.893,76.795 0.892,75.825 0.892,74.854 C1.238,74.097 0.893,73.348 0.839,72.603 C0.81,72.201 0.748,71.752 0.513,71.389 C0.281,70.77 0.342,70.083 0.155,69.453 C0.155,69.404 0.154,69.355 0.153,69.306 C-0.021,67.92 -0.115,66.538 0.254,65.169 C0.285,64.529 0.328,63.889 0.324,63.247 C0.531,62.477 0.655,61.687 0.525,60.893 C0.392,60.081 0.428,59.258 0.333,58.446 C0.299,58.058 0.413,57.646 0.176,57.293 C0.105,56.072 0.131,54.851 0.162,53.631 C0.3,53.064 0.329,52.475 0.44,51.902 C0.555,51.243 0.833,50.619 0.791,49.926 C1.002,49.096 0.86,48.249 0.887,47.41 C0.91,47.018 0.921,46.623 1.131,46.28 C1.302,45.95 1.133,45.573 1.248,45.234 C1.431,44.245 1.453,43.24 1.518,42.24 C1.524,41.962 1.496,41.68 1.578,41.409 C1.58,41.344 1.584,41.279 1.59,41.215 C1.664,40.97 1.664,40.724 1.6,40.476 C1.587,40.41 1.581,40.344 1.582,40.277 C1.591,40.027 1.557,39.775 1.627,39.53 C1.646,36.888 1.54,34.253 1.421,31.617 C1.404,31.337 1.387,31.058 1.369,30.778 C1.416,30.679 1.462,30.58 1.509,30.481 C1.743,30.264 1.631,29.968 1.639,29.709 C1.696,27.755 1.839,25.801 1.725,23.843 C1.784,22.73 1.893,21.618 1.763,20.503 C1.767,20.47 1.767,20.436 1.763,20.402 C1.67,19.958 1.872,19.551 1.896,19.121 C1.988,17.442 1.892,15.77 1.831,14.094 C1.811,13.564 1.808,12.994 2.015,12.476 C2.092,11.318 1.924,10.17 1.899,9.016 C2.171,8.121 2.019,7.25 1.774,6.385 C1.762,5.405 1.722,4.428 1.523,3.468 C1.507,2.96 1.566,2.445 1.395,1.953 C1.635,1.528 1.507,1.056 1.508,0.61 C1.508,0.177 1.605,-0.024 2.034,0.002 C2.574,0.036 3.119,0.032 3.66,0.004 C4.051,-0.017 4.176,0.156 4.156,0.568 C4.132,1.073 4.148,1.581 4.147,2.088 C3.759,2.993 4.139,3.89 4.219,4.777 C4.258,5.21 4.124,5.706 4.402,6.108 C4.602,6.452 4.32,6.876 4.552,7.215 L4.539,7.197 C4.643,7.621 4.552,8.066 4.652,8.49 C4.696,9.513 4.918,10.528 4.778,11.561 C4.79,11.633 4.797,11.706 4.803,11.78 C4.821,12.115 4.836,12.45 4.77,12.782 C4.66,13.149 4.713,13.528 4.703,13.902 C4.723,14.601 4.652,15.301 4.75,15.998 C4.774,16.073 4.79,16.15 4.801,16.229 C4.819,16.429 4.812,16.628 4.771,16.824 C4.59,17.888 4.752,18.936 4.893,19.985 C4.882,21.086 4.773,22.186 4.881,23.286 C4.744,23.745 4.799,24.238 4.684,24.703 C4.67,26.23 4.809,27.76 4.587,29.282 C4.554,29.508 4.594,29.737 4.661,29.957 C4.552,31.004 4.661,32.069 4.487,33.108 C4.349,33.936 4.481,34.763 4.521,35.574 C4.568,36.552 4.452,37.556 4.723,38.517 C4.752,38.622 4.767,38.729 4.76,38.838 C4.719,39.423 4.409,40.003 4.73,40.596 C4.754,40.659 4.771,40.723 4.781,40.789 C4.663,41.751 4.697,42.718 4.701,43.679 C4.739,43.755 4.805,43.759 4.874,43.756 C4.923,43.751 4.965,43.768 5,43.804 C4.951,44.136 5.055,44.483 4.921,44.807 C4.793,44.676 4.866,44.503 4.845,44.316 C4.815,44.682 4.9,45.021 4.787,45.346 L4.796,45.341 C4.639,45.467 4.647,45.657 4.657,45.835 C4.689,46.431 4.463,46.931 4.198,47.42 C4.097,47.688 4.121,47.985 4.034,48.257 L4.048,48.245 C3.986,48.79 3.75,49.339 4.075,49.877 L4.054,49.849 C4.366,50.147 4.102,50.571 4.243,50.907 C4.045,51.405 4.19,51.943 4.094,52.451 C4.05,52.577 3.896,52.661 3.864,52.578 C3.737,52.252 3.628,52.647 3.522,52.567 C3.497,52.564 3.483,52.479 3.472,52.526 C3.454,52.602 3.479,52.692 3.459,52.777 C3.284,54.106 3.037,55.43 3.291,56.781 C3.367,57.559 3.286,58.341 3.347,59.119 C3.591,61.167 4.016,63.202 3.706,65.288 C3.589,66.682 3.445,68.071 3.232,69.452 C3.194,69.705 3.172,69.961 3.259,70.203 C3.456,70.753 3.44,71.333 3.478,71.906 C3.731,73.885 3.965,75.857 3.744,77.872 C3.674,78.509 3.798,79.195 3.902,79.851 C4.041,80.829 3.822,81.816 3.952,82.795 C4.086,83.792 4.024,84.805 4.159,85.802 C4.281,87.022 4.31,88.25 4.392,89.473 C4.575,89.935 4.259,90.442 4.495,90.902 C4.685,92.386 4.607,93.871 4.536,95.357 C4.162,96.583 4.391,97.85 4.329,99.098 C4.311,99.316 4.298,99.536 4.221,99.743 C4.068,99.983 3.834,99.986 3.605,99.993 C3.106,100.004 2.607,99.984 2.108,99.999 C1.649,100.013 1.397,99.812 1.398,99.285 C1.412,98.369 1.356,97.458 1.55,96.541 C1.68,95.924 1.469,95.262 1.521,94.617 C1.542,94.366 1.564,94.114 1.628,93.87 C1.711,93.592 1.663,93.287 1.771,93.014 C2.136,92.138 1.932,91.225 1.84,90.346 C1.779,89.761 1.871,89.112 1.517,88.583 C1.532,87.285 1.535,85.987 1.392,84.695 C1.101,84.228 1.448,83.635 1.144,83.171" fill="#00A669"/>
  </g>
</svg>
